<?xml version="1.0" encoding="utf-8"?>
<!-- Generator: Adobe Illustrator 19.1.0, SVG Export Plug-In . SVG Version: 6.00 Build 0)  -->
<svg version="1.1" xmlns="http://www.w3.org/2000/svg" xmlns:xlink="http://www.w3.org/1999/xlink" x="0px" y="0px"
	 viewBox="0 0 442.988 444.832" style="enable-background:new 0 0 442.988 444.832;" xml:space="preserve">
<style type="text/css">
	.st0{fill:#EC008C;}
	.st1{fill:#C9187D;}
	.st2{fill:#FFF200;}
	.st3{fill:#00AEEF;}
	.st4{clip-path:url(#SVGID_2_);}
</style>
<g id="outline">
	<g>
		<path class="st0" d="M144.334,262.607l4.24,17.87C148.574,273.627,144.584,263.247,144.334,262.607z"/>
	</g>
	<g>
		<path class="st0" d="M144.334,262.607c-0.01-0.02-0.01-0.03-0.01-0.03s-4.25,11.08-4.25,17.9c0,8.06,4.25,20.18,4.25,20.18
			s4.25-10.25,4.25-20.18C148.574,273.627,144.584,263.247,144.334,262.607z"/>
	</g>
	<g>
		<path class="st0" d="M144.334,262.607c-0.01-0.02-0.01-0.03-0.01-0.03s-4.25,11.08-4.25,17.9c0,8.06,4.25,20.18,4.25,20.18
			s4.25-10.25,4.25-20.18C148.574,273.627,144.584,263.247,144.334,262.607z"/>
	</g>
	<g>
		<g>
			<path class="st0" d="M430.124,175.587c0.05-0.54,0.11-1.1,0.18-1.67v-0.01c0.55-4.7,1.75-10.34,4.09-16.83
				c7.43-20.59,16.01-58.97-2.57-129.75c-5.5-20.98-37.21-53.05-86.33,8.33c-20.62,25.76-51.38,84.27-58.29,118.47
				c-0.01,0.07-0.03,0.13-0.04,0.2c0,0-0.25,0.08-0.66,0.29h-0.01c-1.81,0.89-6.61,4.06-5.8,12.28c0.03,0.35,0.07,0.72,0.13,1.09
				c0,0-0.32-0.01-0.81,0.06h-0.01c-1.64,0.22-5.22,1.37-5.33,7.03c0,0,0,0,0,0.01c-0.02,0.77,0.02,1.62,0.15,2.57
				c0,0-0.48-0.63-1.22-1.41l-0.01-0.01c-1.55-1.63-4.26-3.9-6.2-2.36c-0.32,0.25-0.63,0.62-0.9,1.11c0,0-0.19-0.24-0.54-0.59
				c-1.25-1.24-4.53-3.9-8.09-1.79c-0.4,0.22-0.8,0.52-1.2,0.88c0,0-0.57-0.78-1.45-1.69c-1.58-1.6-4.14-3.6-6.25-2.32
				c-0.22,0.14-0.43,0.3-0.64,0.51c0,0-0.12-0.16-0.38-0.45c0.06,1.11,0.07,2.24,0.06,3.37c0,1.34-0.03,2.69-0.1,4.04
				c-0.13,2.7-0.38,5.38-0.72,8.06c-0.69,5.34-1.79,10.63-3.4,15.76c-1.57,5.13-3.62,10.12-6.23,14.8
				c-0.61,1.19-1.35,2.31-2.03,3.46c-0.75,1.1-1.45,2.25-2.26,3.31l-1.17,1.63c-0.42,0.52-0.8,1.08-1.19,1.62
				c-0.75,1.11-1.59,2.15-2.28,3.36l-0.1,0.16c-0.13,0.34-0.32,0.72-0.51,1.06c-0.19,0.35-0.41,0.69-0.64,1.02
				c-0.46,0.65-0.99,1.25-1.6,1.75c-1.2,1.02-2.72,1.6-4.28,1.6s-3.08-0.58-4.28-1.6c-0.61-0.5-1.14-1.1-1.6-1.75
				c-0.23-0.33-0.45-0.67-0.64-1.02c-0.19-0.34-0.38-0.72-0.51-1.06l-0.1-0.16c-0.69-1.21-1.53-2.25-2.28-3.36
				c-0.39-0.54-0.77-1.1-1.19-1.62l-1.17-1.63c-0.81-1.06-1.51-2.21-2.26-3.31c-0.68-1.15-1.42-2.27-2.03-3.46
				c-2.61-4.68-4.66-9.67-6.23-14.8c-1.61-5.13-2.71-10.42-3.4-15.76c-0.34-2.68-0.59-5.36-0.72-8.06c-0.07-1.35-0.1-2.7-0.1-4.04
				c-0.01-1.13,0-2.26,0.06-3.37c-0.26,0.29-0.38,0.45-0.38,0.45c-0.21-0.21-0.42-0.37-0.64-0.51c-2.11-1.28-4.67,0.72-6.25,2.32
				c-0.88,0.91-1.45,1.69-1.45,1.69c-0.4-0.36-0.8-0.66-1.2-0.88c-3.56-2.11-6.84,0.55-8.09,1.79c-0.35,0.35-0.54,0.59-0.54,0.59
				c-0.27-0.49-0.58-0.86-0.9-1.11c-1.94-1.54-4.65,0.73-6.2,2.36l-0.01,0.01c-0.74,0.78-1.22,1.41-1.22,1.41
				c0.13-0.95,0.17-1.8,0.15-2.57c0-0.01,0-0.01,0-0.01c-0.11-5.66-3.69-6.81-5.33-7.03h-0.01c-0.49-0.07-0.81-0.06-0.81-0.06
				c0.06-0.37,0.1-0.74,0.13-1.09c0.81-8.22-3.99-11.39-5.8-12.28h-0.01c-0.41-0.21-0.66-0.29-0.66-0.29
				c-0.01-0.07-0.03-0.13-0.04-0.2c-6.91-34.2-37.67-92.71-58.29-118.47c-49.12-61.38-80.83-29.31-86.33-8.33
				c-18.58,70.78-10,109.16-2.57,129.75c2.34,6.49,3.54,12.13,4.09,16.83v0.01c0.07,0.57,0.13,1.13,0.18,1.67v0.01
				c0.81,9.15-0.87,14.23-0.87,14.23c-6.88,21.27-0.75,30.73,6.67,36.16c14.79,10.84,14,22.84,14,22.84
				c-1.74,22.86,17.19,32.43,24.74,35.31c1.86,0.71,3.03,1.02,3.03,1.02c0.01,0.9,0.13,1.73,0.33,2.5c0,0.01,0,0.02,0.01,0.03
				c1.03,3.82,4.16,6.13,6.31,7.31c1,0.56,1.79,0.86,2.02,0.95c0.05,0.01,0.08,0.02,0.08,0.02c-2.13,11.69,8.64,15.02,8.64,15.02
				s2.28,0.95,3.67,2.84c0.55,0.75,0.96,1.66,1.03,2.71c0,0,0,0,0,0.01c0.02,0.3,0.01,0.61-0.03,0.94
				c-0.72,5.58,3.6,15.6,7.94,18.92c3.18,2.44,10.12,14.37,11.89,18.75c3.66,9.07,19.26,28.48,27.5,36.33
				c2.88,2.74,7.91,7.23,13.05,11.83c2.48,2.23,4.99,4.48,7.3,6.57c5.3,4.81,9.51,8.77,9.82,9.6c0.57,1.54,3.44,6.79,7.67,8
				c2.87,0.82,7.5,3.08,9.66,4.67c18.05,13.31,44.17,12.67,44.17,12.67s26.12,0.64,44.17-12.67c2.16-1.59,6.79-3.85,9.66-4.67
				c4.23-1.21,7.1-6.46,7.67-8c0.31-0.83,4.52-4.79,9.82-9.6c2.31-2.09,4.82-4.34,7.3-6.57c5.14-4.6,10.17-9.09,13.05-11.83
				c8.24-7.85,23.84-27.26,27.5-36.33c1.77-4.38,8.71-16.31,11.89-18.75c4.34-3.32,8.66-13.34,7.94-18.92
				c-0.04-0.33-0.05-0.64-0.03-0.94c0-0.01,0-0.01,0-0.01c0.07-1.05,0.48-1.96,1.03-2.71c1.39-1.89,3.67-2.84,3.67-2.84
				s10.77-3.33,8.64-15.02c0,0,0.03-0.01,0.08-0.02c0.23-0.09,1.02-0.39,2.02-0.95c2.15-1.18,5.28-3.49,6.31-7.31
				c0.01-0.01,0.01-0.02,0.01-0.03c0.2-0.77,0.32-1.6,0.33-2.5c0,0,1.17-0.31,3.03-1.02c7.55-2.88,26.48-12.45,24.74-35.31
				c0,0-0.79-12,14-22.84c7.42-5.43,13.55-14.89,6.67-36.16c0,0-1.68-5.08-0.87-14.23V175.587z"/>
		</g>
	</g>
</g>
<g id="nose">
	<path class="st1" d="M248.556,359.439l-7,5.688l-6.187,3.812l1.062-1.438l3.235-5.062l-2.389,0.438l-7.784,5.875
		c0,0-2,2.312-5.136,6.318s-5.729,0-5.729,0l-2.886-3.568l-3.938-4.188l-5.625-4.125l-3.25-1.062l3.25,4.938l-0.472,0.938
		l-6.466-4.438l-5.438-4.678c0,0-1.896-2.905,3.233-12.261c4.565-8.326,24.454-29.061,24.454-29.061s19.275,21.201,24.39,29.225
		C252.327,356.898,248.556,359.439,248.556,359.439z"/>
</g>
<g id="eyes">
	<g>
		<path class="st2" d="M180.834,291.777c-1.53,0.22-2.99,0.71-4.32,1.34c-1.71,0.8-3.3,1.76-4.83,2.73
			c-1.31,0.84-2.59,1.69-3.87,2.52c1.29-1.8,2.5-4.06,3.37-6.65c0.93-2.7,1.43-5.74,1.47-8.78c0.03-1.52-0.06-3.03-0.22-4.52
			c-0.05-0.37-0.09-0.74-0.14-1.11c-0.06-0.37-0.09-0.69-0.17-1.08c-0.14-0.73-0.28-1.45-0.47-2.14c-0.35-1.39-0.82-2.68-1.31-3.89
			c-0.04-0.1-0.08-0.18-0.12-0.28c0.04,0.05,0.07,0.1,0.11,0.14c0.61,0.85,1.24,1.69,1.82,2.56c0.55,0.89,1.17,1.75,1.67,2.67
			c1.09,1.81,2.03,3.71,2.95,5.62c0.9,1.92,1.74,3.88,2.47,5.88C179.834,288.427,180.354,290.107,180.834,291.777z"/>
		<path class="st2" d="M117.814,285.687c0.07,0.94,0.31,1.83,0.48,2.69c-0.79-1.23-1.55-2.48-2.27-3.76
			c-0.72-1.32-1.41-2.69-2.02-4.03l1.09-2.24c0.46-0.95,0.98-1.87,1.46-2.81c0.5-0.93,1.07-1.82,1.59-2.73
			c0.05-0.08,0.11-0.16,0.16-0.24c-0.04,0.2-0.09,0.4-0.13,0.61c-0.15,1-0.38,2.01-0.46,3.06c-0.05,0.53-0.1,1.05-0.16,1.58
			c-0.04,0.53-0.04,1.07-0.06,1.6c-0.07,1.07-0.02,2.14,0.03,3.19C117.524,283.667,117.704,284.687,117.814,285.687z"/>
		<path class="st2" d="M328.984,280.587c-0.61,1.34-1.3,2.71-2.02,4.03c-0.72,1.28-1.48,2.53-2.27,3.76
			c0.17-0.86,0.41-1.75,0.48-2.69c0.11-1,0.29-2.02,0.29-3.08c0.05-1.05,0.1-2.12,0.03-3.19c-0.02-0.53-0.02-1.07-0.06-1.6
			c-0.06-0.53-0.11-1.05-0.16-1.58c-0.08-1.05-0.31-2.06-0.46-3.06c-0.04-0.21-0.09-0.41-0.13-0.61c0.05,0.08,0.11,0.16,0.16,0.24
			c0.52,0.91,1.09,1.8,1.59,2.73c0.48,0.94,1,1.86,1.46,2.81L328.984,280.587z"/>
		<path class="st2" d="M275.174,298.367c-1.28-0.83-2.56-1.68-3.87-2.52c-1.53-0.97-3.12-1.93-4.83-2.73
			c-1.33-0.63-2.79-1.12-4.32-1.34c0.48-1.67,1-3.35,1.59-4.99c0.73-2,1.57-3.96,2.47-5.88c0.92-1.91,1.86-3.81,2.95-5.62
			c0.5-0.92,1.12-1.78,1.67-2.67c0.58-0.87,1.21-1.71,1.82-2.56c0.04-0.04,0.07-0.09,0.11-0.14c-0.04,0.1-0.08,0.18-0.12,0.28
			c-0.49,1.21-0.96,2.5-1.31,3.89c-0.19,0.69-0.33,1.41-0.47,2.14c-0.08,0.39-0.11,0.71-0.17,1.08c-0.05,0.37-0.09,0.74-0.14,1.11
			c-0.16,1.49-0.25,3-0.22,4.52c0.04,3.04,0.54,6.08,1.47,8.78C272.674,294.307,273.884,296.567,275.174,298.367z"/>
	</g>
	<g>
		<path class="st3" d="M170.394,278.657l-0.14-1.03c-0.06-0.34-0.11-0.73-0.18-1.03c-0.14-0.67-0.27-1.33-0.46-1.97
			c-0.69-2.57-1.67-4.9-2.56-6.87c-0.47-1.06-0.92-2-1.34-2.83c-0.61-0.57-1.19-1.08-1.79-1.61c-0.8-0.66-1.6-1.31-2.44-1.9
			c-3.34-2.41-7.05-4.28-10.96-5.28c-3.89-1.04-7.95-1.17-11.81-0.33c-1.93,0.41-3.78,1.13-5.57,1.99c-1.8,0.86-3.46,2.02-5.05,3.26
			l-1.17,0.96c-0.39,0.33-0.75,0.7-1.12,1.04c-0.77,0.68-1.44,1.46-2.14,2.21s-1.32,1.58-1.99,2.37c-0.03,0.04-0.06,0.08-0.08,0.11
			c-0.09,0.24-0.18,0.48-0.27,0.73c-0.28,0.72-0.52,1.52-0.77,2.36c-0.26,0.85-0.47,1.75-0.7,2.69c-0.16,0.94-0.41,1.91-0.51,2.92
			c-0.06,0.5-0.13,1-0.19,1.51s-0.07,1.02-0.11,1.54c-0.09,1.02-0.07,2.05-0.05,3.06c-0.02,1.01,0.13,2,0.2,2.96
			c0.06,0.96,0.28,1.87,0.43,2.74c0.08,0.43,0.14,0.86,0.24,1.27c0.11,0.4,0.22,0.78,0.32,1.16c0.08,0.27,0.15,0.52,0.22,0.78
			c1.48,2.02,3.1,3.92,4.84,5.68c1.21,1.21,2.48,2.35,3.84,3.37c1.36,1.01,2.77,1.95,4.27,2.7s3.03,1.41,4.63,1.87
			c0.81,0.21,1.61,0.45,2.43,0.57c0.4,0.06,0.85,0.15,1.2,0.19l1.34,0.14c0.89,0.09,1.67,0.12,2.53,0.14c0.85,0.01,1.7,0,2.55-0.07
			c1.69-0.12,3.38-0.34,5.04-0.75c3.31-0.8,6.52-2.08,9.57-3.78c0.57-0.31,1.12-0.64,1.67-0.97c0.66-0.76,1.38-1.67,2.1-2.78
			c1.16-1.8,2.31-4.04,3.06-6.6s1.16-5.41,1.17-8.26C170.654,281.487,170.564,280.057,170.394,278.657z"/>
	</g>
	<g>
		<path class="st3" d="M323.944,279.497c-0.04-0.52-0.05-1.03-0.11-1.54s-0.13-1.01-0.19-1.51c-0.1-1.01-0.35-1.98-0.51-2.92
			c-0.23-0.94-0.44-1.84-0.7-2.69c-0.25-0.84-0.49-1.64-0.77-2.36c-0.09-0.25-0.18-0.49-0.27-0.73c-0.02-0.03-0.05-0.07-0.08-0.11
			c-0.67-0.79-1.29-1.62-1.99-2.37s-1.37-1.53-2.14-2.21c-0.37-0.34-0.73-0.71-1.12-1.04l-1.17-0.96c-1.59-1.24-3.25-2.4-5.05-3.26
			c-1.79-0.86-3.64-1.58-5.57-1.99c-3.86-0.84-7.92-0.71-11.81,0.33c-3.91,1-7.62,2.87-10.96,5.28c-0.84,0.59-1.64,1.24-2.44,1.9
			c-0.6,0.53-1.18,1.04-1.79,1.61c-0.42,0.83-0.87,1.77-1.34,2.83c-0.89,1.97-1.87,4.3-2.56,6.87c-0.19,0.64-0.32,1.3-0.46,1.97
			c-0.07,0.3-0.12,0.69-0.18,1.03l-0.14,1.03c-0.17,1.4-0.26,2.83-0.25,4.26c0.01,2.85,0.42,5.7,1.17,8.26s1.9,4.8,3.06,6.6
			c0.72,1.11,1.44,2.02,2.1,2.78c0.55,0.33,1.1,0.66,1.67,0.97c3.05,1.7,6.26,2.98,9.57,3.78c1.66,0.41,3.35,0.63,5.04,0.75
			c0.85,0.07,1.7,0.08,2.55,0.07c0.86-0.02,1.64-0.05,2.53-0.14l1.34-0.14c0.35-0.04,0.8-0.13,1.2-0.19
			c0.82-0.12,1.62-0.36,2.43-0.57c1.6-0.46,3.13-1.12,4.63-1.87s2.91-1.69,4.27-2.7c1.36-1.02,2.63-2.16,3.84-3.37
			c1.74-1.76,3.36-3.66,4.84-5.68c0.07-0.26,0.14-0.51,0.22-0.78c0.1-0.38,0.21-0.76,0.32-1.16c0.1-0.41,0.16-0.84,0.24-1.27
			c0.15-0.87,0.37-1.78,0.43-2.74c0.07-0.96,0.22-1.95,0.2-2.96C324.014,281.547,324.034,280.517,323.944,279.497z"/>
	</g>
	<path class="st3" d="M248.004,172.907c0,1.34-0.03,2.69-0.1,4.04c-0.13,2.7-0.38,5.38-0.72,8.06c-0.69,5.34-1.79,10.63-3.4,15.76
		c-1.57,5.13-3.62,10.12-6.23,14.8c-0.61,1.19-1.35,2.31-2.03,3.46c-0.75,1.1-1.45,2.25-2.26,3.31l-1.17,1.63
		c-0.42,0.52-0.8,1.08-1.19,1.62c-0.75,1.11-1.59,2.15-2.28,3.36l-0.1,0.16c-0.13,0.34-0.32,0.72-0.51,1.06
		c-0.19,0.35-0.41,0.69-0.64,1.02c-0.46,0.65-0.99,1.25-1.6,1.75c-1.2,1.02-2.72,1.6-4.28,1.6s-3.08-0.58-4.28-1.6
		c-0.61-0.5-1.14-1.1-1.6-1.75c-0.23-0.33-0.45-0.67-0.64-1.02c-0.19-0.34-0.38-0.72-0.51-1.06l-0.1-0.16
		c-0.69-1.21-1.53-2.25-2.28-3.36c-0.39-0.54-0.77-1.1-1.19-1.62l-1.17-1.63c-0.81-1.06-1.51-2.21-2.26-3.31
		c-0.68-1.15-1.42-2.27-2.03-3.46c-2.61-4.68-4.66-9.67-6.23-14.8c-1.61-5.13-2.71-10.42-3.4-15.76c-0.34-2.68-0.59-5.36-0.72-8.06
		c-0.07-1.35-0.1-2.7-0.1-4.04c-0.01-1.13,0-2.26,0.06-3.37c1.58-1.78,8.26-8.31,21.97-9.52c1.42-0.12,2.91-0.19,4.48-0.19
		c1.56,0,3.04,0.07,4.45,0.19c13.73,1.2,20.42,7.74,22,9.52C248.004,170.647,248.014,171.777,248.004,172.907z"/>
</g>
<g id="inlines">
	<defs>
		<path id="SVGID_1_" d="M144.324,262.577c0,0-4.25,11.08-4.25,17.9c0,8.06,4.25,20.18,4.25,20.18s4.25-10.25,4.25-20.18
			C148.574,273.407,144.324,262.577,144.324,262.577z M144.324,262.577c0,0-4.25,11.08-4.25,17.9c0,8.06,4.25,20.18,4.25,20.18
			s4.25-10.25,4.25-20.18C148.574,273.407,144.324,262.577,144.324,262.577z M144.324,262.577c0,0-4.25,11.08-4.25,17.9
			c0,8.06,4.25,20.18,4.25,20.18s4.25-10.25,4.25-20.18C148.574,273.407,144.324,262.577,144.324,262.577z M144.324,262.577
			c0,0-4.25,11.08-4.25,17.9c0,8.06,4.25,20.18,4.25,20.18s4.25-10.25,4.25-20.18C148.574,273.407,144.324,262.577,144.324,262.577z
			 M144.324,262.577c0,0-4.25,11.08-4.25,17.9c0,8.06,4.25,20.18,4.25,20.18s4.25-10.25,4.25-20.18
			C148.574,273.407,144.324,262.577,144.324,262.577z M144.324,262.577c0,0-4.25,11.08-4.25,17.9c0,8.06,4.25,20.18,4.25,20.18
			s4.25-10.25,4.25-20.18C148.574,273.407,144.324,262.577,144.324,262.577z M430.124,175.587c0.05-0.54,0.11-1.1,0.18-1.67v-0.01
			c0.55-4.7,1.75-10.34,4.09-16.83c7.43-20.59,16.01-58.97-2.57-129.75c-5.5-20.98-37.21-53.05-86.33,8.33
			c-20.62,25.76-51.38,84.27-58.29,118.47c-0.01,0.07-0.03,0.13-0.04,0.2c0,0-0.25,0.08-0.66,0.29h-0.01
			c-1.81,0.89-6.61,4.06-5.8,12.28c0.03,0.35,0.07,0.72,0.13,1.09c0,0-0.32-0.01-0.81,0.06h-0.01c-1.64,0.22-5.22,1.37-5.33,7.03
			c0,0,0,0,0,0.01c-0.02,0.77,0.02,1.62,0.15,2.57c0,0-0.48-0.63-1.22-1.41l-0.01-0.01c-1.55-1.63-4.26-3.9-6.2-2.36
			c-0.32,0.25-0.63,0.62-0.9,1.11c0,0-0.19-0.24-0.54-0.59c-1.25-1.24-4.53-3.9-8.09-1.79c-0.4,0.22-0.8,0.52-1.2,0.88
			c0,0-0.57-0.78-1.45-1.69c-1.58-1.6-4.14-3.6-6.25-2.32c-0.22,0.14-0.43,0.3-0.64,0.51c0,0-0.12-0.16-0.38-0.45
			c0.06,1.11,0.07,2.24,0.06,3.37c0,1.34-0.03,2.69-0.1,4.04c-0.13,2.7-0.38,5.38-0.72,8.06c-0.69,5.34-1.79,10.63-3.4,15.76
			c-1.57,5.13-3.62,10.12-6.23,14.8c-0.61,1.19-1.35,2.31-2.03,3.46c-0.75,1.1-1.45,2.25-2.26,3.31l-1.17,1.63
			c-0.42,0.52-0.8,1.08-1.19,1.62c-0.75,1.11-1.59,2.15-2.28,3.36l-0.1,0.16c-0.13,0.34-0.32,0.72-0.51,1.06
			c-0.19,0.35-0.41,0.69-0.64,1.02c-0.46,0.65-0.99,1.25-1.6,1.75c-1.2,1.02-2.72,1.6-4.28,1.6s-3.08-0.58-4.28-1.6
			c-0.61-0.5-1.14-1.1-1.6-1.75c-0.23-0.33-0.45-0.67-0.64-1.02c-0.19-0.34-0.38-0.72-0.51-1.06l-0.1-0.16
			c-0.69-1.21-1.53-2.25-2.28-3.36c-0.39-0.54-0.77-1.1-1.19-1.62l-1.17-1.63c-0.81-1.06-1.51-2.21-2.26-3.31
			c-0.68-1.15-1.42-2.27-2.03-3.46c-2.61-4.68-4.66-9.67-6.23-14.8c-1.61-5.13-2.71-10.42-3.4-15.76c-0.34-2.68-0.59-5.36-0.72-8.06
			c-0.07-1.35-0.1-2.7-0.1-4.04c-0.01-1.13,0-2.26,0.06-3.37c-0.26,0.29-0.38,0.45-0.38,0.45c-0.21-0.21-0.42-0.37-0.64-0.51
			c-2.11-1.28-4.67,0.72-6.25,2.32c-0.88,0.91-1.45,1.69-1.45,1.69c-0.4-0.36-0.8-0.66-1.2-0.88c-3.56-2.11-6.84,0.55-8.09,1.79
			c-0.35,0.35-0.54,0.59-0.54,0.59c-0.27-0.49-0.58-0.86-0.9-1.11c-1.94-1.54-4.65,0.73-6.2,2.36l-0.01,0.01
			c-0.74,0.78-1.22,1.41-1.22,1.41c0.13-0.95,0.17-1.8,0.15-2.57c0-0.01,0-0.01,0-0.01c-0.11-5.66-3.69-6.81-5.33-7.03h-0.01
			c-0.49-0.07-0.81-0.06-0.81-0.06c0.06-0.37,0.1-0.74,0.13-1.09c0.81-8.22-3.99-11.39-5.8-12.28h-0.01
			c-0.41-0.21-0.66-0.29-0.66-0.29c-0.01-0.07-0.03-0.13-0.04-0.2c-6.91-34.2-37.67-92.71-58.29-118.47
			c-49.12-61.38-80.83-29.31-86.33-8.33c-18.58,70.78-10,109.16-2.57,129.75c2.34,6.49,3.54,12.13,4.09,16.83v0.01
			c0.07,0.57,0.13,1.13,0.18,1.67v0.01c0.81,9.15-0.87,14.23-0.87,14.23c-6.88,21.27-0.75,30.73,6.67,36.16
			c14.79,10.84,14,22.84,14,22.84c-1.74,22.86,17.19,32.43,24.74,35.31c1.86,0.71,3.03,1.02,3.03,1.02c0.01,0.9,0.13,1.73,0.33,2.5
			c0,0.01,0,0.02,0.01,0.03c1.03,3.82,4.16,6.13,6.31,7.31c1,0.56,1.79,0.86,2.02,0.95c0.05,0.01,0.08,0.02,0.08,0.02
			c-2.13,11.69,8.64,15.02,8.64,15.02s2.28,0.95,3.67,2.84c0.55,0.75,0.96,1.66,1.03,2.71c0,0,0,0,0,0.01
			c0.02,0.3,0.01,0.61-0.03,0.94c-0.72,5.58,3.6,15.6,7.94,18.92c3.18,2.44,10.12,14.37,11.89,18.75
			c3.66,9.07,19.26,28.48,27.5,36.33c2.88,2.74,7.91,7.23,13.05,11.83c2.48,2.23,4.99,4.48,7.3,6.57c5.3,4.81,9.51,8.77,9.82,9.6
			c0.57,1.54,3.44,6.79,7.67,8c2.87,0.82,7.5,3.08,9.66,4.67c18.05,13.31,44.17,12.67,44.17,12.67s26.12,0.64,44.17-12.67
			c2.16-1.59,6.79-3.85,9.66-4.67c4.23-1.21,7.1-6.46,7.67-8c0.31-0.83,4.52-4.79,9.82-9.6c2.31-2.09,4.82-4.34,7.3-6.57
			c5.14-4.6,10.17-9.09,13.05-11.83c8.24-7.85,23.84-27.26,27.5-36.33c1.77-4.38,8.71-16.31,11.89-18.75
			c4.34-3.32,8.66-13.34,7.94-18.92c-0.04-0.33-0.05-0.64-0.03-0.94c0-0.01,0-0.01,0-0.01c0.07-1.05,0.48-1.96,1.03-2.71
			c1.39-1.89,3.67-2.84,3.67-2.84s10.77-3.33,8.64-15.02c0,0,0.03-0.01,0.08-0.02c0.23-0.09,1.02-0.39,2.02-0.95
			c2.15-1.18,5.28-3.49,6.31-7.31c0.01-0.01,0.01-0.02,0.01-0.03c0.2-0.77,0.32-1.6,0.33-2.5c0,0,1.17-0.31,3.03-1.02
			c7.55-2.88,26.48-12.45,24.74-35.31c0,0-0.79-12,14-22.84c7.42-5.43,13.55-14.89,6.67-36.16c0,0-1.68-5.08-0.87-14.23V175.587z
			 M117.524,282.607c0,1.06,0.18,2.08,0.29,3.08c0.07,0.94,0.31,1.83,0.48,2.69c-0.79-1.23-1.55-2.48-2.27-3.76
			c-0.72-1.32-1.41-2.69-2.02-4.03l1.09-2.24c0.46-0.95,0.98-1.87,1.46-2.81c0.5-0.93,1.07-1.82,1.59-2.73
			c0.05-0.08,0.11-0.16,0.16-0.24c-0.04,0.2-0.09,0.4-0.13,0.61c-0.15,1-0.38,2.01-0.46,3.06c-0.05,0.53-0.1,1.05-0.16,1.58
			c-0.04,0.53-0.04,1.07-0.06,1.6C117.424,280.487,117.474,281.557,117.524,282.607z M120.184,290.687
			c-0.1-0.38-0.21-0.76-0.32-1.16c-0.1-0.41-0.16-0.84-0.24-1.27c-0.15-0.87-0.37-1.78-0.43-2.74c-0.07-0.96-0.22-1.95-0.2-2.96
			c-0.02-1.01-0.04-2.04,0.05-3.06c0.04-0.52,0.05-1.03,0.11-1.54s0.13-1.01,0.19-1.51c0.1-1.01,0.35-1.98,0.51-2.92
			c0.23-0.94,0.44-1.84,0.7-2.69c0.25-0.84,0.49-1.64,0.77-2.36c0.09-0.25,0.18-0.49,0.27-0.73c0.02-0.03,0.05-0.07,0.08-0.11
			c0.67-0.79,1.29-1.62,1.99-2.37s1.37-1.53,2.14-2.21c0.37-0.34,0.73-0.71,1.12-1.04l1.17-0.96c1.59-1.24,3.25-2.4,5.05-3.26
			c1.79-0.86,3.64-1.58,5.57-1.99c3.86-0.84,7.92-0.71,11.81,0.33c3.91,1,7.62,2.87,10.96,5.28c0.84,0.59,1.64,1.24,2.44,1.9
			c0.6,0.53,1.18,1.04,1.79,1.61c0.42,0.83,0.87,1.77,1.34,2.83c0.89,1.97,1.87,4.3,2.56,6.87c0.19,0.64,0.32,1.3,0.46,1.97
			c0.07,0.3,0.12,0.69,0.18,1.03l0.14,1.03c0.17,1.4,0.26,2.83,0.25,4.26c-0.01,2.85-0.42,5.7-1.17,8.26s-1.9,4.8-3.06,6.6
			c-0.72,1.11-1.44,2.02-2.1,2.78c-0.55,0.33-1.1,0.66-1.67,0.97c-3.05,1.7-6.26,2.98-9.57,3.78c-1.66,0.41-3.35,0.63-5.04,0.75
			c-0.85,0.07-1.7,0.08-2.55,0.07c-0.86-0.02-1.64-0.05-2.53-0.14l-1.34-0.14c-0.35-0.04-0.8-0.13-1.2-0.19
			c-0.82-0.12-1.62-0.36-2.43-0.57c-1.6-0.46-3.13-1.12-4.63-1.87s-2.91-1.69-4.27-2.7c-1.36-1.02-2.63-2.16-3.84-3.37
			c-1.74-1.76-3.36-3.66-4.84-5.68C120.334,291.207,120.264,290.957,120.184,290.687z M271.804,291.717
			c0.87,2.59,2.08,4.85,3.37,6.65c-1.28-0.83-2.56-1.68-3.87-2.52c-1.53-0.97-3.12-1.93-4.83-2.73c-1.33-0.63-2.79-1.12-4.32-1.34
			c0.48-1.67,1-3.35,1.59-4.99c0.73-2,1.57-3.96,2.47-5.88c0.92-1.91,1.86-3.81,2.95-5.62c0.5-0.92,1.12-1.78,1.67-2.67
			c0.58-0.87,1.21-1.71,1.82-2.56c0.04-0.04,0.07-0.09,0.11-0.14c-0.04,0.1-0.08,0.18-0.12,0.28c-0.49,1.21-0.96,2.5-1.31,3.89
			c-0.19,0.69-0.33,1.41-0.47,2.14c-0.08,0.39-0.11,0.71-0.17,1.08c-0.05,0.37-0.09,0.74-0.14,1.11c-0.16,1.49-0.25,3-0.22,4.52
			C270.374,285.977,270.874,289.017,271.804,291.717z M172.434,278.417c-0.05-0.37-0.09-0.74-0.14-1.11
			c-0.06-0.37-0.09-0.69-0.17-1.08c-0.14-0.73-0.28-1.45-0.47-2.14c-0.35-1.39-0.82-2.68-1.31-3.89c-0.04-0.1-0.08-0.18-0.12-0.28
			c0.04,0.05,0.07,0.1,0.11,0.14c0.61,0.85,1.24,1.69,1.82,2.56c0.55,0.89,1.17,1.75,1.67,2.67c1.09,1.81,2.03,3.71,2.95,5.62
			c0.9,1.92,1.74,3.88,2.47,5.88c0.59,1.64,1.11,3.32,1.59,4.99c-1.53,0.22-2.99,0.71-4.32,1.34c-1.71,0.8-3.3,1.76-4.83,2.73
			c-1.31,0.84-2.59,1.69-3.87,2.52c1.29-1.8,2.5-4.06,3.37-6.65c0.93-2.7,1.43-5.74,1.47-8.78
			C172.684,281.417,172.594,279.907,172.434,278.417z M300.034,305.987c-0.89,0.09-1.67,0.12-2.53,0.14c-0.85,0.01-1.7,0-2.55-0.07
			c-1.69-0.12-3.38-0.34-5.04-0.75c-3.31-0.8-6.52-2.08-9.57-3.78c-0.57-0.31-1.12-0.64-1.67-0.97c-0.66-0.76-1.38-1.67-2.1-2.78
			c-1.16-1.8-2.31-4.04-3.06-6.6s-1.16-5.41-1.17-8.26c-0.01-1.43,0.08-2.86,0.25-4.26l0.14-1.03c0.06-0.34,0.11-0.73,0.18-1.03
			c0.14-0.67,0.27-1.33,0.46-1.97c0.69-2.57,1.67-4.9,2.56-6.87c0.47-1.06,0.92-2,1.34-2.83c0.61-0.57,1.19-1.08,1.79-1.61
			c0.8-0.66,1.6-1.31,2.44-1.9c3.34-2.41,7.05-4.28,10.96-5.28c3.89-1.04,7.95-1.17,11.81-0.33c1.93,0.41,3.78,1.13,5.57,1.99
			c1.8,0.86,3.46,2.02,5.05,3.26l1.17,0.96c0.39,0.33,0.75,0.7,1.12,1.04c0.77,0.68,1.44,1.46,2.14,2.21s1.32,1.58,1.99,2.37
			c0.03,0.04,0.06,0.08,0.08,0.11c0.09,0.24,0.18,0.48,0.27,0.73c0.28,0.72,0.52,1.52,0.77,2.36c0.26,0.85,0.47,1.75,0.7,2.69
			c0.16,0.94,0.41,1.91,0.51,2.92c0.06,0.5,0.13,1,0.19,1.51s0.07,1.02,0.11,1.54c0.09,1.02,0.07,2.05,0.05,3.06
			c0.02,1.01-0.13,2-0.2,2.96c-0.06,0.96-0.28,1.87-0.43,2.74c-0.08,0.43-0.14,0.86-0.24,1.27c-0.11,0.4-0.22,0.78-0.32,1.16
			c-0.08,0.27-0.15,0.52-0.22,0.78c-1.48,2.02-3.1,3.92-4.84,5.68c-1.21,1.21-2.48,2.35-3.84,3.37c-1.36,1.01-2.77,1.95-4.27,2.7
			s-3.03,1.41-4.63,1.87c-0.81,0.21-1.61,0.45-2.43,0.57c-0.4,0.06-0.85,0.15-1.2,0.19L300.034,305.987z M324.844,272.807
			c0.52,0.91,1.09,1.8,1.59,2.73c0.48,0.94,1,1.86,1.46,2.81l1.09,2.24c-0.61,1.34-1.3,2.71-2.02,4.03
			c-0.72,1.28-1.48,2.53-2.27,3.76c0.17-0.86,0.41-1.75,0.48-2.69c0.11-1,0.29-2.02,0.29-3.08c0.05-1.05,0.1-2.12,0.03-3.19
			c-0.02-0.53-0.02-1.07-0.06-1.6c-0.06-0.53-0.11-1.05-0.16-1.58c-0.08-1.05-0.31-2.06-0.46-3.06c-0.04-0.21-0.09-0.41-0.13-0.61
			C324.734,272.647,324.794,272.727,324.844,272.807z M148.574,280.477c0-7.07-4.25-17.9-4.25-17.9s-4.25,11.08-4.25,17.9
			c0,8.06,4.25,20.18,4.25,20.18S148.574,290.407,148.574,280.477z M148.574,280.477c0-7.07-4.25-17.9-4.25-17.9 M144.324,300.657"
			/>
	</defs>
	<clipPath id="SVGID_2_">
		<use xlink:href="#SVGID_1_"  style="overflow:visible;"/>
	</clipPath>
	<g class="st4">
		<g>
			<path d="M183.144,292.457c-0.38-2.21-0.91-4.33-1.53-6.45c-0.61-2.12-1.36-4.2-2.16-6.26c-0.41-1.03-0.82-2.06-1.31-3.05
				c-0.45-1.02-0.96-2-1.48-2.99c-0.49-1-1.09-1.94-1.64-2.91c-0.58-0.96-1.21-1.89-1.82-2.83c-0.68-0.89-1.31-1.83-2.04-2.69
				l-1.09-1.3l-0.58-0.68l-0.56-0.59c-0.71-0.77-1.6-1.58-2.44-2.35c-0.86-0.75-1.72-1.48-2.64-2.16
				c-3.62-2.74-7.72-4.94-12.19-6.21c-2.22-0.63-4.54-1.07-6.89-1.15c-2.34-0.09-4.71,0.11-7.01,0.6c-2.32,0.47-4.54,1.32-6.63,2.37
				c-2.11,1.03-4.02,2.38-5.82,3.83l-1.3,1.13c-0.43,0.38-0.82,0.8-1.23,1.2c-0.84,0.79-1.56,1.67-2.32,2.52
				c-0.75,0.86-1.4,1.78-2.11,2.67c-0.63,0.93-1.29,1.85-1.89,2.79c-1.2,1.91-2.25,3.88-3.23,5.88c-0.46,1.01-0.95,2.01-1.38,3.03
				l-1.23,3.08l-0.26,0.65l0.24,0.58c0.67,1.82,1.43,3.46,2.26,5.12c0.83,1.65,1.73,3.27,2.73,4.83c1.99,3.13,4.23,6.13,6.9,8.78
				c1.32,1.33,2.74,2.58,4.26,3.71c1.53,1.13,3.13,2.18,4.84,3.04c1.72,0.86,3.52,1.57,5.38,2.07c0.94,0.22,1.87,0.47,2.83,0.59
				c0.49,0.06,0.92,0.15,1.47,0.2l1.34,0.11c0.89,0.06,1.92,0.09,2.86,0.09c0.94-0.01,1.89-0.05,2.83-0.14
				c1.88-0.18,3.76-0.47,5.59-0.96c3.66-0.95,7.1-2.55,10.26-4.45c3.17-1.9,6.1-4.08,8.98-6.15c1.44-1.03,2.9-2.01,4.4-2.81
				c1.51-0.8,3.07-1.38,4.68-1.54l1.11-0.11L183.144,292.457z M117.524,282.607c0,1.06,0.18,2.08,0.29,3.08
				c0.07,0.94,0.31,1.83,0.48,2.69c-0.79-1.23-1.55-2.48-2.27-3.76c-0.72-1.32-1.41-2.69-2.02-4.03l1.09-2.24
				c0.46-0.95,0.98-1.87,1.46-2.81c0.5-0.93,1.07-1.82,1.59-2.73c0.05-0.08,0.11-0.16,0.16-0.24c-0.04,0.2-0.09,0.4-0.13,0.61
				c-0.15,1-0.38,2.01-0.46,3.06c-0.05,0.53-0.1,1.05-0.16,1.58c-0.04,0.53-0.04,1.07-0.06,1.6
				C117.424,280.487,117.474,281.557,117.524,282.607z M164.314,300.557c-0.55,0.33-1.1,0.66-1.67,0.97
				c-3.05,1.7-6.26,2.98-9.57,3.78c-1.66,0.41-3.35,0.63-5.04,0.75c-0.85,0.07-1.7,0.08-2.55,0.07c-0.86-0.02-1.64-0.05-2.53-0.14
				l-1.34-0.14c-0.35-0.04-0.8-0.13-1.2-0.19c-0.82-0.12-1.62-0.36-2.43-0.57c-1.6-0.46-3.13-1.12-4.63-1.87s-2.91-1.69-4.27-2.7
				c-1.36-1.02-2.63-2.16-3.84-3.37c-1.74-1.76-3.36-3.66-4.84-5.68c-0.07-0.26-0.14-0.51-0.22-0.78c-0.1-0.38-0.21-0.76-0.32-1.16
				c-0.1-0.41-0.16-0.84-0.24-1.27c-0.15-0.87-0.37-1.78-0.43-2.74c-0.07-0.96-0.22-1.95-0.2-2.96c-0.02-1.01-0.04-2.04,0.05-3.06
				c0.04-0.52,0.05-1.03,0.11-1.54s0.13-1.01,0.19-1.51c0.1-1.01,0.35-1.98,0.51-2.92c0.23-0.94,0.44-1.84,0.7-2.69
				c0.25-0.84,0.49-1.64,0.77-2.36c0.09-0.25,0.18-0.49,0.27-0.73c0.02-0.03,0.05-0.07,0.08-0.11c0.67-0.79,1.29-1.62,1.99-2.37
				s1.37-1.53,2.14-2.21c0.37-0.34,0.73-0.71,1.12-1.04l1.17-0.96c1.59-1.24,3.25-2.4,5.05-3.26c1.79-0.86,3.64-1.58,5.57-1.99
				c3.86-0.84,7.92-0.71,11.81,0.33c3.91,1,7.62,2.87,10.96,5.28c0.84,0.59,1.64,1.24,2.44,1.9c0.6,0.53,1.18,1.04,1.79,1.61
				c0.42,0.83,0.87,1.77,1.34,2.83c0.89,1.97,1.87,4.3,2.56,6.87c0.19,0.64,0.32,1.3,0.46,1.97c0.07,0.3,0.12,0.69,0.18,1.03
				l0.14,1.03c0.17,1.4,0.26,2.83,0.25,4.26c-0.01,2.85-0.42,5.7-1.17,8.26s-1.9,4.8-3.06,6.6
				C165.694,298.887,164.974,299.797,164.314,300.557z M176.514,293.117c-1.71,0.8-3.3,1.76-4.83,2.73
				c-1.31,0.84-2.59,1.69-3.87,2.52c1.29-1.8,2.5-4.06,3.37-6.65c0.93-2.7,1.43-5.74,1.47-8.78c0.03-1.52-0.06-3.03-0.22-4.52
				c-0.05-0.37-0.09-0.74-0.14-1.11c-0.06-0.37-0.09-0.69-0.17-1.08c-0.14-0.73-0.28-1.45-0.47-2.14c-0.35-1.39-0.82-2.68-1.31-3.89
				c-0.04-0.1-0.08-0.18-0.12-0.28c0.04,0.05,0.07,0.1,0.11,0.14c0.61,0.85,1.24,1.69,1.82,2.56c0.55,0.89,1.17,1.75,1.67,2.67
				c1.09,1.81,2.03,3.71,2.95,5.62c0.9,1.92,1.74,3.88,2.47,5.88c0.59,1.64,1.11,3.32,1.59,4.99
				C179.304,291.997,177.844,292.487,176.514,293.117z"/>
			<path d="M166.59,235.458l-1.025-0.494l-2.054-0.98c-0.677-0.342-1.42-0.529-2.125-0.8c-0.717-0.24-1.418-0.525-2.143-0.723
				c-0.731-0.179-1.46-0.357-2.187-0.535l-1.087-0.265l-1.102-0.169c-0.732-0.112-1.461-0.224-2.187-0.335
				c-0.726-0.1-1.459-0.109-2.18-0.167c-1.439-0.142-2.886-0.079-4.301-0.048c-0.715-0.007-1.389,0.085-2.065,0.141
				c-0.684,0.064-1.362,0.127-2.033,0.19c-1.334,0.228-2.646,0.416-3.889,0.757c-2.498,0.615-4.806,1.419-6.824,2.394
				c-2.034,0.938-3.809,1.976-5.302,3.006c-1.511,1.001-2.741,1.997-3.715,2.853c-0.988,0.84-1.688,1.585-2.168,2.084
				c-0.477,0.503-0.71,0.789-0.71,0.789s1.078-1.016,3.164-2.515c2.076-1.499,5.169-3.495,9.182-5.209
				c2-0.862,4.232-1.651,6.661-2.197c1.206-0.314,2.475-0.474,3.764-0.677c0.654-0.051,1.314-0.103,1.981-0.155
				c0.675-0.053,1.365-0.118,2.032-0.08c1.348,0.026,2.711,0.013,4.101,0.205c0.692,0.082,1.394,0.116,2.087,0.238
				c0.691,0.133,1.385,0.267,2.082,0.401l1.044,0.208l1.025,0.304c0.683,0.202,1.367,0.405,2.054,0.608
				c0.679,0.221,1.331,0.526,1.997,0.785c0.654,0.289,1.346,0.493,1.969,0.85l1.898,0.995l0.946,0.497l0.887,0.594
				c1.181,0.79,2.381,1.538,3.419,2.489c0.543,0.443,1.083,0.884,1.622,1.322c0.519,0.46,0.978,0.982,1.467,1.465
				c0.481,0.49,0.959,0.978,1.434,1.462c0.445,0.511,0.841,1.06,1.26,1.582c0.416,0.524,0.828,1.044,1.236,1.558
				c0.431,0.498,0.727,1.09,1.092,1.621c0.348,0.544,0.693,1.082,1.033,1.614c0.346,0.529,0.687,1.051,0.945,1.615
				c0.566,1.099,1.116,2.167,1.649,3.201c0.29,0.506,0.468,1.055,0.683,1.575c0.214,0.521,0.425,1.033,0.631,1.534
				c0.389,1.011,0.866,1.945,1.136,2.901c0.294,0.948,0.572,1.848,0.834,2.693c0.265,0.847,0.513,1.64,0.742,2.372
				c0.178,0.748,0.342,1.436,0.49,2.056c0.581,2.488,0.961,3.912,0.961,3.912l0.01,0.038c0.071,0.267,0.345,0.425,0.611,0.354
				c0.243-0.065,0.396-0.297,0.368-0.54c0,0-0.169-1.471-0.548-4.048c-0.092-0.646-0.194-1.36-0.305-2.138
				c-0.143-0.772-0.361-1.596-0.577-2.479c-0.219-0.884-0.451-1.826-0.696-2.818c-0.222-1-0.654-1.995-0.997-3.066
				c-0.386-1.057-0.706-2.193-1.225-3.295c-0.523-1.102-1.063-2.241-1.619-3.412c-0.257-0.597-0.613-1.153-0.968-1.718
				c-0.352-0.567-0.708-1.142-1.068-1.722c-0.378-0.569-0.686-1.194-1.134-1.733c-0.434-0.549-0.872-1.102-1.313-1.661
				c-0.451-0.551-0.88-1.128-1.36-1.668c-0.496-0.497-0.995-0.998-1.497-1.501c-0.537-0.892-1.248-1.978-2.141-3.175
				c-1.177-1.562-2.624-3.323-4.307-5.142c-0.41-0.45-0.884-0.921-1.346-1.375c-0.452-0.411-0.942-0.868-1.361-1.269
				c-0.874-0.815-1.644-1.748-2.089-2.741c-0.452-0.993-0.536-2.01-0.192-3.019c0.357-1.009,1.066-1.961,1.817-2.857
				c0.755-0.898,1.583-1.771,2.284-2.691c0.705-0.922,1.257-1.835,1.766-2.675c1.003-1.688,1.764-3.121,2.283-4.134
				c0.504-1.021,0.793-1.604,0.793-1.604c0.122-0.248,0.021-0.548-0.227-0.67c-0.235-0.116-0.516-0.031-0.649,0.189l-0.008,0.013
				c0,0-0.331,0.55-0.909,1.514c-0.587,0.958-1.417,2.337-2.496,3.917c-0.538,0.789-1.147,1.628-1.813,2.452
				c-0.676,0.823-1.494,1.622-2.333,2.546c-0.827,0.926-1.711,1.967-2.267,3.346c-0.244,0.7-0.432,1.466-0.39,2.248
				c0.012,0.392,0.039,0.783,0.158,1.149c0.086,0.379,0.196,0.745,0.366,1.073c0.603,1.372,1.524,2.467,2.485,3.396
				c0.494,0.483,0.922,0.892,1.386,1.325c0.42,0.426,0.816,0.827,1.216,1.277c0.563,0.613,1.085,1.228,1.591,1.838
				c-0.246-0.15-0.493-0.3-0.738-0.452L166.59,235.458z"/>
			<path d="M151.258,362.095c0,0-1.654,2.736-3.603,7.112c-1.943,4.367-4.188,10.408-5.278,16.8
				c-0.29,1.592-0.473,3.208-0.607,4.807c-0.062,0.8-0.082,1.599-0.12,2.387c0.009,0.791-0.008,1.573,0.025,2.344
				c0.117,3.085,0.634,5.979,1.375,8.391c0.201,0.599,0.394,1.174,0.578,1.72c0.226,0.533,0.44,1.039,0.641,1.514
				c0.402,0.953,0.876,1.728,1.207,2.396c0.799,1.262,1.256,1.983,1.256,1.983c0.569,0.898,1.759,1.166,2.657,0.596
				c0.899-0.569,1.166-1.759,0.596-2.657c-0.022-0.034-0.044-0.067-0.067-0.1l-0.101-0.138c0,0-0.432-0.592-1.187-1.628
				c-0.317-0.557-0.776-1.195-1.176-2.001c-0.203-0.402-0.419-0.83-0.647-1.282c-0.192-0.47-0.395-0.964-0.606-1.48
				c-0.793-2.088-1.437-4.663-1.733-7.511c-0.078-0.711-0.108-1.441-0.166-2.178c-0.011-0.74-0.043-1.491-0.033-2.25
				c0.029-1.517,0.1-3.066,0.28-4.61c0.64-6.196,2.448-12.28,4.084-16.706c1.64-4.44,3.097-7.248,3.097-7.248
				c0.069-0.132,0.017-0.295-0.115-0.364C151.488,361.927,151.331,361.975,151.258,362.095z"/>
			<path d="M277.754,205.397v0.02c0.04,0.15-0.04,0.3-0.18,0.34c-0.14,0.04-0.29-0.04-0.34-0.18c0,0-0.19-0.58-0.98-1.4
				c-0.78-0.83-2.08-1.86-3.73-2.96c-1.65-1.12-3.66-2.3-5.82-3.59c-1.08-0.64-2.21-1.4-3.26-2.27c-1.04-0.9-2-1.92-2.85-3.02
				c-1.72-2.19-2.92-4.74-3.74-7.2c-0.01,0.01-0.02,0.02-0.03,0.03c-0.08,0.16-0.16,0.32-0.26,0.5c-0.06,0.19-0.14,0.39-0.21,0.6
				c-0.1,0.2-0.11,0.45-0.17,0.69s-0.1,0.5-0.1,0.77c0,0.28-0.04,0.56-0.03,0.85c0.02,0.29,0.05,0.6,0.07,0.9
				c0.02,0.27,0.07,0.54,0.12,0.81c0.08,0.14,0.13,0.29,0.13,0.45c0,0.03-0.01,0.05-0.01,0.07c0,0,0,0.03,0,0.07
				c0.03,0.17,0.07,0.34,0.1,0.51c0.21,0.64,0.39,1.31,0.63,1.96c0.27,0.64,0.54,1.28,0.81,1.92c0.32,0.61,0.63,1.22,0.94,1.8
				c0.29,0.6,0.65,1.13,0.96,1.65c0.32,0.52,0.62,1.01,0.9,1.46c1.23,1.77,2.06,2.94,2.06,2.94c0.1,0.15,0.07,0.37-0.08,0.47
				c-0.15,0.1-0.35,0.07-0.46-0.06c0,0-0.92-1.1-2.3-2.76c-0.32-0.44-0.67-0.92-1.04-1.42c-0.36-0.51-0.79-1.03-1.13-1.62
				c-0.37-0.58-0.75-1.19-1.13-1.8c-0.26-0.5-0.53-1.02-0.8-1.53c-0.07,0.31-0.14,0.63-0.23,0.97c-0.22,0.91-0.55,1.92-0.91,3.01
				c-0.4,1.08-0.83,2.25-1.38,3.43c-0.5,1.22-1.18,2.42-1.83,3.69c-0.71,1.24-1.45,2.51-2.27,3.76c-0.42,0.62-0.85,1.24-1.28,1.86
				l-0.64,0.93l-0.71,0.89c-0.94,1.18-1.83,2.41-2.86,3.49c-1.01,1.09-1.92,2.24-2.96,3.2c-1.01,0.99-1.97,1.97-2.91,2.86
				c-0.98,0.85-1.9,1.66-2.75,2.4c-0.42,0.37-0.83,0.73-1.22,1.07c-0.4,0.31-0.79,0.61-1.15,0.89c-0.6,0.47-1.11,0.87-1.57,1.22
				c-0.56,0.53-1.15,1.04-1.75,1.52c-0.15,0.38-0.32,0.72-0.52,1.07c-0.21,0.38-0.44,0.75-0.69,1.11c-0.51,0.71-1.09,1.37-1.78,1.94
				c-0.67,0.57-1.45,1.04-2.29,1.35c-0.84,0.33-1.74,0.47-2.63,0.48c-0.89-0.01-1.79-0.15-2.63-0.48c-0.84-0.31-1.62-0.78-2.29-1.35
				c-0.69-0.57-1.27-1.23-1.78-1.94c-0.25-0.36-0.48-0.73-0.69-1.11c-0.2-0.35-0.37-0.69-0.52-1.07c-0.6-0.48-1.19-0.99-1.75-1.52
				c-0.46-0.35-0.97-0.75-1.57-1.22c-0.36-0.28-0.75-0.58-1.15-0.89c-0.39-0.34-0.8-0.7-1.22-1.07c-0.85-0.74-1.77-1.55-2.75-2.4
				c-0.94-0.89-1.9-1.87-2.91-2.86c-1.04-0.96-1.95-2.11-2.96-3.2c-1.03-1.08-1.92-2.31-2.86-3.49l-0.71-0.89l-0.64-0.93
				c-0.43-0.62-0.86-1.24-1.28-1.86c-0.82-1.25-1.56-2.52-2.27-3.76c-0.65-1.27-1.33-2.47-1.83-3.69c-0.55-1.18-0.98-2.35-1.38-3.43
				c-0.36-1.09-0.69-2.1-0.91-3.01c-0.09-0.34-0.16-0.66-0.23-0.97c-0.27,0.51-0.54,1.03-0.8,1.53c-0.38,0.61-0.76,1.22-1.13,1.8
				c-0.34,0.59-0.77,1.11-1.13,1.62c-0.37,0.5-0.72,0.98-1.04,1.42c-1.38,1.66-2.3,2.76-2.3,2.76c-0.11,0.13-0.31,0.16-0.46,0.06
				c-0.15-0.1-0.18-0.32-0.08-0.47c0,0,0.83-1.17,2.06-2.94c0.28-0.45,0.58-0.94,0.9-1.46c0.31-0.52,0.67-1.05,0.96-1.65
				c0.31-0.58,0.62-1.19,0.94-1.8c0.27-0.64,0.54-1.28,0.81-1.92c0.24-0.65,0.42-1.32,0.63-1.96c0.03-0.17,0.07-0.34,0.1-0.51
				c0-0.04,0-0.07,0-0.07c0-0.02-0.01-0.04-0.01-0.07c0-0.16,0.05-0.31,0.13-0.45c0.05-0.27,0.1-0.54,0.12-0.81
				c0.02-0.3,0.05-0.61,0.07-0.9c0.01-0.29-0.03-0.57-0.03-0.85c0-0.27-0.04-0.53-0.1-0.77s-0.07-0.49-0.17-0.69
				c-0.07-0.21-0.15-0.41-0.21-0.6c-0.1-0.18-0.18-0.34-0.26-0.5c-0.01-0.01-0.02-0.02-0.03-0.03c-0.82,2.46-2.02,5.01-3.74,7.2
				c-0.85,1.1-1.81,2.12-2.85,3.02c-1.05,0.87-2.18,1.63-3.26,2.27c-2.16,1.29-4.17,2.47-5.82,3.59c-1.65,1.1-2.95,2.13-3.73,2.96
				c-0.79,0.82-0.98,1.4-0.98,1.4c-0.05,0.14-0.2,0.22-0.34,0.18c-0.14-0.04-0.22-0.19-0.18-0.34v-0.02c0,0,0.22-0.74,1.02-1.65
				c0.79-0.93,2.07-2.05,3.69-3.27c1.61-1.22,3.58-2.52,5.66-3.92c1.04-0.7,2.03-1.44,2.96-2.3c0.92-0.87,1.75-1.86,2.49-2.91
				c1.48-2.1,2.47-4.51,3.12-6.83c0.64-2.33,0.92-4.6,1.04-6.53c0.11-1.94,0.06-3.56-0.03-4.68c-0.02-0.26-0.04-0.5-0.06-0.7
				c-0.02-0.24-0.04-0.43-0.06-0.59c-0.04-0.29-0.06-0.44-0.06-0.44v-0.05c-0.01-0.02-0.01-0.04-0.01-0.06
				c-0.06-0.76,0.5-1.42,1.25-1.49c0.76-0.06,1.42,0.5,1.49,1.26c0,0,0.01,0.18,0.04,0.52v0.04c0.02,0.32,0.05,0.79,0.06,1.38
				c0.03,1.22,0,2.95-0.22,5.01c-0.14,1.24-0.36,2.62-0.68,4.05c0.17,0.15,0.37,0.35,0.59,0.63c0.25,0.31,0.5,0.71,0.74,1.18
				c0.1,0.24,0.21,0.5,0.33,0.77c0.09,0.28,0.16,0.57,0.24,0.88c0.1,0.3,0.09,0.62,0.14,0.95c0.05,0.33,0.07,0.67,0.05,1.01
				c-0.01,0.35,0,0.7-0.05,1.05c-0.05,0.35-0.11,0.71-0.17,1.07c-0.04,0.29-0.12,0.58-0.2,0.87c0,0.03,0.02,0.06,0.02,0.09v0.02
				c0,0,0,0.2,0.02,0.5c0.01,0.3,0.07,0.81,0.16,1.42c0.09,0.63,0.22,1.38,0.42,2.25c0.19,0.86,0.48,1.83,0.79,2.88
				c0.36,1.04,0.73,2.17,1.24,3.33c0.45,1.18,1.08,2.36,1.67,3.61c0.66,1.22,1.35,2.48,2.11,3.71c0.4,0.61,0.8,1.23,1.2,1.85
				l0.61,0.93l0.66,0.89c0.9,1.18,1.74,2.4,2.72,3.49c0.96,1.1,1.83,2.25,2.83,3.23c0.97,1,1.89,1.99,2.8,2.89
				c0.89,0.83,1.73,1.6,2.52,2.33c-0.12-0.17-0.25-0.33-0.37-0.5c-0.83-1.1-1.54-2.29-2.31-3.43c-0.69-1.19-1.44-2.35-2.07-3.58
				c-2.64-4.84-4.71-9.97-6.27-15.24c-1.54-5.27-2.55-10.69-3.13-16.13c-0.29-2.73-0.42-5.46-0.47-8.2c-0.03-2.51,0.02-5,0.27-7.51
				c0.01-0.23,0.03-0.47,0.06-0.7c0.02-0.27,0.26-0.46,0.52-0.45c0.28,0.02,0.49,0.26,0.47,0.53v0.01
				c-0.01,0.22-0.03,0.44-0.03,0.67c-0.06,1.11-0.07,2.24-0.06,3.37c0,1.34,0.03,2.69,0.1,4.04c0.13,2.7,0.38,5.38,0.72,8.06
				c0.69,5.34,1.79,10.63,3.4,15.76c1.57,5.13,3.62,10.12,6.23,14.8c0.61,1.19,1.35,2.31,2.03,3.46c0.75,1.1,1.45,2.25,2.26,3.31
				l1.17,1.63c0.42,0.52,0.8,1.08,1.19,1.62c0.75,1.11,1.59,2.15,2.28,3.36l0.1,0.16c0.13,0.34,0.32,0.72,0.51,1.06
				c0.19,0.35,0.41,0.69,0.64,1.02c0.46,0.65,0.99,1.25,1.6,1.75c1.2,1.02,2.72,1.6,4.28,1.6s3.08-0.58,4.28-1.6
				c0.61-0.5,1.14-1.1,1.6-1.75c0.23-0.33,0.45-0.67,0.64-1.02c0.19-0.34,0.38-0.72,0.51-1.06l0.1-0.16
				c0.69-1.21,1.53-2.25,2.28-3.36c0.39-0.54,0.77-1.1,1.19-1.62l1.17-1.63c0.81-1.06,1.51-2.21,2.26-3.31
				c0.68-1.15,1.42-2.27,2.03-3.46c2.61-4.68,4.66-9.67,6.23-14.8c1.61-5.13,2.71-10.42,3.4-15.76c0.34-2.68,0.59-5.36,0.72-8.06
				c0.07-1.35,0.1-2.7,0.1-4.04c0.01-1.13,0-2.26-0.06-3.37c0-0.23-0.02-0.45-0.03-0.67v-0.01c-0.02-0.27,0.19-0.51,0.47-0.53
				c0.26-0.01,0.5,0.18,0.52,0.45c0.03,0.23,0.05,0.47,0.06,0.7c0.25,2.51,0.3,5,0.27,7.51c-0.05,2.74-0.18,5.47-0.47,8.2
				c-0.58,5.44-1.59,10.86-3.13,16.13c-1.56,5.27-3.63,10.4-6.27,15.24c-0.63,1.23-1.38,2.39-2.07,3.58
				c-0.77,1.14-1.48,2.33-2.31,3.43c-0.12,0.17-0.25,0.33-0.37,0.5c0.79-0.73,1.63-1.5,2.52-2.33c0.91-0.9,1.83-1.89,2.8-2.89
				c1-0.98,1.87-2.13,2.83-3.23c0.98-1.09,1.82-2.31,2.72-3.49l0.66-0.89l0.61-0.93c0.4-0.62,0.8-1.24,1.2-1.85
				c0.76-1.23,1.45-2.49,2.11-3.71c0.59-1.25,1.22-2.43,1.67-3.61c0.51-1.16,0.88-2.29,1.24-3.33c0.31-1.05,0.6-2.02,0.79-2.88
				c0.2-0.87,0.33-1.62,0.42-2.25c0.09-0.61,0.15-1.12,0.16-1.42c0.02-0.3,0.02-0.5,0.02-0.5v-0.02c0-0.03,0.02-0.06,0.02-0.09
				c-0.08-0.29-0.16-0.58-0.2-0.87c-0.06-0.36-0.12-0.72-0.17-1.07c-0.05-0.35-0.04-0.7-0.05-1.05c-0.02-0.34,0-0.68,0.05-1.01
				c0.05-0.33,0.04-0.65,0.14-0.95c0.08-0.31,0.15-0.6,0.24-0.88c0.12-0.27,0.23-0.53,0.33-0.77c0.24-0.47,0.49-0.87,0.74-1.18
				c0.22-0.28,0.42-0.48,0.59-0.63c-0.32-1.43-0.54-2.81-0.68-4.05c-0.22-2.06-0.25-3.79-0.22-5.01c0.01-0.59,0.04-1.06,0.06-1.38
				v-0.04c0.03-0.34,0.04-0.52,0.04-0.52c0.07-0.76,0.73-1.32,1.49-1.26c0.75,0.07,1.31,0.73,1.25,1.49c0,0.02,0,0.04-0.01,0.06
				v0.05c0,0-0.02,0.15-0.06,0.44c-0.02,0.16-0.04,0.35-0.06,0.59c-0.02,0.2-0.04,0.44-0.06,0.7c-0.09,1.12-0.14,2.74-0.03,4.68
				c0.12,1.93,0.4,4.2,1.04,6.53c0.65,2.32,1.64,4.73,3.12,6.83c0.74,1.05,1.57,2.04,2.49,2.91c0.93,0.86,1.92,1.6,2.96,2.3
				c2.08,1.4,4.05,2.7,5.66,3.92c1.62,1.22,2.9,2.34,3.69,3.27C277.534,204.657,277.754,205.397,277.754,205.397z"/>
			<path d="M120.992,118.182c1.249,2.301,3.034,5.589,5.177,9.535c2.169,3.93,4.7,8.515,7.411,13.427
				c1.361,2.453,2.767,4.989,4.195,7.565c1.454,2.568,2.931,5.177,4.407,7.785c0.738,1.262,1.426,2.568,2.006,3.891
				c0.577,1.316,1.076,2.69,1.221,3.969l0.027,0.462l0.019,0.584c0.035,0.443,0.097,0.859,0.188,1.255
				c0.187,0.803,0.5,1.563,0.89,2.256c0.783,1.392,1.837,2.511,2.919,3.491c0.516,0.492,1.234,0.976,1.327,1.265
				c0.296,0.453,0.513,1.011,0.645,1.572c0.251,1.137,0.146,2.311-0.266,3.353c-0.39,1.052-1.072,1.977-1.873,2.748
				c-0.816,0.785-1.77,1.599-2.54,2.443c-1.591,1.659-2.872,3.421-3.657,5.153c-0.403,0.845-0.709,1.707-0.942,2.415
				c-0.14,0.39-0.277,0.686-0.432,0.974c-0.164,0.297-0.343,0.57-0.523,0.825c-0.746,1.007-1.52,1.67-2.043,2.111
				c-0.532,0.437-0.84,0.628-0.84,0.628c-0.099,0.061-0.13,0.192-0.068,0.291c0.057,0.092,0.177,0.123,0.273,0.079
				c0,0,0.354-0.163,0.96-0.548c0.607-0.381,1.471-1.002,2.387-2.024c0.223-0.261,0.45-0.545,0.666-0.865
				c0.22-0.331,0.43-0.708,0.587-1.049c0.341-0.761,0.663-1.489,1.091-2.268c0.839-1.54,2.09-3.086,3.667-4.601
				c0.788-0.774,1.643-1.448,2.592-2.317c0.96-0.875,1.842-1.982,2.387-3.332c0.553-1.344,0.705-2.906,0.383-4.414
				c-0.173-0.753-0.441-1.491-0.891-2.197c-0.091-0.167-0.289-0.393-0.441-0.578l-0.19-0.186l-0.047-0.045l-0.104-0.092l-0.097-0.08
				c-0.261-0.21-0.518-0.426-0.769-0.648c-1.002-0.887-1.932-1.874-2.577-3c-0.323-0.561-0.572-1.155-0.723-1.773
				c-0.076-0.315-0.121-0.624-0.152-0.911l-0.023-0.516l-0.042-0.639c-0.211-1.653-0.783-3.09-1.406-4.493
				c-0.631-1.4-1.354-2.739-2.139-4.052c-1.497-2.584-2.995-5.169-4.469-7.712c-1.492-2.54-2.96-5.04-4.381-7.459
				c-2.852-4.832-5.513-9.343-7.794-13.208c-2.308-3.85-4.232-7.059-5.578-9.305c-1.362-2.237-2.14-3.516-2.14-3.516
				c-0.036-0.058-0.112-0.077-0.17-0.041c-0.056,0.034-0.076,0.107-0.045,0.164C119.053,114.552,119.758,115.872,120.992,118.182z"
				/>
			<path d="M106.043,276.255c0.366-1.362,0.815-2.469,1.12-3.245c0.334-0.766,0.525-1.204,0.525-1.204
				c0.029-0.065-0.001-0.141-0.066-0.17c-0.055-0.024-0.119-0.006-0.154,0.039c0,0-0.3,0.389-0.727,1.125
				c-0.439,0.73-1,1.817-1.493,3.21c-0.257,0.693-0.457,1.477-0.595,2.327c-0.147,0.84-0.155,1.804,0.001,2.728
				c0.069,0.447,0.134,0.896,0.223,1.358c0.114,0.465,0.228,0.936,0.344,1.411c0.271,0.931,0.542,1.869,0.911,2.773
				c0.333,0.918,0.743,1.801,1.133,2.675c0.423,0.858,0.858,1.693,1.316,2.478c0.439,0.796,0.915,1.535,1.355,2.24
				c0.454,0.697,0.882,1.356,1.312,1.94c1.692,2.357,3.011,3.774,3.011,3.774c0.033,0.036,0.089,0.038,0.124,0.004
				c0.033-0.031,0.037-0.082,0.01-0.118c0,0-1.17-1.527-2.691-3.965c-0.377-0.611-0.788-1.27-1.2-1.982
				c-0.404-0.715-0.84-1.464-1.237-2.265c-0.424-0.788-0.789-1.637-1.2-2.478c-0.367-0.861-0.754-1.729-1.062-2.626
				c-0.345-0.882-0.592-1.803-0.836-2.69c-0.102-0.446-0.203-0.889-0.303-1.327c-0.083-0.449-0.132-0.911-0.207-1.353
				c-0.16-0.852-0.14-1.654-0.047-2.448C105.707,277.68,105.866,276.937,106.043,276.255z"/>
			<path d="M122.047,322.044c0,0-0.741-0.398-2.038-1.095c-0.66-0.326-1.398-0.835-2.273-1.363c-0.89-0.506-1.784-1.246-2.827-1.944
				c-0.978-0.788-2.069-1.604-3.101-2.605c-0.264-0.243-0.531-0.49-0.802-0.74c-0.254-0.267-0.511-0.537-0.771-0.81
				c-0.26-0.273-0.522-0.548-0.787-0.826c-0.248-0.293-0.498-0.589-0.751-0.888c-0.253-0.298-0.507-0.599-0.764-0.902
				c-0.237-0.319-0.475-0.639-0.715-0.962c-0.495-0.635-0.941-1.315-1.379-2.01c-0.896-1.375-1.656-2.863-2.366-4.369
				c-0.647-1.535-1.275-3.081-1.733-4.659c-0.495-1.566-0.841-3.148-1.127-4.687c-0.523-3.087-0.746-6.016-0.714-8.529
				c0.021-2.512,0.196-4.606,0.39-6.061c0.189-1.459,0.377-2.271,0.377-2.271c0.022-0.095-0.037-0.19-0.133-0.212
				c-0.092-0.021-0.186,0.038-0.211,0.128c0,0-0.231,0.825-0.489,2.285c-0.252,1.462-0.57,3.568-0.634,6.118
				c-0.048,1.274-0.03,2.657,0.047,4.117c0.073,1.461,0.256,2.996,0.516,4.573c0.281,1.572,0.624,3.192,1.118,4.798
				c0.453,1.619,1.089,3.209,1.778,4.771c0.742,1.538,1.536,3.054,2.467,4.455c0.455,0.707,0.919,1.399,1.432,2.045
				c0.249,0.328,0.496,0.654,0.742,0.978c0.265,0.308,0.529,0.613,0.79,0.916c0.509,0.618,1.059,1.18,1.611,1.717
				c0.272,0.272,0.541,0.54,0.807,0.806c0.282,0.248,0.561,0.493,0.836,0.734c1.077,0.993,2.206,1.796,3.218,2.57
				c1.071,0.692,2.018,1.379,2.936,1.859c0.907,0.497,1.67,0.976,2.35,1.276c1.333,0.645,2.095,1.013,2.095,1.013
				c0.062,0.03,0.137,0.004,0.167-0.058c0.029-0.06,0.005-0.133-0.053-0.164L122.047,322.044z"/>
			<path d="M64.754,243.95c-0.023-0.075-0.102-0.116-0.177-0.093c-0.072,0.022-0.113,0.096-0.096,0.168c0,0,0.162,0.667,0.059,1.886
				c-0.09,1.214-0.395,2.941-0.877,4.991c-0.949,4.106-2.56,9.507-3.947,15.004c-0.345,1.375-0.675,2.757-0.972,4.129
				c-0.141,0.691-0.281,1.377-0.419,2.055c-0.128,0.671-0.247,1.339-0.344,2.02c-0.409,2.688-0.532,5.209-0.583,7.367
				c-0.035,2.158,0.024,3.956,0.091,5.218c0.067,1.251,0.142,2.001,0.142,2.001l0.002,0.018c0.089,0.893,0.886,1.545,1.78,1.456
				s1.545-0.886,1.456-1.78c-0.003-0.033-0.008-0.07-0.014-0.103c0,0-0.107-0.648-0.249-1.856c-0.139-1.197-0.303-2.918-0.399-4.989
				c-0.08-2.068-0.113-4.493,0.116-7.055c0.051-0.633,0.122-1.295,0.204-1.968c0.089-0.663,0.18-1.335,0.271-2.012
				c0.199-1.359,0.432-2.74,0.681-4.121c1.003-5.525,2.252-11.041,2.928-15.238c0.345-2.097,0.538-3.868,0.546-5.121
				c0.023-1.256-0.198-1.971-0.198-1.971L64.754,243.95z"/>
			<path d="M103.019,220.571c0.792,0.037,1.564,0.171,2.309,0.307c0.371,0.083,0.736,0.165,1.093,0.245
				c0.349,0.105,0.773,0.188,1.137,0.239c1.508,0.201,2.899,0.012,4.085-0.323c2.39-0.689,3.936-1.938,4.897-2.792
				c0.507-0.413,0.815-0.81,1.056-1.043c0.231-0.244,0.351-0.369,0.351-0.369c0.103-0.108,0.098-0.279-0.01-0.382
				c-0.107-0.102-0.277-0.098-0.38,0.008l-0.017,0.017c0,0-0.117,0.12-0.343,0.354c-0.236,0.223-0.537,0.607-1.028,0.998
				c-0.92,0.829-2.461,1.955-4.708,2.51c-1.118,0.25-2.413,0.349-3.754,0.093c-0.345-0.073-0.641-0.14-1.002-0.272
				c-0.364-0.117-0.735-0.235-1.113-0.356c-0.768-0.213-1.571-0.426-2.436-0.546c-0.86-0.131-1.778-0.2-2.747-0.094
				c-0.962,0.097-2.001,0.36-2.936,0.947c-0.948,0.566-1.726,1.427-2.315,2.359c-0.582,0.939-0.99,1.951-1.353,2.94
				c-0.362,0.983-0.683,1.984-1.082,2.778c-0.299,0.678-0.985,1.439-1.619,1.885c-0.651,0.472-1.343,0.658-2.144,0.567
				c-0.803-0.078-1.701-0.459-2.565-1.003c-1.733-1.122-3.355-2.796-4.842-4.628c-1.476-1.855-2.889-3.874-4.182-6.028
				c-2.586-4.311-4.849-9.058-6.772-14.032c-0.953-2.491-1.811-5.044-2.558-7.642c-0.752-2.599-1.358-5.233-1.957-7.912
				c-1.245-5.325-2.622-10.626-4.281-15.763c-0.824-2.569-1.734-5.092-2.73-7.547c-1.043-2.436-2.092-4.838-3.289-7.124
				c-1.206-2.279-2.462-4.486-3.822-6.565c-1.336-2.086-2.818-4.06-4.193-5.908c-2.657-3.763-4.522-7.8-6.187-11.505
				c-1.634-3.733-2.956-7.237-4.07-10.362c-1.108-3.128-2.039-5.871-2.76-8.144c-1.45-4.545-2.163-7.178-2.163-7.178
				c-0.014-0.053-0.069-0.084-0.121-0.07c-0.051,0.014-0.082,0.067-0.07,0.119c0,0,0.616,2.661,1.9,7.265
				c1.289,4.6,3.235,11.158,6.324,18.778c1.574,3.793,3.408,7.883,6.107,11.834c1.396,1.934,2.781,3.833,4.073,5.913
				c1.307,2.06,2.511,4.247,3.665,6.504c2.335,4.504,4.359,9.36,6.164,14.391c1.798,5.034,3.306,10.271,4.483,15.584
				c1.124,5.32,2.368,10.705,4.062,15.835c1.647,5.154,3.644,10.126,6.089,14.725c1.231,2.293,2.546,4.516,4.096,6.546
				c0.972,1.276,2.022,2.492,3.204,3.591c-2.351-0.62-5.201-1.675-8.238-3.378c-4.102-2.264-8.494-5.663-12.65-9.875
				c-2.049-2.115-4.17-4.431-6.418-6.627c-2.24-2.218-4.571-4.415-6.97-6.538c-4.811-4.226-9.882-8.198-15.127-11.206
				c-2.637-1.576-5.379-2.458-7.641-3.941c-2.284-1.438-4.247-3.11-5.879-4.82c-1.643-1.704-2.972-3.434-4.054-5.028
				c-1.085-1.594-1.917-3.06-2.557-4.288c-1.277-2.463-1.78-3.961-1.78-3.961c-0.048-0.142-0.201-0.218-0.343-0.17
				c-0.14,0.047-0.217,0.198-0.172,0.339l0.002,0.007c0,0,0.495,1.546,1.752,4.061c0.631,1.255,1.453,2.754,2.531,4.391
				c1.076,1.636,2.403,3.417,4.056,5.184c1.643,1.773,3.629,3.52,5.964,5.037c2.319,1.565,5.135,2.529,7.612,4.074
				c5.096,3.026,10.062,7.033,14.764,11.293c2.346,2.141,4.626,4.355,6.813,6.589c2.21,2.227,4.229,4.503,6.307,6.714
				c4.177,4.365,8.64,7.938,12.883,10.366c4.23,2.46,8.201,3.724,11.033,4.257c0.949,0.191,1.759,0.297,2.431,0.369
				c0.555,0.206,1.137,0.371,1.764,0.444c1.47,0.184,3.085-0.304,4.188-1.171c1.11-0.891,1.87-1.845,2.416-3.123
				c0.45-1.161,0.651-2.191,0.914-3.154c0.496-1.911,1.118-3.569,2.351-4.513C99.725,220.659,101.456,220.461,103.019,220.571z"/>
			<path d="M208.903,366.465c0.252,0.176,0.535,0.361,0.762,0.53l0.761,0.566c0.946,0.742,1.908,1.579,2.8,2.451
				c1.788,1.758,3.485,3.648,5.077,5.611c0.079,0.101,0.225,0.119,0.326,0.04c0.093-0.073,0.113-0.206,0.055-0.305
				c-0.674-1.097-1.418-2.135-2.184-3.164c-0.762-1.033-1.596-2.01-2.456-2.971c-0.43-0.48-0.88-0.946-1.336-1.406
				c-0.457-0.456-0.938-0.903-1.452-1.33l-0.75-0.598c-0.277-0.219-0.521-0.39-0.784-0.586c-0.52-0.377-1.044-0.751-1.577-1.114
				c-1.077-0.719-2.14-1.436-3.391-2.012c-0.331-0.135-0.645-0.275-1.101-0.357c-0.147-0.01-0.231-0.039-0.432-0.018
				c-0.097,0.011-0.194,0.028-0.287,0.05c-0.128,0.045-0.274,0.127-0.39,0.219c-0.237,0.197-0.377,0.581-0.362,0.748
				c-0.023,0.254,0.021,0.349,0.047,0.496c0.137,0.48,0.322,0.785,0.509,1.081c0.186,0.301,0.38,0.572,0.58,0.838
				c0.68,0.913,1.431,1.726,2.185,2.531c-0.987-0.63-1.967-1.271-2.932-1.93c-2.163-1.491-4.307-3.034-6.233-4.768
				c-0.479-0.435-0.938-0.885-1.363-1.35c-0.413-0.453-0.825-0.991-1.008-1.431l-0.083-0.234l-0.014-0.041c0,0,0-0.002,0,0
				l-0.003-0.024l-0.011-0.098c-0.009-0.134-0.048-0.252-0.042-0.399c0.011-0.293,0.016-0.585,0.074-0.896
				c0.073-0.613,0.238-1.239,0.409-1.859c0.363-1.24,0.826-2.468,1.294-3.696c0.487-1.22,0.991-2.441,1.512-3.656
				c0.028-0.063-0.001-0.137-0.064-0.164c-0.057-0.025-0.123-0.003-0.156,0.047c-0.716,1.122-1.372,2.281-1.964,3.475
				c-0.604,1.189-1.143,2.414-1.575,3.697c-0.211,0.644-0.417,1.293-0.536,1.989c-0.076,0.339-0.089,0.709-0.106,1.077
				c-0.009,0.183,0.034,0.392,0.053,0.587l0.02,0.148l0.005,0.037c0.007,0.026-0.011-0.032,0.016,0.063l0.005,0.015l0.02,0.059
				l0.079,0.235c0.318,0.79,0.755,1.298,1.21,1.835c0.456,0.52,0.94,1.001,1.448,1.447c2.018,1.795,4.206,3.316,6.417,4.791
				c2.222,1.461,4.475,2.854,6.768,4.206l3.093,1.824l-2.481-2.606l-0.001-0.001l-2.444-2.908c-0.819-0.956-1.599-1.949-2.318-2.933
				c-0.151-0.209-0.29-0.421-0.418-0.63c1.049,0.47,2.12,1.106,3.154,1.758C207.858,365.765,208.382,366.112,208.903,366.465z"/>
			<path d="M221.494,354.074c0.019,0,0.333-0.011,0.863-0.073c0.529-0.062,1.275-0.174,2.153-0.369
				c0.878-0.194,1.888-0.47,2.942-0.84c0.529-0.182,1.063-0.39,1.607-0.622c0.556-0.229,1.065-0.485,1.602-0.736l0.762-0.343
				c0.263-0.092,0.524-0.183,0.784-0.274c0.528-0.155,1.058-0.276,1.58-0.352c1.044-0.15,2.044-0.125,2.889-0.014
				c0.846,0.109,1.539,0.298,2.012,0.456c0.478,0.16,0.726,0.281,0.726,0.281c0.082,0.04,0.182,0.011,0.229-0.069
				c0.049-0.084,0.02-0.191-0.063-0.24l-0.006-0.003c0,0-1.049-0.61-2.809-0.961c-0.876-0.174-1.929-0.272-3.056-0.186
				c-0.564,0.044-1.142,0.136-1.724,0.266c-0.288,0.08-0.577,0.16-0.868,0.24l-0.852,0.317c-0.534,0.208-1.083,0.438-1.601,0.61
				c-0.524,0.183-1.055,0.351-1.568,0.49c-1.028,0.286-2.003,0.484-2.841,0.611c-0.838,0.128-1.54,0.187-2.025,0.211
				c-0.486,0.024-0.755,0.015-0.735,0.015c0.019,0-0.25,0.01-0.735-0.015c-0.485-0.024-1.187-0.083-2.025-0.211
				c-0.838-0.128-1.813-0.326-2.841-0.611c-0.513-0.139-1.044-0.307-1.568-0.49c-0.518-0.173-1.067-0.403-1.601-0.61l-0.852-0.317
				c-0.291-0.081-0.581-0.161-0.868-0.24c-0.582-0.13-1.16-0.222-1.724-0.266c-1.128-0.086-2.18,0.012-3.056,0.186
				c-1.76,0.351-2.809,0.961-2.809,0.961l-0.006,0.003c-0.084,0.049-0.112,0.156-0.063,0.24c0.047,0.08,0.147,0.109,0.229,0.069
				c0,0,0.248-0.122,0.726-0.281c0.473-0.158,1.165-0.346,2.012-0.456c0.845-0.11,1.845-0.135,2.889,0.014
				c0.522,0.076,1.052,0.197,1.58,0.352c0.26,0.091,0.521,0.182,0.784,0.274l0.762,0.343c0.536,0.251,1.046,0.506,1.602,0.736
				c0.544,0.232,1.078,0.44,1.607,0.622c1.054,0.37,2.064,0.646,2.942,0.84c0.878,0.194,1.624,0.307,2.153,0.369
				C221.161,354.063,221.475,354.074,221.494,354.074z"/>
			<path d="M148.574,280.477c0,9.93-4.25,20.18-4.25,20.18s-4.25-12.12-4.25-20.18c0-6.82,4.25-17.9,4.25-17.9
				S148.574,273.407,148.574,280.477z"/>
			<path d="M176.138,311.575l-2.895,2.902l-0.001,0.001l-1.289,1.377c-0.408,0.482-0.911,0.868-1.388,1.284
				c-0.487,0.403-0.94,0.849-1.478,1.191l-1.56,1.094l-1.65,0.966c-0.542,0.339-1.124,0.604-1.698,0.886
				c-0.577,0.275-1.141,0.581-1.741,0.809l-1.779,0.733l-1.818,0.639c-0.602,0.225-1.228,0.38-1.842,0.573
				c-0.614,0.194-1.237,0.357-1.862,0.511c-0.623,0.162-1.248,0.321-1.88,0.449c-1.258,0.281-2.527,0.52-3.803,0.713
				c-1.274,0.2-2.558,0.358-3.843,0.451c-0.072,0.004-0.126,0.066-0.122,0.137c0.004,0.07,0.065,0.124,0.135,0.122
				c1.3-0.049,2.594-0.164,3.884-0.321c1.29-0.15,2.576-0.347,3.854-0.587c0.642-0.107,1.277-0.246,1.912-0.388
				c0.637-0.134,1.272-0.277,1.9-0.452c0.627-0.175,1.267-0.31,1.885-0.517l1.868-0.586l1.837-0.685
				c0.619-0.212,1.207-0.504,1.808-0.766c0.597-0.269,1.204-0.521,1.774-0.85l1.735-0.938l1.658-1.08
				c0.57-0.337,1.062-0.785,1.586-1.19c0.118-0.096,0.238-0.192,0.358-0.286l-11.44,24.521c-0.065,0.14-0.005,0.306,0.135,0.371
				c0.138,0.064,0.301,0.006,0.368-0.129l13.593-27.335L176.138,311.575z"/>
			<path d="M90.376,289.941c-0.092-0.038-0.197,0.004-0.238,0.093c0,0-0.227,0.491-0.624,1.351
				c-0.387,0.864-0.986,2.079-1.623,3.572c-0.319,0.747-0.665,1.556-1.031,2.412c-0.379,0.851-0.712,1.776-1.091,2.719
				c-0.379,0.943-0.754,1.925-1.103,2.935c-0.36,1.006-0.733,2.026-1.052,3.066c-0.336,1.034-0.67,2.069-0.95,3.104
				c-0.306,1.027-0.569,2.05-0.806,3.046c-0.262,0.989-0.433,1.967-0.635,2.885c-0.157,0.929-0.333,1.802-0.428,2.624
				c-0.237,1.634-0.313,3.022-0.325,4.008c-0.01,0.494,0.01,0.882,0.025,1.167c0.025,0.281,0.038,0.431,0.038,0.431
				c0.044,0.5,0.485,0.869,0.985,0.825c0.5-0.044,0.869-0.485,0.825-0.985c-0.002-0.027-0.006-0.054-0.011-0.081l-0.002-0.013
				c-0.005-0.029-0.078-0.436-0.107-1.366c-0.027-0.903-0.012-2.221,0.151-3.805c0.057-0.793,0.194-1.649,0.308-2.557
				c0.16-0.903,0.286-1.863,0.503-2.844c0.191-0.985,0.408-2,0.667-3.024c0.233-1.03,0.519-2.065,0.808-3.1
				c0.272-1.04,0.599-2.065,0.914-3.076c0.303-1.015,0.635-2.004,0.972-2.956c0.337-0.952,0.63-1.885,0.971-2.746
				c0.328-0.867,0.639-1.686,0.925-2.442c0.572-1.514,1.118-2.748,1.468-3.625c0.36-0.873,0.566-1.373,0.566-1.373l0.002-0.005
				C90.515,290.088,90.471,289.98,90.376,289.941z"/>
			<path d="M77.437,265.958c-0.153-0.059-0.325,0.013-0.391,0.161c0,0-0.222,0.497-0.611,1.367
				c-0.378,0.874-0.968,2.103-1.587,3.616c-0.644,1.503-1.37,3.267-2.106,5.177c-0.385,0.948-0.731,1.948-1.107,2.955
				c-0.381,1.005-0.724,2.043-1.079,3.077c-1.413,4.139-2.576,8.372-3.256,11.609c-0.344,1.618-0.585,2.981-0.717,3.951
				c-0.071,0.487-0.115,0.864-0.144,1.143c-0.025,0.269-0.039,0.413-0.039,0.413c-0.061,0.649,0.416,1.225,1.065,1.285
				c0.649,0.061,1.225-0.416,1.285-1.065c0.002-0.018,0.003-0.036,0.004-0.054l0.002-0.04c0,0,0.006-0.127,0.016-0.366
				c0.013-0.228,0.036-0.596,0.08-1.053c0.079-0.919,0.244-2.245,0.499-3.832c0.502-3.177,1.435-7.395,2.625-11.553
				c0.3-1.039,0.587-2.082,0.914-3.096c0.323-1.015,0.615-2.023,0.95-2.982c0.634-1.93,1.268-3.718,1.832-5.243
				c0.539-1.535,1.064-2.786,1.397-3.676c0.344-0.885,0.54-1.391,0.54-1.391l0.003-0.006
				C77.673,266.197,77.595,266.019,77.437,265.958z"/>
			<path d="M171.943,192.542c-0.095,0.139-0.146,0.213-0.146,0.213l-0.008,0.012c-0.078,0.113-0.049,0.268,0.064,0.346
				c0.109,0.075,0.258,0.05,0.338-0.053c0,0,0.057-0.074,0.164-0.214c0.108-0.139,0.267-0.342,0.448-0.616
				c0.37-0.542,0.852-1.353,1.285-2.395c0.432-1.041,0.812-2.311,1.01-3.716c0.108-0.7,0.131-1.46,0.151-2.167
				c0.011-0.708,0.076-1.426,0.139-2.142c0.316-2.867,1.053-5.674,1.741-7.722c0.344-1.025,0.667-1.865,0.904-2.444
				c0.239-0.585,0.384-0.893,0.384-0.893c0.204-0.434,0.017-0.952-0.417-1.156c-0.435-0.204-0.952-0.017-1.156,0.417
				c-0.006,0.013-0.012,0.027-0.018,0.041l-0.005,0.014c0,0-0.148,0.366-0.362,0.981c-0.216,0.622-0.506,1.511-0.806,2.591
				c-0.6,2.157-1.208,5.094-1.378,8.082c-0.027,0.748-0.054,1.495-0.027,2.232c0.017,0.737,0.033,1.4-0.033,2.066
				c-0.116,1.33-0.412,2.558-0.771,3.569c-0.36,1.013-0.777,1.811-1.103,2.346C172.181,192.203,172.039,192.404,171.943,192.542z"/>
			<path d="M166.819,184.832c0.126,0.743,0.23,1.459,0.312,2.166c0.164,1.405,0.21,2.723,0.102,3.839
				c-0.095,1.118-0.34,2.025-0.551,2.645c-0.106,0.31-0.199,0.551-0.271,0.712c-0.067,0.163-0.103,0.25-0.103,0.25l-0.004,0.01
				c-0.044,0.106,0.006,0.227,0.112,0.271c0.102,0.042,0.219-0.003,0.266-0.102c0,0,0.042-0.088,0.121-0.252
				c0.083-0.163,0.193-0.407,0.321-0.724c0.255-0.632,0.564-1.57,0.728-2.735c0.178-1.162,0.203-2.536,0.114-3.985
				c-0.043-0.722-0.111-1.478-0.197-2.225c-0.051-0.38-0.061-0.742-0.086-1.105c-0.037-0.363-0.028-0.73-0.006-1.096
				c0.007-0.366,0.029-0.731,0.091-1.093c0.049-0.362,0.088-0.723,0.179-1.075c0.14-0.709,0.348-1.393,0.574-2.044
				c0.229-0.652,0.496-1.265,0.764-1.84c0.279-0.571,0.562-1.099,0.843-1.578c0.565-0.954,1.104-1.707,1.493-2.215
				c0.193-0.255,0.356-0.45,0.459-0.573c0.109-0.126,0.167-0.193,0.167-0.193l0.016-0.019c0.317-0.367,0.276-0.921-0.091-1.238
				c-0.367-0.317-0.921-0.276-1.238,0.091c-0.01,0.011-0.021,0.025-0.03,0.037c0,0-0.063,0.081-0.18,0.233
				c-0.118,0.159-0.281,0.376-0.476,0.666c-0.393,0.576-0.925,1.412-1.472,2.465c-0.272,0.527-0.545,1.109-0.809,1.736
				c-0.254,0.632-0.504,1.305-0.712,2.019c-0.205,0.715-0.388,1.464-0.498,2.24c-0.076,0.384-0.1,0.78-0.131,1.175
				c-0.044,0.394-0.047,0.793-0.034,1.192C166.573,183.275,166.717,184.095,166.819,184.832z"/>
			<path d="M160.439,169.877c-0.172,0.521-0.406,1.029-0.527,1.569c-0.118,0.539-0.288,1.066-0.331,1.606
				c-0.057,0.536-0.167,1.057-0.154,1.569c-0.007,0.51-0.038,1.002-0.021,1.466c0.034,0.463,0.066,0.901,0.096,1.305
				c0.04,0.808,0.215,1.464,0.271,1.929c0.076,0.463,0.12,0.727,0.12,0.727c0.009,0.056,0.062,0.094,0.118,0.084
				c0.053-0.009,0.09-0.057,0.086-0.109l-0.001-0.009c0,0-0.022-0.265-0.061-0.729c-0.018-0.465-0.139-1.122-0.114-1.916
				c0.003-0.396,0.006-0.824,0.009-1.278c0.021-0.452,0.09-0.924,0.135-1.413c0.026-0.492,0.174-0.981,0.268-1.483
				c0.08-0.507,0.283-0.989,0.432-1.481c0.151-0.493,0.408-0.943,0.6-1.406c0.267-0.425,0.476-0.875,0.774-1.245
				c0.141-0.19,0.279-0.376,0.415-0.559c0.153-0.167,0.302-0.331,0.447-0.49c0.285-0.322,0.603-0.578,0.882-0.822
				c0.579-0.471,1.115-0.774,1.487-0.969c0.189-0.089,0.339-0.16,0.422-0.189c0.103-0.039,0.158-0.06,0.158-0.06l0.039-0.015
				c0.409-0.154,0.615-0.611,0.461-1.02c-0.154-0.409-0.611-0.615-1.02-0.461c-0.019,0.007-0.039,0.016-0.057,0.024
				c0,0-0.068,0.032-0.195,0.091c-0.148,0.068-0.322,0.169-0.546,0.298c-0.434,0.272-1.033,0.682-1.653,1.276
				c-0.299,0.305-0.635,0.628-0.929,1.017c-0.149,0.193-0.301,0.39-0.457,0.592c-0.135,0.216-0.273,0.436-0.414,0.66
				C160.885,168.877,160.689,169.39,160.439,169.877z"/>
			<path d="M152.707,159.1c0.098,0.018,0.193-0.043,0.217-0.139l0.007-0.027c0,0,0.04-0.162,0.111-0.445
				c0.035-0.141,0.077-0.312,0.125-0.508c0.039-0.199,0.157-0.397,0.245-0.627c0.089-0.23,0.197-0.473,0.365-0.698
				c0.148-0.237,0.302-0.486,0.526-0.692l0.315-0.332l0.375-0.281c0.236-0.21,0.546-0.323,0.819-0.484
				c0.3-0.113,0.594-0.245,0.905-0.314c0.308-0.079,0.613-0.145,0.917-0.173c0.602-0.082,1.176-0.071,1.662-0.037
				c0.487,0.036,0.888,0.105,1.154,0.166c0.142,0.033,0.127,0.032,0.182,0.03c0.073,0.032,0.112,0.05,0.112,0.05l0.126,0.056
				c0.251,0.112,0.545-0.001,0.657-0.252c0.112-0.251-0.001-0.545-0.252-0.657c-0.008-0.004-0.018-0.008-0.026-0.011
				c0,0-0.04-0.015-0.115-0.044c-0.101-0.036-0.341-0.109-0.493-0.127c-0.32-0.054-0.766-0.104-1.303-0.113
				c-0.536-0.006-1.163,0.018-1.825,0.145c-0.332,0.051-0.669,0.143-1.008,0.251c-0.34,0.098-0.668,0.263-0.995,0.411
				c-0.305,0.198-0.639,0.349-0.899,0.601l-0.404,0.344c-0.113,0.133-0.225,0.264-0.336,0.394c-0.235,0.248-0.393,0.534-0.542,0.804
				c-0.169,0.26-0.272,0.53-0.355,0.784c-0.081,0.253-0.192,0.474-0.223,0.687c-0.04,0.21-0.074,0.394-0.103,0.545
				c-0.056,0.301-0.088,0.473-0.088,0.473C152.538,158.982,152.605,159.08,152.707,159.1z"/>
			<path d="M332.364,279.937l-1.23-3.08c-0.43-1.02-0.92-2.02-1.38-3.03c-0.98-2-2.03-3.97-3.23-5.88c-0.6-0.94-1.26-1.86-1.89-2.79
				c-0.71-0.89-1.36-1.81-2.11-2.67c-0.76-0.85-1.48-1.73-2.32-2.52c-0.41-0.4-0.8-0.82-1.23-1.2l-1.3-1.13
				c-1.8-1.45-3.71-2.8-5.82-3.83c-2.09-1.05-4.31-1.9-6.63-2.37c-2.3-0.49-4.67-0.69-7.01-0.6c-2.35,0.08-4.67,0.52-6.89,1.15
				c-4.47,1.27-8.57,3.47-12.19,6.21c-0.92,0.68-1.78,1.41-2.64,2.16c-0.84,0.77-1.73,1.58-2.44,2.35l-0.56,0.59l-0.58,0.68
				l-1.09,1.3c-0.73,0.86-1.36,1.8-2.04,2.69c-0.61,0.94-1.24,1.87-1.82,2.83c-0.55,0.97-1.15,1.91-1.64,2.91
				c-0.52,0.99-1.03,1.97-1.48,2.99c-0.49,0.99-0.9,2.02-1.31,3.05c-0.8,2.06-1.55,4.14-2.16,6.26c-0.62,2.12-1.15,4.24-1.53,6.45
				l-0.18,1.09l1.11,0.11c1.61,0.16,3.17,0.74,4.68,1.54c1.5,0.8,2.96,1.78,4.4,2.81c2.88,2.07,5.81,4.25,8.98,6.15
				c3.16,1.9,6.6,3.5,10.26,4.45c1.83,0.49,3.71,0.78,5.59,0.96c0.94,0.09,1.89,0.13,2.83,0.14c0.94,0,1.97-0.03,2.86-0.09
				l1.34-0.11c0.55-0.05,0.98-0.14,1.47-0.2c0.96-0.12,1.89-0.37,2.83-0.59c1.86-0.5,3.66-1.21,5.38-2.07
				c1.71-0.86,3.31-1.91,4.84-3.04c1.52-1.13,2.94-2.38,4.26-3.71c2.67-2.65,4.91-5.65,6.9-8.78c1-1.56,1.9-3.18,2.73-4.83
				c0.83-1.66,1.59-3.3,2.26-5.12l0.24-0.58L332.364,279.937z M271.304,295.847c-1.53-0.97-3.12-1.93-4.83-2.73
				c-1.33-0.63-2.79-1.12-4.32-1.34c0.48-1.67,1-3.35,1.59-4.99c0.73-2,1.57-3.96,2.47-5.88c0.92-1.91,1.86-3.81,2.95-5.62
				c0.5-0.92,1.12-1.78,1.67-2.67c0.58-0.87,1.21-1.71,1.82-2.56c0.04-0.04,0.07-0.09,0.11-0.14c-0.04,0.1-0.08,0.18-0.12,0.28
				c-0.49,1.21-0.96,2.5-1.31,3.89c-0.19,0.69-0.33,1.41-0.47,2.14c-0.08,0.39-0.11,0.71-0.17,1.08c-0.05,0.37-0.09,0.74-0.14,1.11
				c-0.16,1.49-0.25,3-0.22,4.52c0.04,3.04,0.54,6.08,1.47,8.78c0.87,2.59,2.08,4.85,3.37,6.65
				C273.894,297.537,272.614,296.687,271.304,295.847z M323.994,282.557c0.02,1.01-0.13,2-0.2,2.96c-0.06,0.96-0.28,1.87-0.43,2.74
				c-0.08,0.43-0.14,0.86-0.24,1.27c-0.11,0.4-0.22,0.78-0.32,1.16c-0.08,0.27-0.15,0.52-0.22,0.78c-1.48,2.02-3.1,3.92-4.84,5.68
				c-1.21,1.21-2.48,2.35-3.84,3.37c-1.36,1.01-2.77,1.95-4.27,2.7s-3.03,1.41-4.63,1.87c-0.81,0.21-1.61,0.45-2.43,0.57
				c-0.4,0.06-0.85,0.15-1.2,0.19l-1.34,0.14c-0.89,0.09-1.67,0.12-2.53,0.14c-0.85,0.01-1.7,0-2.55-0.07
				c-1.69-0.12-3.38-0.34-5.04-0.75c-3.31-0.8-6.52-2.08-9.57-3.78c-0.57-0.31-1.12-0.64-1.67-0.97c-0.66-0.76-1.38-1.67-2.1-2.78
				c-1.16-1.8-2.31-4.04-3.06-6.6s-1.16-5.41-1.17-8.26c-0.01-1.43,0.08-2.86,0.25-4.26l0.14-1.03c0.06-0.34,0.11-0.73,0.18-1.03
				c0.14-0.67,0.27-1.33,0.46-1.97c0.69-2.57,1.67-4.9,2.56-6.87c0.47-1.06,0.92-2,1.34-2.83c0.61-0.57,1.19-1.08,1.79-1.61
				c0.8-0.66,1.6-1.31,2.44-1.9c3.34-2.41,7.05-4.28,10.96-5.28c3.89-1.04,7.95-1.17,11.81-0.33c1.93,0.41,3.78,1.13,5.57,1.99
				c1.8,0.86,3.46,2.02,5.05,3.26l1.17,0.96c0.39,0.33,0.75,0.7,1.12,1.04c0.77,0.68,1.44,1.46,2.14,2.21s1.32,1.58,1.99,2.37
				c0.03,0.04,0.06,0.08,0.08,0.11c0.09,0.24,0.18,0.48,0.27,0.73c0.28,0.72,0.52,1.52,0.77,2.36c0.26,0.85,0.47,1.75,0.7,2.69
				c0.16,0.94,0.41,1.91,0.51,2.92c0.06,0.5,0.13,1,0.19,1.51s0.07,1.02,0.11,1.54C324.034,280.517,324.014,281.547,323.994,282.557
				z M326.964,284.617c-0.72,1.28-1.48,2.53-2.27,3.76c0.17-0.86,0.41-1.75,0.48-2.69c0.11-1,0.29-2.02,0.29-3.08
				c0.05-1.05,0.1-2.12,0.03-3.19c-0.02-0.53-0.02-1.07-0.06-1.6c-0.06-0.53-0.11-1.05-0.16-1.58c-0.08-1.05-0.31-2.06-0.46-3.06
				c-0.04-0.21-0.09-0.41-0.13-0.61c0.05,0.08,0.11,0.16,0.16,0.24c0.52,0.91,1.09,1.8,1.59,2.73c0.48,0.94,1,1.86,1.46,2.81
				l1.09,2.24C328.374,281.927,327.684,283.297,326.964,284.617z"/>
			<path d="M255.367,273.373c0.267,0.071,0.54-0.087,0.611-0.354l0.01-0.038c0,0,0.379-1.424,0.961-3.912
				c0.148-0.621,0.311-1.308,0.49-2.056c0.229-0.733,0.477-1.525,0.742-2.372c0.262-0.845,0.54-1.745,0.834-2.693
				c0.27-0.956,0.746-1.89,1.136-2.901c0.206-0.501,0.417-1.012,0.631-1.534c0.215-0.52,0.393-1.069,0.684-1.575
				c0.532-1.034,1.083-2.103,1.649-3.201c0.258-0.563,0.599-1.086,0.945-1.615c0.34-0.532,0.685-1.07,1.033-1.614
				c0.365-0.531,0.661-1.123,1.092-1.621c0.408-0.515,0.821-1.034,1.236-1.558c0.419-0.521,0.815-1.07,1.26-1.582
				c0.475-0.484,0.953-0.971,1.434-1.462c0.488-0.483,0.948-1.005,1.467-1.465c0.538-0.439,1.079-0.88,1.622-1.322
				c1.038-0.951,2.238-1.699,3.419-2.489l0.887-0.594l0.946-0.497l1.898-0.995c0.623-0.356,1.314-0.561,1.969-0.85
				c0.667-0.258,1.318-0.564,1.997-0.785c0.686-0.203,1.371-0.406,2.054-0.608l1.024-0.304l1.044-0.208
				c0.697-0.134,1.391-0.268,2.082-0.401c0.693-0.123,1.395-0.156,2.087-0.238c1.39-0.191,2.753-0.179,4.101-0.205
				c0.668-0.038,1.357,0.027,2.032,0.08c0.667,0.052,1.328,0.104,1.981,0.155c1.289,0.203,2.558,0.363,3.764,0.677
				c2.429,0.546,4.661,1.335,6.661,2.197c4.012,1.714,7.105,3.71,9.182,5.209c2.086,1.498,3.164,2.515,3.164,2.515
				s-0.234-0.286-0.71-0.789c-0.48-0.499-1.18-1.243-2.168-2.084c-0.974-0.856-2.204-1.851-3.715-2.853
				c-1.492-1.03-3.268-2.068-5.302-3.006c-2.017-0.975-4.326-1.779-6.824-2.394c-1.243-0.341-2.555-0.529-3.889-0.757
				c-0.671-0.063-1.349-0.126-2.033-0.19c-0.677-0.056-1.35-0.148-2.065-0.141c-1.414-0.031-2.862-0.094-4.301,0.048
				c-0.721,0.058-1.454,0.067-2.18,0.167c-0.725,0.111-1.455,0.223-2.187,0.335l-1.102,0.169l-1.087,0.265
				c-0.727,0.178-1.456,0.357-2.187,0.535c-0.725,0.199-1.426,0.484-2.143,0.723c-0.705,0.271-1.448,0.457-2.125,0.8l-2.054,0.98
				l-1.025,0.494l-0.968,0.595c-0.246,0.152-0.492,0.301-0.738,0.452c0.506-0.61,1.029-1.225,1.591-1.838
				c0.401-0.45,0.797-0.85,1.216-1.277c0.464-0.433,0.892-0.842,1.386-1.325c0.961-0.929,1.882-2.024,2.485-3.396
				c0.171-0.329,0.281-0.694,0.366-1.073c0.119-0.366,0.146-0.757,0.158-1.149c0.042-0.783-0.146-1.549-0.39-2.248
				c-0.557-1.379-1.44-2.42-2.267-3.346c-0.839-0.924-1.657-1.723-2.333-2.546c-0.667-0.824-1.276-1.664-1.813-2.452
				c-1.08-1.58-1.909-2.959-2.496-3.917c-0.578-0.963-0.909-1.514-0.909-1.514l-0.008-0.013c-0.133-0.22-0.415-0.305-0.649-0.189
				c-0.248,0.122-0.349,0.422-0.227,0.67c0,0,0.288,0.583,0.793,1.604c0.519,1.013,1.28,2.446,2.283,4.134
				c0.509,0.841,1.06,1.754,1.766,2.675c0.701,0.92,1.529,1.792,2.284,2.691c0.751,0.896,1.46,1.848,1.817,2.857
				c0.344,1.009,0.26,2.026-0.192,3.019c-0.446,0.993-1.215,1.926-2.089,2.741c-0.42,0.401-0.909,0.858-1.361,1.269
				c-0.462,0.454-0.936,0.925-1.346,1.375c-1.683,1.82-3.13,3.581-4.307,5.142c-0.893,1.196-1.604,2.283-2.141,3.175
				c-0.502,0.503-1.002,1.004-1.497,1.501c-0.48,0.54-0.909,1.117-1.36,1.668c-0.442,0.559-0.88,1.112-1.313,1.661
				c-0.449,0.539-0.756,1.164-1.134,1.733c-0.36,0.581-0.716,1.155-1.068,1.722c-0.355,0.566-0.711,1.121-0.968,1.718
				c-0.556,1.171-1.096,2.31-1.619,3.412c-0.52,1.101-0.839,2.238-1.225,3.295c-0.343,1.072-0.775,2.066-0.997,3.066
				c-0.245,0.992-0.478,1.933-0.696,2.818c-0.216,0.884-0.433,1.707-0.577,2.479c-0.111,0.778-0.213,1.493-0.305,2.138
				c-0.379,2.577-0.548,4.048-0.548,4.048C254.971,273.075,255.124,273.308,255.367,273.373z"/>
			<path d="M300.611,386.007c-1.089-6.392-3.335-12.433-5.278-16.8c-1.949-4.376-3.603-7.112-3.603-7.112
				c-0.073-0.12-0.23-0.168-0.356-0.102c-0.132,0.069-0.184,0.231-0.115,0.364c0,0,1.457,2.808,3.097,7.248
				c1.635,4.427,3.443,10.511,4.083,16.706c0.179,1.544,0.251,3.093,0.28,4.61c0.009,0.759-0.023,1.509-0.033,2.25
				c-0.059,0.737-0.089,1.467-0.166,2.178c-0.296,2.848-0.94,5.423-1.733,7.511c-0.211,0.516-0.414,1.01-0.606,1.48
				c-0.228,0.451-0.444,0.879-0.647,1.282c-0.401,0.805-0.86,1.443-1.177,2.001c-0.755,1.036-1.187,1.628-1.187,1.628l-0.101,0.138
				c-0.023,0.032-0.046,0.065-0.068,0.1c-0.569,0.898-0.302,2.088,0.596,2.657c0.899,0.569,2.088,0.302,2.657-0.596
				c0,0,0.457-0.721,1.256-1.983c0.332-0.668,0.805-1.443,1.208-2.396c0.201-0.475,0.415-0.981,0.641-1.514
				c0.184-0.546,0.377-1.121,0.578-1.72c0.741-2.412,1.258-5.306,1.375-8.391c0.033-0.771,0.016-1.554,0.025-2.344
				c-0.039-0.789-0.058-1.587-0.12-2.387C301.083,389.215,300.901,387.599,300.611,386.007z"/>
			<path d="M254.71,220.226c0.584-2.027,0.883-3.756,1.082-4.964c0.186-1.209,0.241-1.912,0.241-1.912
				c0.008-0.105-0.065-0.203-0.17-0.222c-0.113-0.02-0.221,0.055-0.241,0.168c0,0-0.122,0.677-0.391,1.859
				c-0.263,1.18-0.709,2.852-1.355,4.812c-0.328,0.978-0.724,2.022-1.196,3.097c-0.482,1.065-1.07,2.169-1.728,3.219
				c-0.715,1.091-1.525,2.073-2.421,3.116c-0.886,1.025-1.828,2.042-2.771,3.06c-1.864,2.06-3.77,4.095-5.376,6.22
				c-0.82,1.05-1.453,2.222-1.915,3.374c-0.463,1.137-0.813,2.234-1.078,3.257c-0.55,2.043-0.784,3.784-0.954,4.996
				c-0.154,1.216-0.191,1.92-0.191,1.92c-0.006,0.127,0.084,0.242,0.213,0.262c0.138,0.021,0.266-0.073,0.288-0.21
				c0,0,0.106-0.68,0.339-1.866c0.229-1.186,0.617-2.873,1.213-4.842c0.295-0.985,0.675-2.032,1.155-3.09
				c0.472-1.046,1.082-2.088,1.868-3.094c1.559-2.023,3.491-4.027,5.367-6.079c0.931-1.036,1.864-2.074,2.752-3.133
				c0.874-1.043,1.761-2.161,2.458-3.264C253.318,224.594,254.109,222.247,254.71,220.226z"/>
			<path d="M190.927,226.91c0.697,1.102,1.584,2.22,2.458,3.264c0.888,1.059,1.821,2.097,2.752,3.133
				c1.877,2.052,3.808,4.056,5.367,6.079c0.786,1.007,1.396,2.048,1.868,3.094c0.479,1.059,0.859,2.105,1.155,3.09
				c0.596,1.969,0.984,3.656,1.213,4.842c0.233,1.186,0.339,1.866,0.339,1.866c0.02,0.126,0.133,0.22,0.262,0.213
				c0.139-0.007,0.246-0.126,0.238-0.265c0,0-0.037-0.704-0.191-1.92c-0.171-1.212-0.405-2.953-0.954-4.996
				c-0.265-1.023-0.615-2.121-1.078-3.257c-0.463-1.152-1.096-2.324-1.916-3.374c-1.606-2.125-3.512-4.16-5.376-6.22
				c-0.943-1.018-1.884-2.035-2.771-3.06c-0.896-1.043-1.707-2.025-2.421-3.116c-0.659-1.051-1.247-2.154-1.728-3.219
				c-0.472-1.076-0.868-2.119-1.196-3.097c-0.646-1.959-1.093-3.631-1.355-4.812c-0.27-1.181-0.391-1.859-0.391-1.859
				c-0.02-0.103-0.116-0.18-0.222-0.17c-0.114,0.01-0.199,0.111-0.189,0.225c0,0,0.054,0.703,0.241,1.912
				c0.2,1.207,0.499,2.936,1.082,4.964C188.714,222.247,189.505,224.594,190.927,226.91z"/>
			<path d="M290.138,179.254c0.545,1.35,1.428,2.457,2.387,3.332c0.949,0.869,1.805,1.543,2.592,2.317
				c1.577,1.515,2.828,3.061,3.667,4.601c0.427,0.779,0.75,1.507,1.091,2.268c0.158,0.341,0.367,0.719,0.587,1.049
				c0.216,0.319,0.443,0.604,0.666,0.865c0.917,1.022,1.78,1.643,2.387,2.024c0.606,0.384,0.96,0.548,0.96,0.548
				c0.096,0.044,0.216,0.013,0.273-0.079c0.061-0.099,0.031-0.23-0.068-0.291c0,0-0.308-0.191-0.84-0.628
				c-0.523-0.44-1.297-1.104-2.043-2.111c-0.18-0.255-0.359-0.528-0.523-0.825c-0.155-0.288-0.292-0.584-0.432-0.974
				c-0.233-0.708-0.539-1.57-0.942-2.415c-0.785-1.732-2.066-3.493-3.657-5.153c-0.771-0.844-1.724-1.658-2.54-2.443
				c-0.801-0.77-1.483-1.695-1.873-2.748c-0.413-1.042-0.517-2.216-0.266-3.353c0.132-0.561,0.349-1.119,0.645-1.572
				c0.093-0.29,0.811-0.774,1.327-1.265c1.082-0.98,2.136-2.099,2.919-3.491c0.39-0.693,0.703-1.453,0.89-2.256
				c0.092-0.396,0.153-0.812,0.188-1.255l0.019-0.584l0.027-0.462c0.145-1.278,0.644-2.653,1.221-3.969
				c0.579-1.324,1.268-2.63,2.006-3.891c1.477-2.609,2.954-5.217,4.407-7.785c1.429-2.576,2.835-5.111,4.195-7.565
				c2.711-4.912,5.242-9.497,7.411-13.427c2.142-3.945,3.927-7.233,5.177-9.535c1.234-2.31,1.939-3.63,1.939-3.63
				c0.031-0.058,0.011-0.13-0.045-0.164c-0.059-0.036-0.135-0.017-0.17,0.041c0,0-0.778,1.278-2.14,3.516
				c-1.346,2.246-3.27,5.455-5.578,9.305c-2.281,3.866-4.943,8.376-7.794,13.208c-1.421,2.419-2.889,4.919-4.381,7.459
				c-1.474,2.544-2.971,5.128-4.469,7.712c-0.785,1.313-1.509,2.651-2.139,4.052c-0.622,1.403-1.195,2.84-1.406,4.493l-0.042,0.639
				l-0.023,0.516c-0.031,0.287-0.076,0.596-0.152,0.911c-0.151,0.618-0.4,1.212-0.723,1.773c-0.645,1.126-1.576,2.114-2.577,3
				c-0.25,0.223-0.508,0.438-0.769,0.648l-0.097,0.08l-0.104,0.092l-0.047,0.045l-0.19,0.186c-0.152,0.184-0.35,0.411-0.441,0.578
				c-0.451,0.706-0.719,1.445-0.891,2.197C289.433,176.348,289.585,177.91,290.138,179.254z"/>
			<path d="M337.123,282.266c-0.1,0.438-0.201,0.88-0.303,1.327c-0.244,0.888-0.492,1.808-0.836,2.69
				c-0.308,0.897-0.695,1.766-1.062,2.626c-0.411,0.842-0.776,1.69-1.2,2.478c-0.397,0.802-0.833,1.55-1.237,2.265
				c-0.412,0.711-0.823,1.37-1.2,1.982c-1.521,2.438-2.691,3.965-2.691,3.965c-0.027,0.036-0.023,0.087,0.01,0.118
				c0.036,0.033,0.091,0.031,0.124-0.004c0,0,1.319-1.417,3.011-3.774c0.43-0.584,0.859-1.243,1.312-1.94
				c0.44-0.705,0.916-1.444,1.355-2.24c0.458-0.785,0.893-1.62,1.316-2.478c0.39-0.874,0.8-1.757,1.133-2.675
				c0.369-0.904,0.64-1.842,0.911-2.773c0.116-0.475,0.231-0.946,0.344-1.411c0.09-0.462,0.155-0.911,0.224-1.358
				c0.156-0.924,0.149-1.888,0.001-2.728c-0.138-0.85-0.337-1.634-0.595-2.327c-0.493-1.393-1.054-2.479-1.493-3.21
				c-0.426-0.736-0.726-1.125-0.726-1.125c-0.035-0.045-0.099-0.064-0.154-0.039c-0.065,0.029-0.095,0.105-0.066,0.17
				c0,0,0.191,0.438,0.525,1.204c0.305,0.776,0.753,1.883,1.12,3.245c0.177,0.682,0.336,1.425,0.432,2.21
				c0.093,0.794,0.113,1.595-0.047,2.448C337.255,281.356,337.206,281.817,337.123,282.266z"/>
			<path d="M343.155,279.525c-0.258-1.461-0.489-2.285-0.489-2.285c-0.026-0.09-0.119-0.149-0.211-0.128
				c-0.095,0.022-0.155,0.117-0.133,0.212c0,0,0.188,0.813,0.377,2.271c0.194,1.455,0.368,3.549,0.39,6.061
				c0.031,2.512-0.191,5.442-0.714,8.529c-0.286,1.538-0.632,3.121-1.127,4.687c-0.459,1.578-1.086,3.124-1.733,4.659
				c-0.71,1.506-1.47,2.994-2.366,4.369c-0.438,0.694-0.884,1.375-1.379,2.01c-0.24,0.323-0.478,0.644-0.715,0.962
				c-0.257,0.303-0.511,0.604-0.764,0.902c-0.253,0.299-0.503,0.595-0.751,0.888c-0.265,0.278-0.528,0.554-0.787,0.826
				c-0.26,0.273-0.517,0.543-0.771,0.81c-0.271,0.25-0.538,0.496-0.802,0.74c-1.032,1.001-2.123,1.817-3.101,2.605
				c-1.043,0.698-1.937,1.437-2.827,1.944c-0.875,0.529-1.612,1.038-2.273,1.363c-1.297,0.697-2.038,1.095-2.038,1.095l-0.007,0.004
				c-0.058,0.031-0.082,0.104-0.053,0.164c0.03,0.062,0.105,0.088,0.167,0.058c0,0,0.762-0.368,2.095-1.013
				c0.68-0.3,1.443-0.78,2.35-1.276c0.918-0.48,1.865-1.167,2.936-1.859c1.012-0.774,2.141-1.577,3.218-2.57
				c0.275-0.241,0.554-0.486,0.836-0.734c0.266-0.266,0.535-0.534,0.807-0.806c0.552-0.536,1.102-1.098,1.611-1.717
				c0.261-0.303,0.525-0.608,0.79-0.916c0.245-0.324,0.493-0.65,0.742-0.978c0.512-0.646,0.977-1.338,1.432-2.045
				c0.931-1.401,1.725-2.917,2.467-4.455c0.689-1.562,1.325-3.152,1.778-4.771c0.494-1.606,0.837-3.226,1.118-4.798
				c0.26-1.576,0.443-3.111,0.517-4.573c0.077-1.461,0.095-2.843,0.047-4.117C343.725,283.093,343.407,280.987,343.155,279.525z"/>
			<path d="M385.006,274.108c-0.097-0.68-0.216-1.349-0.344-2.02c-0.138-0.678-0.278-1.364-0.419-2.055
				c-0.297-1.372-0.627-2.754-0.972-4.129c-1.387-5.497-2.999-10.897-3.947-15.004c-0.482-2.05-0.787-3.777-0.877-4.991
				c-0.103-1.219,0.059-1.886,0.059-1.886c0.017-0.072-0.024-0.146-0.096-0.168c-0.075-0.023-0.154,0.019-0.177,0.093l-0.002,0.006
				c0,0-0.221,0.715-0.198,1.971c0.008,1.253,0.201,3.024,0.546,5.121c0.676,4.197,1.924,9.713,2.928,15.238
				c0.25,1.381,0.482,2.762,0.681,4.121c0.091,0.677,0.181,1.348,0.271,2.012c0.082,0.673,0.153,1.335,0.204,1.968
				c0.229,2.562,0.196,4.987,0.116,7.055c-0.096,2.071-0.26,3.793-0.399,4.989c-0.142,1.207-0.249,1.856-0.249,1.856
				c-0.005,0.032-0.01,0.07-0.014,0.103c-0.089,0.893,0.563,1.69,1.456,1.78c0.893,0.089,1.69-0.562,1.78-1.456l0.002-0.018
				c0,0,0.075-0.75,0.142-2.001c0.067-1.261,0.126-3.059,0.091-5.218C385.538,279.317,385.415,276.796,385.006,274.108z"/>
			<path d="M432.081,170.479c-0.142-0.048-0.295,0.029-0.343,0.17c0,0-0.503,1.498-1.78,3.961c-0.64,1.228-1.472,2.694-2.557,4.288
				c-1.082,1.594-2.411,3.324-4.054,5.028c-1.632,1.711-3.594,3.383-5.878,4.82c-2.262,1.483-5.004,2.366-7.641,3.941
				c-5.245,3.008-10.316,6.98-15.127,11.206c-2.399,2.123-4.731,4.32-6.97,6.538c-2.248,2.197-4.369,4.512-6.418,6.627
				c-4.156,4.213-8.548,7.612-12.65,9.875c-3.037,1.704-5.886,2.759-8.238,3.379c1.182-1.099,2.232-2.314,3.204-3.591
				c1.55-2.03,2.865-4.253,4.096-6.546c2.445-4.599,4.442-9.571,6.089-14.725c1.694-5.13,2.938-10.515,4.062-15.835
				c1.176-5.313,2.685-10.55,4.483-15.584c1.804-5.031,3.828-9.887,6.164-14.391c1.154-2.258,2.358-4.444,3.665-6.504
				c1.293-2.08,2.677-3.979,4.073-5.913c2.699-3.951,4.533-8.041,6.107-11.834c3.089-7.62,5.035-14.177,6.324-18.778
				c1.284-4.604,1.9-7.265,1.9-7.265c0.012-0.052-0.019-0.105-0.07-0.119c-0.053-0.014-0.107,0.017-0.121,0.07
				c0,0-0.712,2.633-2.163,7.178c-0.721,2.273-1.652,5.016-2.76,8.144c-1.115,3.125-2.436,6.63-4.07,10.362
				c-1.665,3.706-3.53,7.742-6.187,11.505c-1.375,1.848-2.857,3.823-4.193,5.908c-1.36,2.079-2.617,4.286-3.822,6.565
				c-1.197,2.286-2.246,4.688-3.289,7.124c-0.996,2.455-1.906,4.978-2.73,7.547c-1.659,5.136-3.036,10.437-4.281,15.763
				c-0.599,2.679-1.205,5.313-1.957,7.912c-0.747,2.598-1.605,5.151-2.558,7.642c-1.923,4.974-4.186,9.721-6.772,14.032
				c-1.293,2.154-2.706,4.174-4.182,6.028c-1.487,1.832-3.109,3.505-4.842,4.628c-0.865,0.544-1.762,0.925-2.565,1.003
				c-0.801,0.091-1.492-0.095-2.144-0.567c-0.634-0.446-1.32-1.207-1.619-1.885c-0.399-0.794-0.72-1.795-1.082-2.778
				c-0.363-0.988-0.771-2.001-1.353-2.94c-0.589-0.933-1.366-1.793-2.315-2.359c-0.936-0.587-1.974-0.85-2.936-0.947
				c-0.969-0.106-1.887-0.037-2.747,0.094c-0.865,0.12-1.668,0.333-2.436,0.546c-0.378,0.121-0.749,0.24-1.113,0.356
				c-0.361,0.132-0.657,0.2-1.002,0.272c-1.341,0.256-2.635,0.157-3.754-0.093c-2.246-0.555-3.787-1.68-4.708-2.51
				c-0.491-0.391-0.792-0.775-1.028-0.998c-0.226-0.233-0.343-0.354-0.343-0.354l-0.017-0.017c-0.103-0.106-0.272-0.11-0.38-0.008
				c-0.108,0.103-0.113,0.274-0.01,0.382c0,0,0.119,0.126,0.351,0.369c0.242,0.233,0.549,0.63,1.056,1.043
				c0.962,0.853,2.507,2.102,4.898,2.792c1.186,0.335,2.577,0.524,4.085,0.323c0.363-0.051,0.788-0.134,1.137-0.239
				c0.358-0.08,0.722-0.162,1.093-0.245c0.745-0.136,1.517-0.269,2.309-0.307c1.564-0.111,3.295,0.088,4.501,1.071
				c1.232,0.944,1.854,2.602,2.351,4.513c0.263,0.964,0.464,1.994,0.914,3.154c0.546,1.278,1.307,2.232,2.416,3.123
				c1.103,0.866,2.718,1.354,4.188,1.171c0.628-0.073,1.209-0.238,1.764-0.444c0.672-0.072,1.482-0.178,2.431-0.369
				c2.831-0.533,6.803-1.797,11.033-4.257c4.243-2.428,8.706-6.001,12.883-10.366c2.078-2.212,4.097-4.487,6.307-6.714
				c2.188-2.234,4.468-4.448,6.813-6.589c4.701-4.26,9.668-8.267,14.764-11.293c2.477-1.545,5.293-2.509,7.612-4.074
				c2.335-1.518,4.322-3.265,5.964-5.037c1.653-1.766,2.98-3.548,4.056-5.184c1.079-1.636,1.901-3.135,2.531-4.391
				c1.257-2.515,1.752-4.061,1.752-4.061l0.002-0.007C432.297,170.677,432.221,170.526,432.081,170.479z"/>
			<path d="M269.627,423.555c-0.017-0.004-0.169-0.011-0.536-0.07c-0.363-0.058-0.898-0.171-1.579-0.358
				c-1.369-0.343-3.282-1.057-5.508-2.088c-1.116-0.511-2.286-1.147-3.515-1.835c-1.215-0.712-2.486-1.486-3.76-2.348
				c-1.268-0.878-2.578-1.786-3.909-2.708c-0.657-0.471-1.366-0.894-2.059-1.341c-0.691-0.453-1.402-0.875-2.12-1.284
				c-0.711-0.422-1.43-0.832-2.164-1.208c-0.727-0.389-1.451-0.775-2.192-1.116c-1.459-0.725-2.924-1.386-4.373-1.95
				c-0.72-0.293-1.436-0.563-2.147-0.799c-0.704-0.256-1.404-0.477-2.09-0.676c-1.366-0.419-2.682-0.733-3.901-1.006
				c-1.22-0.269-2.352-0.463-3.36-0.602c-1.008-0.141-1.892-0.234-2.622-0.286c-0.729-0.066-1.305-0.097-1.697-0.111
				c-0.273-0.013-0.451-0.021-0.538-0.025c-0.006,0-0.011-0.004-0.017-0.004c-0.015,0-0.032,0-0.047,0.001
				c-0.015-0.001-0.032-0.001-0.047-0.001c-0.006,0-0.011,0.003-0.017,0.004c-0.087,0.004-0.265,0.012-0.538,0.025
				c-0.393,0.014-0.968,0.045-1.697,0.111c-0.73,0.052-1.614,0.145-2.622,0.286c-1.008,0.138-2.14,0.333-3.36,0.602
				c-1.219,0.272-2.535,0.586-3.901,1.006c-0.686,0.2-1.385,0.42-2.089,0.676c-0.711,0.236-1.427,0.506-2.147,0.799
				c-1.449,0.564-2.914,1.225-4.373,1.95c-0.74,0.341-1.465,0.727-2.192,1.116c-0.734,0.376-1.452,0.786-2.164,1.208
				c-0.718,0.41-1.429,0.832-2.12,1.284c-0.693,0.447-1.402,0.87-2.059,1.341c-1.331,0.922-2.641,1.83-3.909,2.708
				c-1.274,0.862-2.545,1.635-3.76,2.348c-1.229,0.689-2.399,1.324-3.515,1.835c-2.226,1.031-4.139,1.745-5.508,2.088
				c-0.68,0.188-1.216,0.301-1.578,0.358c-0.368,0.059-0.519,0.067-0.536,0.07c-0.424,0.074-0.709,0.477-0.635,0.902
				s0.477,0.709,0.902,0.635c-0.018,0.003,0.238-0.056,0.62-0.181c0.384-0.134,0.944-0.311,1.627-0.59
				c0.689-0.265,1.496-0.644,2.423-1.059c0.918-0.434,1.946-0.935,3.031-1.546c1.093-0.594,2.26-1.261,3.475-1.998
				c1.222-0.725,2.472-1.55,3.77-2.394c1.277-0.868,2.596-1.766,3.937-2.678c0.665-0.468,1.364-0.875,2.053-1.312
				c0.685-0.441,1.393-0.852,2.108-1.253c0.708-0.412,1.423-0.812,2.152-1.177c0.722-0.379,1.443-0.755,2.177-1.086
				c0.729-0.342,1.456-0.674,2.191-0.962c0.728-0.303,1.45-0.596,2.175-0.846c0.717-0.269,1.429-0.515,2.134-0.727
				c0.699-0.232,1.392-0.429,2.07-0.606c1.351-0.372,2.646-0.654,3.849-0.854c1.202-0.207,2.312-0.344,3.297-0.433
				c0.984-0.09,1.845-0.144,2.553-0.156c0.709-0.02,1.265-0.014,1.644-0.004c0.309,0.005,0.493,0.008,0.553,0.009
				c0.002,0,0.003,0.001,0.004,0.001l0.023,0l0.023,0c0.002,0,0.003-0.001,0.004-0.001c0.06-0.001,0.245-0.004,0.553-0.009
				c0.379-0.01,0.936-0.016,1.644,0.004c0.709,0.012,1.569,0.066,2.553,0.156c0.985,0.089,2.094,0.226,3.297,0.433
				c1.204,0.2,2.499,0.482,3.849,0.854c0.678,0.177,1.371,0.374,2.07,0.606c0.706,0.212,1.417,0.458,2.134,0.727
				c0.725,0.25,1.446,0.542,2.175,0.846c0.735,0.288,1.462,0.62,2.191,0.962c0.735,0.331,1.455,0.707,2.177,1.086
				c0.729,0.365,1.444,0.765,2.152,1.177c0.715,0.4,1.423,0.812,2.108,1.253c0.689,0.436,1.388,0.844,2.053,1.312
				c1.341,0.912,2.66,1.809,3.937,2.678c1.299,0.843,2.548,1.668,3.77,2.394c1.215,0.738,2.382,1.404,3.475,1.998
				c1.084,0.61,2.112,1.112,3.031,1.546c0.927,0.415,1.733,0.794,2.423,1.059c0.683,0.279,1.243,0.456,1.627,0.59
				c0.382,0.125,0.637,0.184,0.62,0.181c0.424,0.074,0.828-0.211,0.902-0.635C270.336,424.033,270.052,423.629,269.627,423.555z"/>
			<path d="M250.212,358.237l0.02-0.148c0.019-0.195,0.062-0.403,0.053-0.587c-0.016-0.368-0.029-0.738-0.106-1.077
				c-0.119-0.697-0.325-1.345-0.536-1.989c-0.432-1.283-0.971-2.507-1.575-3.697c-0.592-1.194-1.247-2.352-1.964-3.475
				c-0.033-0.05-0.099-0.072-0.156-0.047c-0.063,0.028-0.092,0.102-0.064,0.164c0.521,1.215,1.025,2.436,1.512,3.656
				c0.468,1.228,0.93,2.456,1.294,3.696c0.171,0.62,0.336,1.247,0.409,1.859c0.058,0.311,0.063,0.603,0.074,0.896
				c0.006,0.147-0.033,0.265-0.042,0.399l-0.011,0.098l-0.003,0.024c0.001-0.002,0,0,0,0l-0.014,0.041l-0.083,0.234
				c-0.183,0.44-0.595,0.978-1.008,1.431c-0.425,0.465-0.883,0.915-1.363,1.35c-1.925,1.735-4.069,3.277-6.233,4.768
				c-0.965,0.659-1.945,1.299-2.932,1.93c0.754-0.805,1.505-1.618,2.185-2.531c0.199-0.266,0.394-0.537,0.58-0.838
				c0.186-0.296,0.371-0.601,0.509-1.081c0.026-0.146,0.07-0.242,0.047-0.496c0.014-0.167-0.125-0.551-0.363-0.748
				c-0.116-0.092-0.261-0.174-0.39-0.219c-0.094-0.023-0.191-0.04-0.287-0.05c-0.201-0.021-0.284,0.008-0.432,0.018
				c-0.456,0.082-0.77,0.222-1.101,0.357c-1.252,0.576-2.315,1.293-3.391,2.012c-0.533,0.363-1.057,0.736-1.577,1.114
				c-0.263,0.196-0.508,0.367-0.784,0.586l-0.75,0.598c-0.514,0.427-0.995,0.874-1.452,1.33c-0.456,0.461-0.905,0.926-1.336,1.406
				c-0.86,0.961-1.694,1.939-2.456,2.971c-0.766,1.03-1.511,2.068-2.184,3.164c-0.058,0.099-0.038,0.232,0.055,0.305
				c0.101,0.079,0.247,0.061,0.326-0.04c1.592-1.963,3.289-3.853,5.077-5.611c0.892-0.872,1.854-1.708,2.8-2.451l0.761-0.566
				c0.227-0.169,0.51-0.355,0.762-0.53c0.521-0.352,1.045-0.7,1.575-1.035c1.033-0.652,2.105-1.288,3.154-1.758
				c-0.128,0.209-0.267,0.421-0.418,0.63c-0.719,0.983-1.499,1.976-2.318,2.933l-2.444,2.908l-0.001,0.001l-2.481,2.606l3.093-1.824
				c2.293-1.353,4.546-2.745,6.768-4.206c2.211-1.476,4.399-2.996,6.417-4.791c0.507-0.445,0.991-0.926,1.448-1.447
				c0.454-0.537,0.892-1.045,1.21-1.835l0.079-0.235l0.02-0.059l0.005-0.015c0.027-0.095,0.009-0.037,0.016-0.063L250.212,358.237z"
				/>
			<path d="M297.363,326.412c0.07,0.002,0.13-0.052,0.135-0.122c0.004-0.072-0.05-0.133-0.122-0.137
				c-1.285-0.093-2.569-0.25-3.843-0.451c-1.276-0.193-2.545-0.432-3.803-0.713c-0.632-0.128-1.256-0.287-1.88-0.449
				c-0.625-0.154-1.248-0.317-1.862-0.511c-0.614-0.194-1.239-0.348-1.842-0.573l-1.818-0.639l-1.779-0.733
				c-0.6-0.228-1.164-0.534-1.741-0.809c-0.574-0.282-1.156-0.547-1.698-0.886l-1.65-0.966l-1.56-1.094
				c-0.538-0.342-0.991-0.788-1.478-1.191c-0.476-0.415-0.98-0.801-1.388-1.284l-1.289-1.377l-0.001-0.001l-2.895-2.902l1.799,3.619
				l13.593,27.335c0.067,0.135,0.231,0.193,0.368,0.129c0.14-0.065,0.2-0.232,0.135-0.371l-11.44-24.521
				c0.12,0.095,0.239,0.19,0.357,0.286c0.524,0.405,1.016,0.853,1.586,1.19l1.658,1.08l1.735,0.938
				c0.57,0.329,1.176,0.581,1.774,0.85c0.6,0.262,1.188,0.554,1.808,0.766l1.837,0.685l1.868,0.586
				c0.619,0.207,1.258,0.343,1.885,0.517c0.628,0.175,1.263,0.318,1.9,0.452c0.635,0.142,1.27,0.281,1.912,0.388
				c1.278,0.24,2.564,0.437,3.854,0.587C294.769,326.248,296.062,326.362,297.363,326.412z"/>
			<path d="M361.765,315.124c-0.201-0.918-0.373-1.896-0.635-2.885c-0.237-0.996-0.5-2.018-0.806-3.046
				c-0.28-1.035-0.613-2.07-0.949-3.104c-0.319-1.039-0.692-2.06-1.052-3.066c-0.349-1.01-0.724-1.992-1.103-2.935
				c-0.379-0.943-0.712-1.868-1.091-2.719c-0.366-0.856-0.712-1.665-1.031-2.412c-0.638-1.494-1.236-2.709-1.623-3.572
				c-0.397-0.859-0.624-1.351-0.624-1.351c-0.041-0.089-0.146-0.131-0.238-0.093c-0.094,0.039-0.139,0.147-0.1,0.241l0.002,0.005
				c0,0,0.206,0.499,0.565,1.373c0.35,0.877,0.896,2.112,1.468,3.625c0.287,0.756,0.597,1.576,0.925,2.442
				c0.341,0.861,0.634,1.794,0.971,2.746c0.337,0.952,0.669,1.941,0.972,2.956c0.315,1.011,0.642,2.036,0.914,3.076
				c0.289,1.035,0.576,2.07,0.808,3.1c0.259,1.024,0.475,2.039,0.667,3.024c0.217,0.981,0.343,1.941,0.502,2.844
				c0.114,0.908,0.251,1.764,0.308,2.557c0.163,1.584,0.177,2.902,0.151,3.805c-0.03,0.93-0.102,1.338-0.107,1.366l-0.002,0.013
				c-0.005,0.026-0.008,0.053-0.011,0.081c-0.044,0.5,0.325,0.941,0.825,0.985c0.5,0.044,0.941-0.325,0.985-0.825
				c0,0,0.013-0.15,0.038-0.431c0.015-0.285,0.035-0.673,0.025-1.167c-0.012-0.986-0.088-2.375-0.325-4.008
				C362.098,316.927,361.922,316.053,361.765,315.124z"/>
			<path d="M376.406,297.87c-0.133-0.971-0.373-2.334-0.717-3.951c-0.68-3.237-1.843-7.47-3.256-11.609
				c-0.355-1.034-0.698-2.071-1.079-3.077c-0.376-1.007-0.722-2.007-1.107-2.955c-0.735-1.909-1.462-3.674-2.106-5.177
				c-0.619-1.513-1.208-2.742-1.587-3.616c-0.389-0.87-0.611-1.367-0.611-1.367c-0.066-0.148-0.238-0.22-0.391-0.161
				c-0.158,0.061-0.237,0.239-0.175,0.397l0.002,0.006c0,0,0.196,0.506,0.54,1.391c0.333,0.889,0.858,2.14,1.397,3.676
				c0.565,1.526,1.198,3.314,1.832,5.243c0.335,0.959,0.628,1.967,0.95,2.982c0.327,1.014,0.615,2.057,0.914,3.096
				c1.191,4.158,2.123,8.376,2.625,11.553c0.255,1.587,0.421,2.912,0.499,3.832c0.044,0.457,0.067,0.825,0.08,1.053
				c0.01,0.239,0.016,0.366,0.016,0.366l0.002,0.04c0.001,0.018,0.002,0.036,0.004,0.054c0.061,0.649,0.636,1.126,1.285,1.065
				c0.649-0.061,1.126-0.636,1.065-1.285c0,0-0.013-0.144-0.039-0.413C376.521,298.734,376.477,298.357,376.406,297.87z"/>
			<path d="M264.954,171.642c0.237,0.579,0.561,1.419,0.904,2.444c0.688,2.048,1.425,4.855,1.741,7.722
				c0.063,0.717,0.128,1.434,0.139,2.142c0.021,0.707,0.043,1.467,0.151,2.167c0.198,1.405,0.578,2.674,1.01,3.716
				c0.433,1.042,0.915,1.854,1.285,2.395c0.181,0.274,0.34,0.478,0.448,0.616c0.107,0.139,0.164,0.214,0.164,0.214
				c0.08,0.104,0.229,0.128,0.338,0.053c0.113-0.078,0.142-0.232,0.064-0.346l-0.008-0.012c0,0-0.051-0.074-0.146-0.213
				c-0.096-0.138-0.238-0.34-0.396-0.611c-0.326-0.535-0.743-1.333-1.103-2.346c-0.359-1.011-0.655-2.239-0.771-3.569
				c-0.067-0.666-0.05-1.33-0.033-2.066c0.027-0.737-0.001-1.484-0.027-2.232c-0.17-2.988-0.779-5.925-1.378-8.082
				c-0.299-1.08-0.589-1.969-0.806-2.591c-0.214-0.616-0.362-0.981-0.362-0.981l-0.005-0.014c-0.006-0.014-0.011-0.027-0.018-0.041
				c-0.204-0.434-0.722-0.621-1.156-0.417c-0.435,0.204-0.621,0.722-0.417,1.156C264.571,170.749,264.715,171.057,264.954,171.642z"
				/>
			<path d="M270.739,171.888c0,0,0.058,0.067,0.167,0.193c0.103,0.124,0.266,0.318,0.459,0.573c0.39,0.509,0.928,1.261,1.493,2.215
				c0.281,0.478,0.565,1.007,0.843,1.578c0.268,0.575,0.535,1.188,0.764,1.84c0.225,0.652,0.434,1.336,0.574,2.044
				c0.091,0.352,0.131,0.713,0.179,1.075c0.062,0.362,0.084,0.727,0.091,1.093c0.022,0.367,0.032,0.733-0.006,1.096
				c-0.025,0.363-0.035,0.725-0.086,1.105c-0.085,0.747-0.154,1.503-0.197,2.225c-0.089,1.449-0.063,2.823,0.114,3.985
				c0.164,1.165,0.473,2.103,0.728,2.735c0.128,0.317,0.238,0.561,0.321,0.724c0.079,0.164,0.121,0.252,0.121,0.252
				c0.048,0.098,0.164,0.144,0.266,0.102c0.106-0.044,0.156-0.165,0.112-0.271l-0.004-0.01c0,0-0.036-0.087-0.103-0.25
				c-0.071-0.161-0.164-0.402-0.271-0.712c-0.211-0.62-0.456-1.527-0.551-2.645c-0.109-1.115-0.062-2.433,0.102-3.839
				c0.081-0.706,0.185-1.422,0.312-2.166c0.102-0.737,0.245-1.557,0.225-2.346c0.014-0.399,0.01-0.798-0.034-1.192
				c-0.031-0.395-0.055-0.792-0.131-1.175c-0.11-0.776-0.294-1.525-0.498-2.24c-0.209-0.714-0.458-1.388-0.712-2.019
				c-0.264-0.627-0.537-1.209-0.809-1.736c-0.547-1.053-1.079-1.889-1.472-2.465c-0.195-0.29-0.358-0.508-0.476-0.666
				c-0.118-0.152-0.18-0.233-0.18-0.233c-0.009-0.012-0.02-0.026-0.03-0.037c-0.317-0.367-0.871-0.408-1.238-0.091
				s-0.408,0.871-0.091,1.238L270.739,171.888z"/>
			<path d="M277,165.961l0.039,0.015c0,0,0.055,0.021,0.158,0.06c0.083,0.029,0.233,0.1,0.422,0.189
				c0.372,0.195,0.908,0.498,1.487,0.969c0.279,0.244,0.597,0.5,0.882,0.822c0.145,0.159,0.295,0.323,0.447,0.49
				c0.135,0.182,0.274,0.369,0.415,0.559c0.298,0.37,0.507,0.82,0.774,1.245c0.192,0.463,0.449,0.913,0.6,1.406
				c0.148,0.493,0.352,0.974,0.432,1.481c0.094,0.502,0.241,0.991,0.268,1.483c0.045,0.488,0.114,0.961,0.135,1.413
				c0.003,0.453,0.006,0.882,0.009,1.278c0.025,0.795-0.096,1.452-0.114,1.916c-0.039,0.464-0.061,0.729-0.061,0.729l-0.001,0.009
				c-0.004,0.053,0.033,0.101,0.086,0.109c0.056,0.009,0.109-0.029,0.118-0.084c0,0,0.044-0.264,0.12-0.727
				c0.056-0.465,0.231-1.121,0.271-1.929c0.03-0.404,0.062-0.842,0.096-1.305c0.016-0.464-0.015-0.956-0.022-1.466
				c0.012-0.512-0.097-1.033-0.154-1.569c-0.043-0.54-0.213-1.067-0.331-1.606c-0.121-0.54-0.354-1.048-0.527-1.569
				c-0.25-0.487-0.445-1-0.74-1.438c-0.14-0.224-0.278-0.444-0.414-0.66c-0.156-0.202-0.309-0.4-0.457-0.592
				c-0.294-0.389-0.629-0.712-0.929-1.017c-0.62-0.593-1.219-1.004-1.653-1.276c-0.224-0.129-0.398-0.23-0.546-0.298
				c-0.127-0.06-0.195-0.091-0.195-0.091c-0.018-0.008-0.038-0.017-0.057-0.024c-0.409-0.154-0.866,0.052-1.02,0.461
				C276.384,165.35,276.591,165.807,277,165.961z"/>
			<path d="M282.12,154.645l0.126-0.056c0,0,0.039-0.017,0.112-0.05c0.055,0.002,0.039,0.003,0.182-0.03
				c0.266-0.061,0.667-0.13,1.154-0.166c0.486-0.033,1.06-0.044,1.662,0.037c0.304,0.028,0.609,0.095,0.917,0.173
				c0.311,0.069,0.604,0.201,0.905,0.314c0.273,0.161,0.584,0.274,0.819,0.484l0.375,0.281l0.315,0.332
				c0.223,0.206,0.378,0.456,0.526,0.692c0.168,0.225,0.276,0.467,0.365,0.698c0.087,0.23,0.205,0.428,0.245,0.627
				c0.048,0.196,0.091,0.367,0.125,0.508c0.07,0.283,0.11,0.445,0.11,0.445l0.007,0.027c0.024,0.096,0.119,0.157,0.217,0.139
				c0.102-0.019,0.169-0.117,0.15-0.219c0,0-0.032-0.172-0.088-0.473c-0.029-0.151-0.063-0.334-0.103-0.545
				c-0.031-0.213-0.142-0.434-0.223-0.687c-0.082-0.254-0.186-0.524-0.355-0.784c-0.149-0.27-0.307-0.557-0.542-0.804
				c-0.11-0.129-0.222-0.261-0.336-0.394l-0.404-0.344c-0.26-0.252-0.594-0.403-0.899-0.601c-0.327-0.148-0.656-0.313-0.995-0.411
				c-0.339-0.108-0.675-0.2-1.008-0.251c-0.662-0.128-1.289-0.152-1.825-0.145c-0.537,0.009-0.983,0.059-1.303,0.113
				c-0.152,0.018-0.392,0.091-0.493,0.127c-0.075,0.029-0.115,0.044-0.115,0.044c-0.008,0.003-0.018,0.007-0.026,0.011
				c-0.251,0.112-0.364,0.406-0.252,0.657C281.575,154.644,281.869,154.756,282.12,154.645z"/>
		</g>
	</g>
</g>
<g id="fixed_eye">
	<path d="M302.427,280.477c0,9.93-4.25,20.18-4.25,20.18s-4.25-12.12-4.25-20.18c0-6.82,4.25-17.9,4.25-17.9
		S302.427,273.407,302.427,280.477z"/>
	<g>
	</g>
	<g>
	</g>
	<g>
	</g>
	<g>
	</g>
	<g>
	</g>
	<g>
	</g>
</g>
</svg>
