<?xml version="1.0" encoding="utf-8"?>
<!-- Generator: Adobe Illustrator 19.1.0, SVG Export Plug-In . SVG Version: 6.00 Build 0)  -->
<svg version="1.1" xmlns="http://www.w3.org/2000/svg" xmlns:xlink="http://www.w3.org/1999/xlink" x="0px" y="0px"
	 viewBox="0 0 257.647 297.003" style="enable-background:new 0 0 257.647 297.003;" xml:space="preserve">
<style type="text/css">
	.st0{display:none;}
	.st1{fill:none;stroke:#000000;stroke-width:5;stroke-linecap:round;stroke-miterlimit:10;}
	.st2{fill:none;stroke:#000000;stroke-width:8;stroke-linecap:round;stroke-miterlimit:10;}
	.st3{fill:#FFFFFF;}
	.st4{fill:none;stroke:#000000;stroke-width:13.1839;stroke-linecap:round;stroke-miterlimit:10;}
	.st5{fill:none;stroke:#000000;stroke-width:7;stroke-linecap:round;stroke-miterlimit:10;}
	.st6{fill:#FFFFFF;stroke:#000000;stroke-width:13.1839;stroke-linecap:round;stroke-miterlimit:10;}
	.st7{fill:#D19D9D;}
</style>
<g id="Layer_1" class="st0">
</g>
<g id="bg">
</g>
<g id="ghosts">
	<g>
		<path d="M33.832,123.533c-3.26,0-6.092-2.416-6.528-5.734c-0.256-1.948-0.538-3.946-0.826-5.977
			c-1.164-8.223-2.367-16.725-2.363-25.218l0.021-7.093l-0.017-0.361c-0.085-4.527,0.782-12.556,3.503-20.28
			c1.21-3.435,4.979-5.235,8.407-4.028c3.435,1.21,5.237,4.974,4.028,8.407c-2.243,6.368-2.788,12.654-2.759,15.496l0.022,0.32
			l-0.023,7.562c-0.004,7.545,1.134,15.577,2.233,23.346c0.294,2.076,0.583,4.117,0.845,6.108c0.474,3.609-2.068,6.92-5.678,7.395
			C34.407,123.514,34.117,123.533,33.832,123.533z"/>
		<path d="M256.58,182.372c4.13-11.773-4.744-22.516-9.277-27.019c-3.721-4.772-14.383-13.546-49.766-33.527
			c-15.649-8.837-27.721-20.911-35.881-35.885c-5.977-10.969-7.604-19.646-7.724-20.319l-0.055-0.395l-0.065-0.262
			c-6.815-32.838-24.756-48.698-38.606-56.221C100.778,0.908,87.708,0.219,84.43,0.176C82.232,0.059,80.045,0,77.924,0
			C54.113,0,35.079,7.272,21.35,21.615C-0.269,44.201-0.094,76.27,0.017,80.263c0.016,49.452,13.112,93.752,38.937,131.76
			l-3.609,1.548l-8.563,3.673l3.673,8.563l20.547,47.903l3.673,8.563l8.563-3.673l27.485-11.789
			c6.909,5.432,14.168,10.646,21.812,15.6c13.045,8.455,34.306,14.591,50.556,14.591c9.136,0,21.268-2.079,27.183-11.982
			c2.311-3.869,4.164-9.801,1.936-17.778c0.693,0.236,1.338,0.458,1.908,0.655c3.581,1.236,6.169,2.128,8.562,2.483
			c3.482,0.516,6.714,0.777,9.607,0.777c16.376,0,21.94-8.495,23.799-13.559c2.561-6.978,0.94-15.023-4.327-22.876
			c4.865-0.544,8.871-1.844,12.211-3.957c4.792-3.033,7.92-7.663,8.808-13.039c1.382-8.366-2.953-16.614-9.517-22.959
			c0.96-0.334,1.872-0.705,2.739-1.116C252.564,190.544,255.376,185.802,256.58,182.372z M59.565,270.038l-20.547-47.903
			l32.146-13.789c12.946,7.521,27.813,11.143,41.96,8.146c15.146-3.208,27.813-16.427,25.76-32.59
			c-0.189-1.488-0.52-2.875-0.955-4.193l0.252-0.108l20.547,47.903L59.565,270.038z M230.864,183.715
			c-15.769,0.969-10.911,12.188-6.204,14.218c13.184,5.687,24.041,22.232,4.653,23.783c-5.025,0.402-29.082,1.034-16.286,11.891
			c11.454,9.718,18.027,24.368-0.74,24.368c-2.2,0-4.746-0.201-7.675-0.635c-3.523-0.522-16.501-6.372-24.372-6.373
			c-5.968-0.001-9,3.36-2.757,14.953c7.021,13.039-1.433,17.899-14.391,17.899c-13.761,0-32.601-5.481-43.385-12.471
			c-4.624-2.997-9.73-6.483-15.121-10.483l57.816-24.799l8.563-3.673l-3.673-8.563l-20.547-47.903l-3.673-8.563l-8.563,3.673
			l-1.174,0.504c-2.166-2.691-4.755-5.144-7.432-7.641c-7.296-6.806-14.592-13.613-21.888-20.419
			c-5.642-5.264-14.147,3.204-8.485,8.485c5.594,5.218,11.187,10.436,16.781,15.654c4.557,4.251,11.867,9.023,14.099,15.063
			c4.604,12.456-8.764,21.713-19.535,22.685c-23.623,2.132-50.032-17.331-57.723-39.217c-2.543-7.238-14.141-4.123-11.571,3.19
			c4.331,12.325,13.226,24.012,24.426,32.794l-10.686,4.584c-21.441-30.752-38.142-72.033-38.118-126.667
			c0,0-2.926-66.869,64.723-66.869c1.976,0,4.01,0.057,6.108,0.174c0,0,0.016,0,0.046,0c1.625,0,45.661,0.497,56.825,54.287
			c0,0,6.204,40.844,50.15,65.661c43.946,24.817,46.014,30.504,46.014,30.504S257.244,182.093,230.864,183.715z"/>
	</g>
</g>
<g id="Layer_3">
</g>
</svg>
