<?xml version="1.0" encoding="utf-8"?>
<!-- Generator: Adobe Illustrator 19.1.0, SVG Export Plug-In . SVG Version: 6.00 Build 0)  -->
<svg version="1.1" xmlns="http://www.w3.org/2000/svg" xmlns:xlink="http://www.w3.org/1999/xlink" x="0px" y="0px"
	 viewBox="0 0 453 454" style="enable-background:new 0 0 453 454;" xml:space="preserve">
<style type="text/css">
	.st0{display:none;}
	.st1{fill:#B1DDC8;}
	.st2{fill:#EFD078;}
	.st3{fill:#A3CEB7;}
	.st4{fill:#96BCA0;}
	.st5{fill:none;}
	.st6{fill:#353535;}
	.st7{fill:#AD9B6C;}
	.st8{display:inline;fill:none;stroke:#0BAA4B;stroke-miterlimit:10;}
</style>
<g id="Layer_1" class="st0">
	
		<image style="display:inline;overflow:visible;" width="1205" height="1311" xlink:href="sphinx_mirrortemplate.png"  transform="matrix(0.4852 0 0 0.4852 -71.3097 -155.6046)">
	</image>
</g>
<g id="outline">
	<g id="art_1_">
		<g>
			<path class="st1" d="M308.4,285.8c0,8.1-4.2,20.2-4.2,20.2s-4.2-10.2-4.2-20.2c0-7.1,4.2-17.9,4.2-17.9S308.4,279,308.4,285.8z"
				/>
			<path class="st1" d="M149.8,267.9c0,0-4.2,11.1-4.2,17.9c0,8.1,4.2,20.2,4.2,20.2s4.2-10.2,4.2-20.2
				C154.1,278.8,149.8,267.9,149.8,267.9z M149.8,267.9c0,0-4.2,11.1-4.2,17.9c0,8.1,4.2,20.2,4.2,20.2s4.2-10.2,4.2-20.2
				C154.1,278.8,149.8,267.9,149.8,267.9z M149.8,267.9c0,0-4.2,11.1-4.2,17.9c0,8.1,4.2,20.2,4.2,20.2s4.2-10.2,4.2-20.2
				C154.1,278.8,149.8,267.9,149.8,267.9z M149.8,267.9c0,0-4.2,11.1-4.2,17.9c0,8.1,4.2,20.2,4.2,20.2s4.2-10.2,4.2-20.2
				C154.1,278.8,149.8,267.9,149.8,267.9z M149.8,267.9c0,0-4.2,11.1-4.2,17.9c0,8.1,4.2,20.2,4.2,20.2s4.2-10.2,4.2-20.2
				C154.1,278.8,149.8,267.9,149.8,267.9z M149.8,267.9c0,0-4.2,11.1-4.2,17.9c0,8.1,4.2,20.2,4.2,20.2s4.2-10.2,4.2-20.2
				C154.1,278.8,149.8,267.9,149.8,267.9z M149.8,267.9c0,0-4.2,11.1-4.2,17.9c0,8.1,4.2,20.2,4.2,20.2s4.2-10.2,4.2-20.2
				C154.1,278.8,149.8,267.9,149.8,267.9z M149.8,267.9c0,0-4.2,11.1-4.2,17.9c0,8.1,4.2,20.2,4.2,20.2s4.2-10.2,4.2-20.2
				C154.1,278.8,149.8,267.9,149.8,267.9z M149.8,267.9c0,0-4.2,11.1-4.2,17.9c0,8.1,4.2,20.2,4.2,20.2s4.2-10.2,4.2-20.2
				C154.1,278.8,149.8,267.9,149.8,267.9z M149.8,267.9c0,0-4.2,11.1-4.2,17.9c0,8.1,4.2,20.2,4.2,20.2s4.2-10.2,4.2-20.2
				C154.1,278.8,149.8,267.9,149.8,267.9z M149.8,267.9c0,0-4.2,11.1-4.2,17.9c0,8.1,4.2,20.2,4.2,20.2s4.2-10.2,4.2-20.2
				C154.1,278.8,149.8,267.9,149.8,267.9z M149.8,267.9c0,0-4.2,11.1-4.2,17.9c0,8.1,4.2,20.2,4.2,20.2s4.2-10.2,4.2-20.2
				C154.1,278.8,149.8,267.9,149.8,267.9z M149.8,267.9c0,0-4.2,11.1-4.2,17.9c0,8.1,4.2,20.2,4.2,20.2s4.2-10.2,4.2-20.2
				C154.1,278.8,149.8,267.9,149.8,267.9z M149.8,267.9c0,0-4.2,11.1-4.2,17.9c0,8.1,4.2,20.2,4.2,20.2s4.2-10.2,4.2-20.2
				C154.1,278.8,149.8,267.9,149.8,267.9z M149.8,267.9c0,0-4.2,11.1-4.2,17.9c0,8.1,4.2,20.2,4.2,20.2s4.2-10.2,4.2-20.2
				C154.1,278.8,149.8,267.9,149.8,267.9z M149.8,267.9c0,0-4.2,11.1-4.2,17.9c0,8.1,4.2,20.2,4.2,20.2s4.2-10.2,4.2-20.2
				C154.1,278.8,149.8,267.9,149.8,267.9z M149.8,267.9c0,0-4.2,11.1-4.2,17.9c0,8.1,4.2,20.2,4.2,20.2s4.2-10.2,4.2-20.2
				C154.1,278.8,149.8,267.9,149.8,267.9z M149.8,267.9c0,0-4.2,11.1-4.2,17.9c0,8.1,4.2,20.2,4.2,20.2s4.2-10.2,4.2-20.2
				C154.1,278.8,149.8,267.9,149.8,267.9z M149.8,267.9c0,0-4.2,11.1-4.2,17.9c0,8.1,4.2,20.2,4.2,20.2s4.2-10.2,4.2-20.2
				C154.1,278.8,149.8,267.9,149.8,267.9z M149.8,267.9c0,0-4.2,11.1-4.2,17.9c0,8.1,4.2,20.2,4.2,20.2s4.2-10.2,4.2-20.2
				C154.1,278.8,149.8,267.9,149.8,267.9z M149.8,267.9c0,0-4.2,11.1-4.2,17.9c0,8.1,4.2,20.2,4.2,20.2s4.2-10.2,4.2-20.2
				C154.1,278.8,149.8,267.9,149.8,267.9z M149.8,267.9c0,0-4.2,11.1-4.2,17.9c0,8.1,4.2,20.2,4.2,20.2s4.2-10.2,4.2-20.2
				C154.1,278.8,149.8,267.9,149.8,267.9z M149.8,267.9c0,0-4.2,11.1-4.2,17.9c0,8.1,4.2,20.2,4.2,20.2s4.2-10.2,4.2-20.2
				C154.1,278.8,149.8,267.9,149.8,267.9z M149.8,267.9c0,0-4.2,11.1-4.2,17.9c0,8.1,4.2,20.2,4.2,20.2s4.2-10.2,4.2-20.2
				C154.1,278.8,149.8,267.9,149.8,267.9z M149.8,267.9c0,0-4.2,11.1-4.2,17.9c0,8.1,4.2,20.2,4.2,20.2s4.2-10.2,4.2-20.2
				C154.1,278.8,149.8,267.9,149.8,267.9z M149.8,267.9c0,0-4.2,11.1-4.2,17.9c0,8.1,4.2,20.2,4.2,20.2s4.2-10.2,4.2-20.2
				C154.1,278.8,149.8,267.9,149.8,267.9z M435.6,180.9l0.2-1.7v0c0.5-4.7,1.8-10.3,4.1-16.8c7.4-20.6,16-59-2.6-129.8
				c-5.5-21-37.2-53-86.3,8.3c-20.6,25.8-51.4,84.3-58.3,118.5c0,0.1,0,0.1,0,0.2c0,0-0.2,0.1-0.7,0.3h0c-1.8,0.9-6.6,4.1-5.8,12.3
				c0,0.3,0.1,0.7,0.1,1.1c0,0-0.3,0-0.8,0.1h0c-1.6,0.2-5.2,1.4-5.3,7c0,0,0,0,0,0c0,0.8,0,1.6,0.2,2.6c0,0-0.5-0.6-1.2-1.4l0,0
				c-1.5-1.6-4.3-3.9-6.2-2.4c-0.3,0.2-0.6,0.6-0.9,1.1c0,0-0.2-0.2-0.5-0.6c-1.2-1.2-4.5-3.9-8.1-1.8c-0.4,0.2-0.8,0.5-1.2,0.9
				c0,0-0.6-0.8-1.5-1.7c-1.6-1.6-4.1-3.6-6.2-2.3c-0.2,0.1-0.4,0.3-0.6,0.5c0,0-0.1-0.2-0.4-0.4c0.1,1.1,0.1,2.2,0.1,3.4
				c0,1.3,0,2.7-0.1,4c-0.1,2.7-0.4,5.4-0.7,8.1c-0.7,5.3-1.8,10.6-3.4,15.8c-1.6,5.1-3.6,10.1-6.2,14.8c-0.6,1.2-1.3,2.3-2,3.5
				c-0.8,1.1-1.5,2.2-2.3,3.3l-1.2,1.6c-0.4,0.5-0.8,1.1-1.2,1.6c-0.8,1.1-1.6,2.1-2.3,3.4l-0.1,0.2c-0.1,0.3-0.3,0.7-0.5,1.1
				c-0.2,0.3-0.4,0.7-0.6,1c-0.5,0.7-1,1.2-1.6,1.8c-1.2,1-2.7,1.6-4.3,1.6s-3.1-0.6-4.3-1.6c-0.6-0.5-1.1-1.1-1.6-1.8
				c-0.2-0.3-0.5-0.7-0.6-1c-0.2-0.3-0.4-0.7-0.5-1.1l-0.1-0.2c-0.7-1.2-1.5-2.2-2.3-3.4c-0.4-0.5-0.8-1.1-1.2-1.6l-1.2-1.6
				c-0.8-1.1-1.5-2.2-2.3-3.3c-0.7-1.2-1.4-2.3-2-3.5c-2.6-4.7-4.7-9.7-6.2-14.8c-1.6-5.1-2.7-10.4-3.4-15.8
				c-0.3-2.7-0.6-5.4-0.7-8.1c-0.1-1.3-0.1-2.7-0.1-4c0-1.1,0-2.3,0.1-3.4c-0.3,0.3-0.4,0.4-0.4,0.4c-0.2-0.2-0.4-0.4-0.6-0.5
				c-2.1-1.3-4.7,0.7-6.2,2.3c-0.9,0.9-1.5,1.7-1.5,1.7c-0.4-0.4-0.8-0.7-1.2-0.9c-3.6-2.1-6.8,0.5-8.1,1.8
				c-0.3,0.3-0.5,0.6-0.5,0.6c-0.3-0.5-0.6-0.9-0.9-1.1c-1.9-1.5-4.6,0.7-6.2,2.4l0,0c-0.7,0.8-1.2,1.4-1.2,1.4
				c0.1-1,0.2-1.8,0.2-2.6c0,0,0,0,0,0c-0.1-5.7-3.7-6.8-5.3-7h0c-0.5-0.1-0.8-0.1-0.8-0.1c0.1-0.4,0.1-0.7,0.1-1.1
				c0.8-8.2-4-11.4-5.8-12.3h0c-0.4-0.2-0.7-0.3-0.7-0.3c0-0.1,0-0.1,0-0.2C154.4,125.3,123.6,66.8,103,41
				c-49.1-61.4-80.8-29.3-86.3-8.3c-18.6,70.8-10,109.2-2.6,129.8c2.3,6.5,3.5,12.1,4.1,16.8v0l0.2,1.7v0c0.8,9.1-0.9,14.2-0.9,14.2
				c-6.9,21.3-0.8,30.7,6.7,36.2c14.8,10.8,14,22.8,14,22.8c-1.7,22.9,17.2,32.4,24.7,35.3c1.9,0.7,3,1,3,1c0,0.9,0.1,1.7,0.3,2.5
				c0,0,0,0,0,0c1,3.8,4.2,6.1,6.3,7.3c1,0.6,1.8,0.9,2,1c0,0,0.1,0,0.1,0c-2.1,11.7,8.6,15,8.6,15s2.3,1,3.7,2.8
				c0.5,0.8,1,1.7,1,2.7c0,0,0,0,0,0c0,0.3,0,0.6,0,0.9c-0.7,5.6,3.6,15.6,7.9,18.9c3.2,2.4,10.1,14.4,11.9,18.8
				c3.7,9.1,19.3,28.5,27.5,36.3c2.9,2.7,7.9,7.2,13,11.8c2.5,2.2,5,4.5,7.3,6.6c5.3,4.8,9.5,8.8,9.8,9.6c0.6,1.5,3.4,6.8,7.7,8
				c2.9,0.8,7.5,3.1,9.7,4.7c18,13.3,44.2,12.7,44.2,12.7s26.1,0.6,44.2-12.7c2.2-1.6,6.8-3.9,9.7-4.7c4.2-1.2,7.1-6.5,7.7-8
				c0.3-0.8,4.5-4.8,9.8-9.6c2.3-2.1,4.8-4.3,7.3-6.6c5.1-4.6,10.2-9.1,13-11.8c8.2-7.8,23.8-27.3,27.5-36.3
				c1.8-4.4,8.7-16.3,11.9-18.8c4.3-3.3,8.7-13.3,7.9-18.9c0-0.3,0-0.6,0-0.9c0,0,0,0,0,0c0.1-1.1,0.5-2,1-2.7
				c1.4-1.9,3.7-2.8,3.7-2.8s10.8-3.3,8.6-15c0,0,0,0,0.1,0c0.2-0.1,1-0.4,2-1c2.2-1.2,5.3-3.5,6.3-7.3c0,0,0,0,0,0
				c0.2-0.8,0.3-1.6,0.3-2.5c0,0,1.2-0.3,3-1c7.5-2.9,26.5-12.5,24.7-35.3c0,0-0.8-12,14-22.8c7.4-5.4,13.5-14.9,6.7-36.2
				C436.5,195.2,434.8,190.1,435.6,180.9L435.6,180.9z M123,288c0,1.1,0.2,2.1,0.3,3.1c0.1,0.9,0.3,1.8,0.5,2.7
				c-0.8-1.2-1.5-2.5-2.3-3.8c-0.7-1.3-1.4-2.7-2-4l1.1-2.2c0.5-1,1-1.9,1.5-2.8c0.5-0.9,1.1-1.8,1.6-2.7c0-0.1,0.1-0.2,0.2-0.2
				c0,0.2-0.1,0.4-0.1,0.6c-0.1,1-0.4,2-0.5,3.1c0,0.5-0.1,1.1-0.2,1.6c0,0.5,0,1.1-0.1,1.6C122.9,285.8,123,286.9,123,288z
				 M125.7,296c-0.1-0.4-0.2-0.8-0.3-1.2c-0.1-0.4-0.2-0.8-0.2-1.3c-0.2-0.9-0.4-1.8-0.4-2.7c-0.1-1-0.2-2-0.2-3c0-1,0-2,0-3.1
				c0-0.5,0-1,0.1-1.5s0.1-1,0.2-1.5c0.1-1,0.4-2,0.5-2.9c0.2-0.9,0.4-1.8,0.7-2.7c0.2-0.8,0.5-1.6,0.8-2.4c0.1-0.2,0.2-0.5,0.3-0.7
				c0,0,0.1-0.1,0.1-0.1c0.7-0.8,1.3-1.6,2-2.4s1.4-1.5,2.1-2.2c0.4-0.3,0.7-0.7,1.1-1l1.2-1c1.6-1.2,3.2-2.4,5.1-3.3
				c1.8-0.9,3.6-1.6,5.6-2c3.9-0.8,7.9-0.7,11.8,0.3c3.9,1,7.6,2.9,11,5.3c0.8,0.6,1.6,1.2,2.4,1.9c0.6,0.5,1.2,1,1.8,1.6
				c0.4,0.8,0.9,1.8,1.3,2.8c0.9,2,1.9,4.3,2.6,6.9c0.2,0.6,0.3,1.3,0.5,2c0.1,0.3,0.1,0.7,0.2,1l0.1,1c0.2,1.4,0.3,2.8,0.2,4.3
				c0,2.8-0.4,5.7-1.2,8.3s-1.9,4.8-3.1,6.6c-0.7,1.1-1.4,2-2.1,2.8c-0.5,0.3-1.1,0.7-1.7,1c-3.1,1.7-6.3,3-9.6,3.8
				c-1.7,0.4-3.4,0.6-5,0.8c-0.8,0.1-1.7,0.1-2.5,0.1c-0.9,0-1.6,0-2.5-0.1l-1.3-0.1c-0.3,0-0.8-0.1-1.2-0.2
				c-0.8-0.1-1.6-0.4-2.4-0.6c-1.6-0.5-3.1-1.1-4.6-1.9s-2.9-1.7-4.3-2.7c-1.4-1-2.6-2.2-3.8-3.4c-1.7-1.8-3.4-3.7-4.8-5.7
				C125.8,296.5,125.8,296.3,125.7,296z M277.3,297.1c0.9,2.6,2.1,4.8,3.4,6.6c-1.3-0.8-2.6-1.7-3.9-2.5c-1.5-1-3.1-1.9-4.8-2.7
				c-1.3-0.6-2.8-1.1-4.3-1.3c0.5-1.7,1-3.4,1.6-5c0.7-2,1.6-4,2.5-5.9c0.9-1.9,1.9-3.8,3-5.6c0.5-0.9,1.1-1.8,1.7-2.7
				c0.6-0.9,1.2-1.7,1.8-2.6c0,0,0.1-0.1,0.1-0.1c0,0.1-0.1,0.2-0.1,0.3c-0.5,1.2-1,2.5-1.3,3.9c-0.2,0.7-0.3,1.4-0.5,2.1
				c-0.1,0.4-0.1,0.7-0.2,1.1c0,0.4-0.1,0.7-0.1,1.1c-0.2,1.5-0.2,3-0.2,4.5C275.9,291.3,276.4,294.4,277.3,297.1z M177.9,283.8
				c0-0.4-0.1-0.7-0.1-1.1c-0.1-0.4-0.1-0.7-0.2-1.1c-0.1-0.7-0.3-1.5-0.5-2.1c-0.3-1.4-0.8-2.7-1.3-3.9c0-0.1-0.1-0.2-0.1-0.3
				c0,0,0.1,0.1,0.1,0.1c0.6,0.9,1.2,1.7,1.8,2.6c0.6,0.9,1.2,1.8,1.7,2.7c1.1,1.8,2,3.7,3,5.6c0.9,1.9,1.7,3.9,2.5,5.9
				c0.6,1.6,1.1,3.3,1.6,5c-1.5,0.2-3,0.7-4.3,1.3c-1.7,0.8-3.3,1.8-4.8,2.7c-1.3,0.8-2.6,1.7-3.9,2.5c1.3-1.8,2.5-4.1,3.4-6.6
				c0.9-2.7,1.4-5.7,1.5-8.8C178.2,286.8,178.1,285.2,177.9,283.8z M305.5,311.3c-0.9,0.1-1.7,0.1-2.5,0.1c-0.9,0-1.7,0-2.5-0.1
				c-1.7-0.1-3.4-0.3-5-0.8c-3.3-0.8-6.5-2.1-9.6-3.8c-0.6-0.3-1.1-0.6-1.7-1c-0.7-0.8-1.4-1.7-2.1-2.8c-1.2-1.8-2.3-4-3.1-6.6
				s-1.2-5.4-1.2-8.3c0-1.4,0.1-2.9,0.2-4.3l0.1-1c0.1-0.3,0.1-0.7,0.2-1c0.1-0.7,0.3-1.3,0.5-2c0.7-2.6,1.7-4.9,2.6-6.9
				c0.5-1.1,0.9-2,1.3-2.8c0.6-0.6,1.2-1.1,1.8-1.6c0.8-0.7,1.6-1.3,2.4-1.9c3.3-2.4,7-4.3,11-5.3c3.9-1,8-1.2,11.8-0.3
				c1.9,0.4,3.8,1.1,5.6,2c1.8,0.9,3.5,2,5.1,3.3l1.2,1c0.4,0.3,0.8,0.7,1.1,1c0.8,0.7,1.4,1.5,2.1,2.2s1.3,1.6,2,2.4
				c0,0,0.1,0.1,0.1,0.1c0.1,0.2,0.2,0.5,0.3,0.7c0.3,0.7,0.5,1.5,0.8,2.4c0.3,0.8,0.5,1.8,0.7,2.7c0.2,0.9,0.4,1.9,0.5,2.9
				c0.1,0.5,0.1,1,0.2,1.5s0.1,1,0.1,1.5c0.1,1,0.1,2.1,0,3.1c0,1-0.1,2-0.2,3c-0.1,1-0.3,1.9-0.4,2.7c-0.1,0.4-0.1,0.9-0.2,1.3
				c-0.1,0.4-0.2,0.8-0.3,1.2c-0.1,0.3-0.2,0.5-0.2,0.8c-1.5,2-3.1,3.9-4.8,5.7c-1.2,1.2-2.5,2.3-3.8,3.4c-1.4,1-2.8,2-4.3,2.7
				s-3,1.4-4.6,1.9c-0.8,0.2-1.6,0.5-2.4,0.6c-0.4,0.1-0.9,0.1-1.2,0.2L305.5,311.3z M330.3,278.1c0.5,0.9,1.1,1.8,1.6,2.7
				c0.5,0.9,1,1.9,1.5,2.8l1.1,2.2c-0.6,1.3-1.3,2.7-2,4c-0.7,1.3-1.5,2.5-2.3,3.8c0.2-0.9,0.4-1.8,0.5-2.7c0.1-1,0.3-2,0.3-3.1
				c0.1-1.1,0.1-2.1,0-3.2c0-0.5,0-1.1-0.1-1.6c-0.1-0.5-0.1-1-0.2-1.6c-0.1-1-0.3-2.1-0.5-3.1c0-0.2-0.1-0.4-0.1-0.6
				C330.2,278,330.3,278.1,330.3,278.1z M154.1,285.8c0-7.1-4.2-17.9-4.2-17.9s-4.2,11.1-4.2,17.9c0,8.1,4.2,20.2,4.2,20.2
				S154.1,295.8,154.1,285.8z M149.8,267.9c0,0-4.2,11.1-4.2,17.9c0,8.1,4.2,20.2,4.2,20.2s4.2-10.2,4.2-20.2
				C154.1,278.8,149.8,267.9,149.8,267.9z M149.8,267.9c0,0-4.2,11.1-4.2,17.9c0,8.1,4.2,20.2,4.2,20.2s4.2-10.2,4.2-20.2
				C154.1,278.8,149.8,267.9,149.8,267.9z M149.8,267.9c0,0-4.2,11.1-4.2,17.9c0,8.1,4.2,20.2,4.2,20.2s4.2-10.2,4.2-20.2
				C154.1,278.8,149.8,267.9,149.8,267.9z M149.8,267.9c0,0-4.2,11.1-4.2,17.9c0,8.1,4.2,20.2,4.2,20.2s4.2-10.2,4.2-20.2
				C154.1,278.8,149.8,267.9,149.8,267.9z M149.8,267.9c0,0-4.2,11.1-4.2,17.9c0,8.1,4.2,20.2,4.2,20.2s4.2-10.2,4.2-20.2
				C154.1,278.8,149.8,267.9,149.8,267.9z M149.8,267.9c0,0-4.2,11.1-4.2,17.9c0,8.1,4.2,20.2,4.2,20.2s4.2-10.2,4.2-20.2
				C154.1,278.8,149.8,267.9,149.8,267.9z M149.8,267.9c0,0-4.2,11.1-4.2,17.9c0,8.1,4.2,20.2,4.2,20.2s4.2-10.2,4.2-20.2
				C154.1,278.8,149.8,267.9,149.8,267.9z M149.8,267.9c0,0-4.2,11.1-4.2,17.9c0,8.1,4.2,20.2,4.2,20.2s4.2-10.2,4.2-20.2
				C154.1,278.8,149.8,267.9,149.8,267.9z M149.8,267.9c0,0-4.2,11.1-4.2,17.9c0,8.1,4.2,20.2,4.2,20.2s4.2-10.2,4.2-20.2
				C154.1,278.8,149.8,267.9,149.8,267.9z M149.8,267.9c0,0-4.2,11.1-4.2,17.9c0,8.1,4.2,20.2,4.2,20.2s4.2-10.2,4.2-20.2
				C154.1,278.8,149.8,267.9,149.8,267.9z M149.8,267.9c0,0-4.2,11.1-4.2,17.9c0,8.1,4.2,20.2,4.2,20.2s4.2-10.2,4.2-20.2
				C154.1,278.8,149.8,267.9,149.8,267.9z M149.8,267.9c0,0-4.2,11.1-4.2,17.9c0,8.1,4.2,20.2,4.2,20.2s4.2-10.2,4.2-20.2
				C154.1,278.8,149.8,267.9,149.8,267.9z M149.8,267.9c0,0-4.2,11.1-4.2,17.9c0,8.1,4.2,20.2,4.2,20.2s4.2-10.2,4.2-20.2
				C154.1,278.8,149.8,267.9,149.8,267.9z M149.8,267.9c0,0-4.2,11.1-4.2,17.9c0,8.1,4.2,20.2,4.2,20.2s4.2-10.2,4.2-20.2
				C154.1,278.8,149.8,267.9,149.8,267.9z M149.8,267.9c0,0-4.2,11.1-4.2,17.9c0,8.1,4.2,20.2,4.2,20.2s4.2-10.2,4.2-20.2
				C154.1,278.8,149.8,267.9,149.8,267.9z M149.8,267.9c0,0-4.2,11.1-4.2,17.9c0,8.1,4.2,20.2,4.2,20.2s4.2-10.2,4.2-20.2
				C154.1,278.8,149.8,267.9,149.8,267.9z M149.8,267.9c0,0-4.2,11.1-4.2,17.9c0,8.1,4.2,20.2,4.2,20.2s4.2-10.2,4.2-20.2
				C154.1,278.8,149.8,267.9,149.8,267.9z M149.8,267.9c0,0-4.2,11.1-4.2,17.9c0,8.1,4.2,20.2,4.2,20.2s4.2-10.2,4.2-20.2
				C154.1,278.8,149.8,267.9,149.8,267.9z M149.8,267.9c0,0-4.2,11.1-4.2,17.9c0,8.1,4.2,20.2,4.2,20.2s4.2-10.2,4.2-20.2
				C154.1,278.8,149.8,267.9,149.8,267.9z M149.8,267.9c0,0-4.2,11.1-4.2,17.9c0,8.1,4.2,20.2,4.2,20.2s4.2-10.2,4.2-20.2
				C154.1,278.8,149.8,267.9,149.8,267.9z M149.8,267.9c0,0-4.2,11.1-4.2,17.9c0,8.1,4.2,20.2,4.2,20.2s4.2-10.2,4.2-20.2
				C154.1,278.8,149.8,267.9,149.8,267.9z M149.8,267.9c0,0-4.2,11.1-4.2,17.9c0,8.1,4.2,20.2,4.2,20.2s4.2-10.2,4.2-20.2
				C154.1,278.8,149.8,267.9,149.8,267.9z M149.8,267.9c0,0-4.2,11.1-4.2,17.9c0,8.1,4.2,20.2,4.2,20.2s4.2-10.2,4.2-20.2
				C154.1,278.8,149.8,267.9,149.8,267.9z M149.8,267.9c0,0-4.2,11.1-4.2,17.9c0,8.1,4.2,20.2,4.2,20.2s4.2-10.2,4.2-20.2
				C154.1,278.8,149.8,267.9,149.8,267.9z"/>
			<path class="st2" d="M253.5,178.2c0,1.3,0,2.7-0.1,4c-0.1,2.7-0.4,5.4-0.7,8.1c-0.7,5.3-1.8,10.6-3.4,15.8
				c-1.6,5.1-3.6,10.1-6.2,14.8c-0.6,1.2-1.3,2.3-2,3.5c-0.8,1.1-1.5,2.2-2.3,3.3l-1.2,1.6c-0.4,0.5-0.8,1.1-1.2,1.6
				c-0.8,1.1-1.6,2.1-2.3,3.4l-0.1,0.2c-0.1,0.3-0.3,0.7-0.5,1.1c-0.2,0.3-0.4,0.7-0.6,1c-0.5,0.7-1,1.2-1.6,1.8
				c-1.2,1-2.7,1.6-4.3,1.6s-3.1-0.6-4.3-1.6c-0.6-0.5-1.1-1.1-1.6-1.8c-0.2-0.3-0.5-0.7-0.6-1c-0.2-0.3-0.4-0.7-0.5-1.1l-0.1-0.2
				c-0.7-1.2-1.5-2.2-2.3-3.4c-0.4-0.5-0.8-1.1-1.2-1.6l-1.2-1.6c-0.8-1.1-1.5-2.2-2.3-3.3c-0.7-1.2-1.4-2.3-2-3.5
				c-2.6-4.7-4.7-9.7-6.2-14.8c-1.6-5.1-2.7-10.4-3.4-15.8c-0.3-2.7-0.6-5.4-0.7-8.1c-0.1-1.3-0.1-2.7-0.1-4c0-1.1,0-2.3,0.1-3.4
				c1.7-2,9.7-9.7,26.5-9.7s24.7,7.8,26.5,9.7C253.5,176,253.5,177.1,253.5,178.2z"/>
		</g>
	</g>
	<path class="st1" d="M308.4,285.8c0,8.1-4.2,20.2-4.2,20.2s-4.2-10.2-4.2-20.2c0-7.1,4.2-17.9,4.2-17.9S308.4,279,308.4,285.8z"/>
	<path class="st1" d="M149.8,267.9c0,0-4.2,11.1-4.2,17.9c0,8.1,4.2,20.2,4.2,20.2s4.2-10.2,4.2-20.2
		C154.1,278.8,149.8,267.9,149.8,267.9z M149.8,267.9c0,0-4.2,11.1-4.2,17.9c0,8.1,4.2,20.2,4.2,20.2s4.2-10.2,4.2-20.2
		C154.1,278.8,149.8,267.9,149.8,267.9z M149.8,267.9c0,0-4.2,11.1-4.2,17.9c0,8.1,4.2,20.2,4.2,20.2s4.2-10.2,4.2-20.2
		C154.1,278.8,149.8,267.9,149.8,267.9z M149.8,267.9c0,0-4.2,11.1-4.2,17.9c0,8.1,4.2,20.2,4.2,20.2s4.2-10.2,4.2-20.2
		C154.1,278.8,149.8,267.9,149.8,267.9z M149.8,267.9c0,0-4.2,11.1-4.2,17.9c0,8.1,4.2,20.2,4.2,20.2s4.2-10.2,4.2-20.2
		C154.1,278.8,149.8,267.9,149.8,267.9z M149.8,267.9c0,0-4.2,11.1-4.2,17.9c0,8.1,4.2,20.2,4.2,20.2s4.2-10.2,4.2-20.2
		C154.1,278.8,149.8,267.9,149.8,267.9z M149.8,267.9c0,0-4.2,11.1-4.2,17.9c0,8.1,4.2,20.2,4.2,20.2s4.2-10.2,4.2-20.2
		C154.1,278.8,149.8,267.9,149.8,267.9z M149.8,267.9c0,0-4.2,11.1-4.2,17.9c0,8.1,4.2,20.2,4.2,20.2s4.2-10.2,4.2-20.2
		C154.1,278.8,149.8,267.9,149.8,267.9z M149.8,267.9c0,0-4.2,11.1-4.2,17.9c0,8.1,4.2,20.2,4.2,20.2s4.2-10.2,4.2-20.2
		C154.1,278.8,149.8,267.9,149.8,267.9z M149.8,267.9c0,0-4.2,11.1-4.2,17.9c0,8.1,4.2,20.2,4.2,20.2s4.2-10.2,4.2-20.2
		C154.1,278.8,149.8,267.9,149.8,267.9z M149.8,267.9c0,0-4.2,11.1-4.2,17.9c0,8.1,4.2,20.2,4.2,20.2s4.2-10.2,4.2-20.2
		C154.1,278.8,149.8,267.9,149.8,267.9z M149.8,267.9c0,0-4.2,11.1-4.2,17.9c0,8.1,4.2,20.2,4.2,20.2s4.2-10.2,4.2-20.2
		C154.1,278.8,149.8,267.9,149.8,267.9z M149.8,267.9c0,0-4.2,11.1-4.2,17.9c0,8.1,4.2,20.2,4.2,20.2s4.2-10.2,4.2-20.2
		C154.1,278.8,149.8,267.9,149.8,267.9z M149.8,267.9c0,0-4.2,11.1-4.2,17.9c0,8.1,4.2,20.2,4.2,20.2s4.2-10.2,4.2-20.2
		C154.1,278.8,149.8,267.9,149.8,267.9z M149.8,267.9c0,0-4.2,11.1-4.2,17.9c0,8.1,4.2,20.2,4.2,20.2s4.2-10.2,4.2-20.2
		C154.1,278.8,149.8,267.9,149.8,267.9z M149.8,267.9c0,0-4.2,11.1-4.2,17.9c0,8.1,4.2,20.2,4.2,20.2s4.2-10.2,4.2-20.2
		C154.1,278.8,149.8,267.9,149.8,267.9z M149.8,267.9c0,0-4.2,11.1-4.2,17.9c0,8.1,4.2,20.2,4.2,20.2s4.2-10.2,4.2-20.2
		C154.1,278.8,149.8,267.9,149.8,267.9z M149.8,267.9c0,0-4.2,11.1-4.2,17.9c0,8.1,4.2,20.2,4.2,20.2s4.2-10.2,4.2-20.2
		C154.1,278.8,149.8,267.9,149.8,267.9z M149.8,267.9c0,0-4.2,11.1-4.2,17.9c0,8.1,4.2,20.2,4.2,20.2s4.2-10.2,4.2-20.2
		C154.1,278.8,149.8,267.9,149.8,267.9z M149.8,267.9c0,0-4.2,11.1-4.2,17.9c0,8.1,4.2,20.2,4.2,20.2s4.2-10.2,4.2-20.2
		C154.1,278.8,149.8,267.9,149.8,267.9z M149.8,267.9c0,0-4.2,11.1-4.2,17.9c0,8.1,4.2,20.2,4.2,20.2s4.2-10.2,4.2-20.2
		C154.1,278.8,149.8,267.9,149.8,267.9z M149.8,267.9c0,0-4.2,11.1-4.2,17.9c0,8.1,4.2,20.2,4.2,20.2s4.2-10.2,4.2-20.2
		C154.1,278.8,149.8,267.9,149.8,267.9z M149.8,267.9c0,0-4.2,11.1-4.2,17.9c0,8.1,4.2,20.2,4.2,20.2s4.2-10.2,4.2-20.2
		C154.1,278.8,149.8,267.9,149.8,267.9z M149.8,267.9c0,0-4.2,11.1-4.2,17.9c0,8.1,4.2,20.2,4.2,20.2s4.2-10.2,4.2-20.2
		C154.1,278.8,149.8,267.9,149.8,267.9z M149.8,267.9c0,0-4.2,11.1-4.2,17.9c0,8.1,4.2,20.2,4.2,20.2s4.2-10.2,4.2-20.2
		C154.1,278.8,149.8,267.9,149.8,267.9z M149.8,267.9c0,0-4.2,11.1-4.2,17.9c0,8.1,4.2,20.2,4.2,20.2s4.2-10.2,4.2-20.2
		C154.1,278.8,149.8,267.9,149.8,267.9z M435.6,180.9l0.2-1.7v0c0.5-4.7,1.8-10.3,4.1-16.8c7.4-20.6,16-59-2.6-129.8
		c-5.5-21-37.2-53-86.3,8.3c-20.6,25.8-51.4,84.3-58.3,118.5c0,0.1,0,0.1,0,0.2c0,0-0.2,0.1-0.7,0.3h0c-1.8,0.9-6.6,4.1-5.8,12.3
		c0,0.3,0.1,0.7,0.1,1.1c0,0-0.3,0-0.8,0.1h0c-1.6,0.2-5.2,1.4-5.3,7c0,0,0,0,0,0c0,0.8,0,1.6,0.2,2.6c0,0-0.5-0.6-1.2-1.4l0,0
		c-1.5-1.6-4.3-3.9-6.2-2.4c-0.3,0.2-0.6,0.6-0.9,1.1c0,0-0.2-0.2-0.5-0.6c-1.2-1.2-4.5-3.9-8.1-1.8c-0.4,0.2-0.8,0.5-1.2,0.9
		c0,0-0.6-0.8-1.5-1.7c-1.6-1.6-4.1-3.6-6.2-2.3c-0.2,0.1-0.4,0.3-0.6,0.5c0,0-0.1-0.2-0.4-0.4c0.1,1.1,0.1,2.2,0.1,3.4
		c0,1.3,0,2.7-0.1,4c-0.1,2.7-0.4,5.4-0.7,8.1c-0.7,5.3-1.8,10.6-3.4,15.8c-1.6,5.1-3.6,10.1-6.2,14.8c-0.6,1.2-1.3,2.3-2,3.5
		c-0.8,1.1-1.5,2.2-2.3,3.3l-1.2,1.6c-0.4,0.5-0.8,1.1-1.2,1.6c-0.8,1.1-1.6,2.1-2.3,3.4l-0.1,0.2c-0.1,0.3-0.3,0.7-0.5,1.1
		c-0.2,0.3-0.4,0.7-0.6,1c-0.5,0.7-1,1.2-1.6,1.8c-1.2,1-2.7,1.6-4.3,1.6s-3.1-0.6-4.3-1.6c-0.6-0.5-1.1-1.1-1.6-1.8
		c-0.2-0.3-0.5-0.7-0.6-1c-0.2-0.3-0.4-0.7-0.5-1.1l-0.1-0.2c-0.7-1.2-1.5-2.2-2.3-3.4c-0.4-0.5-0.8-1.1-1.2-1.6l-1.2-1.6
		c-0.8-1.1-1.5-2.2-2.3-3.3c-0.7-1.2-1.4-2.3-2-3.5c-2.6-4.7-4.7-9.7-6.2-14.8c-1.6-5.1-2.7-10.4-3.4-15.8c-0.3-2.7-0.6-5.4-0.7-8.1
		c-0.1-1.3-0.1-2.7-0.1-4c0-1.1,0-2.3,0.1-3.4c-0.3,0.3-0.4,0.4-0.4,0.4c-0.2-0.2-0.4-0.4-0.6-0.5c-2.1-1.3-4.7,0.7-6.2,2.3
		c-0.9,0.9-1.5,1.7-1.5,1.7c-0.4-0.4-0.8-0.7-1.2-0.9c-3.6-2.1-6.8,0.5-8.1,1.8c-0.3,0.3-0.5,0.6-0.5,0.6c-0.3-0.5-0.6-0.9-0.9-1.1
		c-1.9-1.5-4.6,0.7-6.2,2.4l0,0c-0.7,0.8-1.2,1.4-1.2,1.4c0.1-1,0.2-1.8,0.2-2.6c0,0,0,0,0,0c-0.1-5.7-3.7-6.8-5.3-7h0
		c-0.5-0.1-0.8-0.1-0.8-0.1c0.1-0.4,0.1-0.7,0.1-1.1c0.8-8.2-4-11.4-5.8-12.3h0c-0.4-0.2-0.7-0.3-0.7-0.3c0-0.1,0-0.1,0-0.2
		C154.4,125.3,123.6,66.8,103,41c-49.1-61.4-80.8-29.3-86.3-8.3c-18.6,70.8-10,109.2-2.6,129.8c2.3,6.5,3.5,12.1,4.1,16.8v0l0.2,1.7
		v0c0.8,9.1-0.9,14.2-0.9,14.2c-6.9,21.3-0.8,30.7,6.7,36.2c14.8,10.8,14,22.8,14,22.8c-1.7,22.9,17.2,32.4,24.7,35.3
		c1.9,0.7,3,1,3,1c0,0.9,0.1,1.7,0.3,2.5c0,0,0,0,0,0c1,3.8,4.2,6.1,6.3,7.3c1,0.6,1.8,0.9,2,1c0,0,0.1,0,0.1,0
		c-2.1,11.7,8.6,15,8.6,15s2.3,1,3.7,2.8c0.5,0.8,1,1.7,1,2.7c0,0,0,0,0,0c0,0.3,0,0.6,0,0.9c-0.7,5.6,3.6,15.6,7.9,18.9
		c3.2,2.4,10.1,14.4,11.9,18.8c3.7,9.1,19.3,28.5,27.5,36.3c2.9,2.7,7.9,7.2,13,11.8c2.5,2.2,5,4.5,7.3,6.6c5.3,4.8,9.5,8.8,9.8,9.6
		c0.6,1.5,3.4,6.8,7.7,8c2.9,0.8,7.5,3.1,9.7,4.7c18,13.3,44.2,12.7,44.2,12.7s26.1,0.6,44.2-12.7c2.2-1.6,6.8-3.9,9.7-4.7
		c4.2-1.2,7.1-6.5,7.7-8c0.3-0.8,4.5-4.8,9.8-9.6c2.3-2.1,4.8-4.3,7.3-6.6c5.1-4.6,10.2-9.1,13-11.8c8.2-7.8,23.8-27.3,27.5-36.3
		c1.8-4.4,8.7-16.3,11.9-18.8c4.3-3.3,8.7-13.3,7.9-18.9c0-0.3,0-0.6,0-0.9c0,0,0,0,0,0c0.1-1.1,0.5-2,1-2.7
		c1.4-1.9,3.7-2.8,3.7-2.8s10.8-3.3,8.6-15c0,0,0,0,0.1,0c0.2-0.1,1-0.4,2-1c2.2-1.2,5.3-3.5,6.3-7.3c0,0,0,0,0,0
		c0.2-0.8,0.3-1.6,0.3-2.5c0,0,1.2-0.3,3-1c7.5-2.9,26.5-12.5,24.7-35.3c0,0-0.8-12,14-22.8c7.4-5.4,13.5-14.9,6.7-36.2
		C436.5,195.2,434.8,190.1,435.6,180.9L435.6,180.9z M123,288c0,1.1,0.2,2.1,0.3,3.1c0.1,0.9,0.3,1.8,0.5,2.7
		c-0.8-1.2-1.5-2.5-2.3-3.8c-0.7-1.3-1.4-2.7-2-4l1.1-2.2c0.5-1,1-1.9,1.5-2.8c0.5-0.9,1.1-1.8,1.6-2.7c0-0.1,0.1-0.2,0.2-0.2
		c0,0.2-0.1,0.4-0.1,0.6c-0.1,1-0.4,2-0.5,3.1c0,0.5-0.1,1.1-0.2,1.6c0,0.5,0,1.1-0.1,1.6C122.9,285.8,123,286.9,123,288z
		 M125.7,296c-0.1-0.4-0.2-0.8-0.3-1.2c-0.1-0.4-0.2-0.8-0.2-1.3c-0.2-0.9-0.4-1.8-0.4-2.7c-0.1-1-0.2-2-0.2-3c0-1,0-2,0-3.1
		c0-0.5,0-1,0.1-1.5s0.1-1,0.2-1.5c0.1-1,0.4-2,0.5-2.9c0.2-0.9,0.4-1.8,0.7-2.7c0.2-0.8,0.5-1.6,0.8-2.4c0.1-0.2,0.2-0.5,0.3-0.7
		c0,0,0.1-0.1,0.1-0.1c0.7-0.8,1.3-1.6,2-2.4s1.4-1.5,2.1-2.2c0.4-0.3,0.7-0.7,1.1-1l1.2-1c1.6-1.2,3.2-2.4,5.1-3.3
		c1.8-0.9,3.6-1.6,5.6-2c3.9-0.8,7.9-0.7,11.8,0.3c3.9,1,7.6,2.9,11,5.3c0.8,0.6,1.6,1.2,2.4,1.9c0.6,0.5,1.2,1,1.8,1.6
		c0.4,0.8,0.9,1.8,1.3,2.8c0.9,2,1.9,4.3,2.6,6.9c0.2,0.6,0.3,1.3,0.5,2c0.1,0.3,0.1,0.7,0.2,1l0.1,1c0.2,1.4,0.3,2.8,0.2,4.3
		c0,2.8-0.4,5.7-1.2,8.3s-1.9,4.8-3.1,6.6c-0.7,1.1-1.4,2-2.1,2.8c-0.5,0.3-1.1,0.7-1.7,1c-3.1,1.7-6.3,3-9.6,3.8
		c-1.7,0.4-3.4,0.6-5,0.8c-0.8,0.1-1.7,0.1-2.5,0.1c-0.9,0-1.6,0-2.5-0.1l-1.3-0.1c-0.3,0-0.8-0.1-1.2-0.2c-0.8-0.1-1.6-0.4-2.4-0.6
		c-1.6-0.5-3.1-1.1-4.6-1.9s-2.9-1.7-4.3-2.7c-1.4-1-2.6-2.2-3.8-3.4c-1.7-1.8-3.4-3.7-4.8-5.7C125.8,296.5,125.8,296.3,125.7,296z
		 M277.3,297.1c0.9,2.6,2.1,4.8,3.4,6.6c-1.3-0.8-2.6-1.7-3.9-2.5c-1.5-1-3.1-1.9-4.8-2.7c-1.3-0.6-2.8-1.1-4.3-1.3
		c0.5-1.7,1-3.4,1.6-5c0.7-2,1.6-4,2.5-5.9c0.9-1.9,1.9-3.8,3-5.6c0.5-0.9,1.1-1.8,1.7-2.7c0.6-0.9,1.2-1.7,1.8-2.6
		c0,0,0.1-0.1,0.1-0.1c0,0.1-0.1,0.2-0.1,0.3c-0.5,1.2-1,2.5-1.3,3.9c-0.2,0.7-0.3,1.4-0.5,2.1c-0.1,0.4-0.1,0.7-0.2,1.1
		c0,0.4-0.1,0.7-0.1,1.1c-0.2,1.5-0.2,3-0.2,4.5C275.9,291.3,276.4,294.4,277.3,297.1z M177.9,283.8c0-0.4-0.1-0.7-0.1-1.1
		c-0.1-0.4-0.1-0.7-0.2-1.1c-0.1-0.7-0.3-1.5-0.5-2.1c-0.3-1.4-0.8-2.7-1.3-3.9c0-0.1-0.1-0.2-0.1-0.3c0,0,0.1,0.1,0.1,0.1
		c0.6,0.9,1.2,1.7,1.8,2.6c0.6,0.9,1.2,1.8,1.7,2.7c1.1,1.8,2,3.7,3,5.6c0.9,1.9,1.7,3.9,2.5,5.9c0.6,1.6,1.1,3.3,1.6,5
		c-1.5,0.2-3,0.7-4.3,1.3c-1.7,0.8-3.3,1.8-4.8,2.7c-1.3,0.8-2.6,1.7-3.9,2.5c1.3-1.8,2.5-4.1,3.4-6.6c0.9-2.7,1.4-5.7,1.5-8.8
		C178.2,286.8,178.1,285.2,177.9,283.8z M305.5,311.3c-0.9,0.1-1.7,0.1-2.5,0.1c-0.9,0-1.7,0-2.5-0.1c-1.7-0.1-3.4-0.3-5-0.8
		c-3.3-0.8-6.5-2.1-9.6-3.8c-0.6-0.3-1.1-0.6-1.7-1c-0.7-0.8-1.4-1.7-2.1-2.8c-1.2-1.8-2.3-4-3.1-6.6s-1.2-5.4-1.2-8.3
		c0-1.4,0.1-2.9,0.2-4.3l0.1-1c0.1-0.3,0.1-0.7,0.2-1c0.1-0.7,0.3-1.3,0.5-2c0.7-2.6,1.7-4.9,2.6-6.9c0.5-1.1,0.9-2,1.3-2.8
		c0.6-0.6,1.2-1.1,1.8-1.6c0.8-0.7,1.6-1.3,2.4-1.9c3.3-2.4,7-4.3,11-5.3c3.9-1,8-1.2,11.8-0.3c1.9,0.4,3.8,1.1,5.6,2
		c1.8,0.9,3.5,2,5.1,3.3l1.2,1c0.4,0.3,0.8,0.7,1.1,1c0.8,0.7,1.4,1.5,2.1,2.2s1.3,1.6,2,2.4c0,0,0.1,0.1,0.1,0.1
		c0.1,0.2,0.2,0.5,0.3,0.7c0.3,0.7,0.5,1.5,0.8,2.4c0.3,0.8,0.5,1.8,0.7,2.7c0.2,0.9,0.4,1.9,0.5,2.9c0.1,0.5,0.1,1,0.2,1.5
		s0.1,1,0.1,1.5c0.1,1,0.1,2.1,0,3.1c0,1-0.1,2-0.2,3c-0.1,1-0.3,1.9-0.4,2.7c-0.1,0.4-0.1,0.9-0.2,1.3c-0.1,0.4-0.2,0.8-0.3,1.2
		c-0.1,0.3-0.2,0.5-0.2,0.8c-1.5,2-3.1,3.9-4.8,5.7c-1.2,1.2-2.5,2.3-3.8,3.4c-1.4,1-2.8,2-4.3,2.7s-3,1.4-4.6,1.9
		c-0.8,0.2-1.6,0.5-2.4,0.6c-0.4,0.1-0.9,0.1-1.2,0.2L305.5,311.3z M330.3,278.1c0.5,0.9,1.1,1.8,1.6,2.7c0.5,0.9,1,1.9,1.5,2.8
		l1.1,2.2c-0.6,1.3-1.3,2.7-2,4c-0.7,1.3-1.5,2.5-2.3,3.8c0.2-0.9,0.4-1.8,0.5-2.7c0.1-1,0.3-2,0.3-3.1c0.1-1.1,0.1-2.1,0-3.2
		c0-0.5,0-1.1-0.1-1.6c-0.1-0.5-0.1-1-0.2-1.6c-0.1-1-0.3-2.1-0.5-3.1c0-0.2-0.1-0.4-0.1-0.6C330.2,278,330.3,278.1,330.3,278.1z
		 M154.1,285.8c0-7.1-4.2-17.9-4.2-17.9s-4.2,11.1-4.2,17.9c0,8.1,4.2,20.2,4.2,20.2S154.1,295.8,154.1,285.8z M149.8,267.9
		c0,0-4.2,11.1-4.2,17.9c0,8.1,4.2,20.2,4.2,20.2s4.2-10.2,4.2-20.2C154.1,278.8,149.8,267.9,149.8,267.9z M149.8,267.9
		c0,0-4.2,11.1-4.2,17.9c0,8.1,4.2,20.2,4.2,20.2s4.2-10.2,4.2-20.2C154.1,278.8,149.8,267.9,149.8,267.9z M149.8,267.9
		c0,0-4.2,11.1-4.2,17.9c0,8.1,4.2,20.2,4.2,20.2s4.2-10.2,4.2-20.2C154.1,278.8,149.8,267.9,149.8,267.9z M149.8,267.9
		c0,0-4.2,11.1-4.2,17.9c0,8.1,4.2,20.2,4.2,20.2s4.2-10.2,4.2-20.2C154.1,278.8,149.8,267.9,149.8,267.9z M149.8,267.9
		c0,0-4.2,11.1-4.2,17.9c0,8.1,4.2,20.2,4.2,20.2s4.2-10.2,4.2-20.2C154.1,278.8,149.8,267.9,149.8,267.9z M149.8,267.9
		c0,0-4.2,11.1-4.2,17.9c0,8.1,4.2,20.2,4.2,20.2s4.2-10.2,4.2-20.2C154.1,278.8,149.8,267.9,149.8,267.9z M149.8,267.9
		c0,0-4.2,11.1-4.2,17.9c0,8.1,4.2,20.2,4.2,20.2s4.2-10.2,4.2-20.2C154.1,278.8,149.8,267.9,149.8,267.9z M149.8,267.9
		c0,0-4.2,11.1-4.2,17.9c0,8.1,4.2,20.2,4.2,20.2s4.2-10.2,4.2-20.2C154.1,278.8,149.8,267.9,149.8,267.9z M149.8,267.9
		c0,0-4.2,11.1-4.2,17.9c0,8.1,4.2,20.2,4.2,20.2s4.2-10.2,4.2-20.2C154.1,278.8,149.8,267.9,149.8,267.9z M149.8,267.9
		c0,0-4.2,11.1-4.2,17.9c0,8.1,4.2,20.2,4.2,20.2s4.2-10.2,4.2-20.2C154.1,278.8,149.8,267.9,149.8,267.9z M149.8,267.9
		c0,0-4.2,11.1-4.2,17.9c0,8.1,4.2,20.2,4.2,20.2s4.2-10.2,4.2-20.2C154.1,278.8,149.8,267.9,149.8,267.9z M149.8,267.9
		c0,0-4.2,11.1-4.2,17.9c0,8.1,4.2,20.2,4.2,20.2s4.2-10.2,4.2-20.2C154.1,278.8,149.8,267.9,149.8,267.9z M149.8,267.9
		c0,0-4.2,11.1-4.2,17.9c0,8.1,4.2,20.2,4.2,20.2s4.2-10.2,4.2-20.2C154.1,278.8,149.8,267.9,149.8,267.9z M149.8,267.9
		c0,0-4.2,11.1-4.2,17.9c0,8.1,4.2,20.2,4.2,20.2s4.2-10.2,4.2-20.2C154.1,278.8,149.8,267.9,149.8,267.9z M149.8,267.9
		c0,0-4.2,11.1-4.2,17.9c0,8.1,4.2,20.2,4.2,20.2s4.2-10.2,4.2-20.2C154.1,278.8,149.8,267.9,149.8,267.9z M149.8,267.9
		c0,0-4.2,11.1-4.2,17.9c0,8.1,4.2,20.2,4.2,20.2s4.2-10.2,4.2-20.2C154.1,278.8,149.8,267.9,149.8,267.9z M149.8,267.9
		c0,0-4.2,11.1-4.2,17.9c0,8.1,4.2,20.2,4.2,20.2s4.2-10.2,4.2-20.2C154.1,278.8,149.8,267.9,149.8,267.9z M149.8,267.9
		c0,0-4.2,11.1-4.2,17.9c0,8.1,4.2,20.2,4.2,20.2s4.2-10.2,4.2-20.2C154.1,278.8,149.8,267.9,149.8,267.9z M149.8,267.9
		c0,0-4.2,11.1-4.2,17.9c0,8.1,4.2,20.2,4.2,20.2s4.2-10.2,4.2-20.2C154.1,278.8,149.8,267.9,149.8,267.9z M149.8,267.9
		c0,0-4.2,11.1-4.2,17.9c0,8.1,4.2,20.2,4.2,20.2s4.2-10.2,4.2-20.2C154.1,278.8,149.8,267.9,149.8,267.9z M149.8,267.9
		c0,0-4.2,11.1-4.2,17.9c0,8.1,4.2,20.2,4.2,20.2s4.2-10.2,4.2-20.2C154.1,278.8,149.8,267.9,149.8,267.9z M149.8,267.9
		c0,0-4.2,11.1-4.2,17.9c0,8.1,4.2,20.2,4.2,20.2s4.2-10.2,4.2-20.2C154.1,278.8,149.8,267.9,149.8,267.9z M149.8,267.9
		c0,0-4.2,11.1-4.2,17.9c0,8.1,4.2,20.2,4.2,20.2s4.2-10.2,4.2-20.2C154.1,278.8,149.8,267.9,149.8,267.9z M149.8,267.9
		c0,0-4.2,11.1-4.2,17.9c0,8.1,4.2,20.2,4.2,20.2s4.2-10.2,4.2-20.2C154.1,278.8,149.8,267.9,149.8,267.9z"/>
	<path class="st2" d="M253.5,178.2c0,1.3,0,2.7-0.1,4c-0.1,2.7-0.4,5.4-0.7,8.1c-0.7,5.3-1.8,10.6-3.4,15.8
		c-1.6,5.1-3.6,10.1-6.2,14.8c-0.6,1.2-1.3,2.3-2,3.5c-0.8,1.1-1.5,2.2-2.3,3.3l-1.2,1.6c-0.4,0.5-0.8,1.1-1.2,1.6
		c-0.8,1.1-1.6,2.1-2.3,3.4l-0.1,0.2c-0.1,0.3-0.3,0.7-0.5,1.1c-0.2,0.3-0.4,0.7-0.6,1c-0.5,0.7-1,1.2-1.6,1.8
		c-1.2,1-2.7,1.6-4.3,1.6s-3.1-0.6-4.3-1.6c-0.6-0.5-1.1-1.1-1.6-1.8c-0.2-0.3-0.5-0.7-0.6-1c-0.2-0.3-0.4-0.7-0.5-1.1l-0.1-0.2
		c-0.7-1.2-1.5-2.2-2.3-3.4c-0.4-0.5-0.8-1.1-1.2-1.6l-1.2-1.6c-0.8-1.1-1.5-2.2-2.3-3.3c-0.7-1.2-1.4-2.3-2-3.5
		c-2.6-4.7-4.7-9.7-6.2-14.8c-1.6-5.1-2.7-10.4-3.4-15.8c-0.3-2.7-0.6-5.4-0.7-8.1c-0.1-1.3-0.1-2.7-0.1-4c0-1.1,0-2.3,0.1-3.4
		c1.6-1.8,8.4-8.4,22.4-9.6c1.3-0.1,2.7-0.2,4.1-0.2c1.5,0,2.9,0.1,4.3,0.2c13.8,1.2,20.6,7.8,22.2,9.5
		C253.5,176,253.5,177.1,253.5,178.2z"/>
</g>
<g id="nose">
	<path class="st3" d="M264,357.2c-2.4-17.4-37-98.6-37-98.6s-34.6,81.2-37,98.6c-1.1,8.3,0.7,17.1,9.9,24.6
		c4.9,4,13.8,7.3,19.5,10.5c5.3,3,7.6,5.9,7.6,7.1c0-1.2,2.7-4.1,7.7-7c5.8-3.3,14.5-6.6,19.5-10.7
		C263.3,374.4,265.2,365.5,264,357.2z"/>
	<path class="st4" d="M254.1,365.4l-7,5.7l-6.2,3.8l1.1-1.4l3.2-5.1l-2.4,0.4l-7.8,5.9c0,0-2,2.3-5.1,6.3s-5.7,0-5.7,0l-2.9-3.6
		l-3.9-4.2l-5.6-4.1l-3.2-1.1l3.2,4.9l-0.5,0.9l-6.5-4.4l-5.4-4.7c0,0-1.9-2.9,3.2-12.3c4.6-8.3,24.5-29.1,24.5-29.1
		s19.3,21.2,24.4,29.2C257.8,362.8,254.1,365.4,254.1,365.4z"/>
</g>
<g id="inlines">
	<g id="art_3_">
		<g>
			<path class="st5" d="M308.4,285.8c0,8.1-4.2,20.2-4.2,20.2s-4.2-10.2-4.2-20.2c0-7.1,4.2-17.9,4.2-17.9S308.4,279,308.4,285.8z"
				/>
			<path class="st5" d="M149.8,267.9c0,0-4.2,11.1-4.2,17.9c0,8.1,4.2,20.2,4.2,20.2s4.2-10.2,4.2-20.2
				C154.1,278.8,149.8,267.9,149.8,267.9z M149.8,267.9c0,0-4.2,11.1-4.2,17.9c0,8.1,4.2,20.2,4.2,20.2s4.2-10.2,4.2-20.2
				C154.1,278.8,149.8,267.9,149.8,267.9z M149.8,267.9c0,0-4.2,11.1-4.2,17.9c0,8.1,4.2,20.2,4.2,20.2s4.2-10.2,4.2-20.2
				C154.1,278.8,149.8,267.9,149.8,267.9z M149.8,267.9c0,0-4.2,11.1-4.2,17.9c0,8.1,4.2,20.2,4.2,20.2s4.2-10.2,4.2-20.2
				C154.1,278.8,149.8,267.9,149.8,267.9z M149.8,267.9c0,0-4.2,11.1-4.2,17.9c0,8.1,4.2,20.2,4.2,20.2s4.2-10.2,4.2-20.2
				C154.1,278.8,149.8,267.9,149.8,267.9z M149.8,267.9c0,0-4.2,11.1-4.2,17.9c0,8.1,4.2,20.2,4.2,20.2s4.2-10.2,4.2-20.2
				C154.1,278.8,149.8,267.9,149.8,267.9z M149.8,267.9c0,0-4.2,11.1-4.2,17.9c0,8.1,4.2,20.2,4.2,20.2s4.2-10.2,4.2-20.2
				C154.1,278.8,149.8,267.9,149.8,267.9z M149.8,267.9c0,0-4.2,11.1-4.2,17.9c0,8.1,4.2,20.2,4.2,20.2s4.2-10.2,4.2-20.2
				C154.1,278.8,149.8,267.9,149.8,267.9z M149.8,267.9c0,0-4.2,11.1-4.2,17.9c0,8.1,4.2,20.2,4.2,20.2s4.2-10.2,4.2-20.2
				C154.1,278.8,149.8,267.9,149.8,267.9z M149.8,267.9c0,0-4.2,11.1-4.2,17.9c0,8.1,4.2,20.2,4.2,20.2s4.2-10.2,4.2-20.2
				C154.1,278.8,149.8,267.9,149.8,267.9z M149.8,267.9c0,0-4.2,11.1-4.2,17.9c0,8.1,4.2,20.2,4.2,20.2s4.2-10.2,4.2-20.2
				C154.1,278.8,149.8,267.9,149.8,267.9z M149.8,267.9c0,0-4.2,11.1-4.2,17.9c0,8.1,4.2,20.2,4.2,20.2s4.2-10.2,4.2-20.2
				C154.1,278.8,149.8,267.9,149.8,267.9z M149.8,267.9c0,0-4.2,11.1-4.2,17.9c0,8.1,4.2,20.2,4.2,20.2s4.2-10.2,4.2-20.2
				C154.1,278.8,149.8,267.9,149.8,267.9z M149.8,267.9c0,0-4.2,11.1-4.2,17.9c0,8.1,4.2,20.2,4.2,20.2s4.2-10.2,4.2-20.2
				C154.1,278.8,149.8,267.9,149.8,267.9z M149.8,267.9c0,0-4.2,11.1-4.2,17.9c0,8.1,4.2,20.2,4.2,20.2s4.2-10.2,4.2-20.2
				C154.1,278.8,149.8,267.9,149.8,267.9z M149.8,267.9c0,0-4.2,11.1-4.2,17.9c0,8.1,4.2,20.2,4.2,20.2s4.2-10.2,4.2-20.2
				C154.1,278.8,149.8,267.9,149.8,267.9z M149.8,267.9c0,0-4.2,11.1-4.2,17.9c0,8.1,4.2,20.2,4.2,20.2s4.2-10.2,4.2-20.2
				C154.1,278.8,149.8,267.9,149.8,267.9z M149.8,267.9c0,0-4.2,11.1-4.2,17.9c0,8.1,4.2,20.2,4.2,20.2s4.2-10.2,4.2-20.2
				C154.1,278.8,149.8,267.9,149.8,267.9z M149.8,267.9c0,0-4.2,11.1-4.2,17.9c0,8.1,4.2,20.2,4.2,20.2s4.2-10.2,4.2-20.2
				C154.1,278.8,149.8,267.9,149.8,267.9z M149.8,267.9c0,0-4.2,11.1-4.2,17.9c0,8.1,4.2,20.2,4.2,20.2s4.2-10.2,4.2-20.2
				C154.1,278.8,149.8,267.9,149.8,267.9z M149.8,267.9c0,0-4.2,11.1-4.2,17.9c0,8.1,4.2,20.2,4.2,20.2s4.2-10.2,4.2-20.2
				C154.1,278.8,149.8,267.9,149.8,267.9z M149.8,267.9c0,0-4.2,11.1-4.2,17.9c0,8.1,4.2,20.2,4.2,20.2s4.2-10.2,4.2-20.2
				C154.1,278.8,149.8,267.9,149.8,267.9z M149.8,267.9c0,0-4.2,11.1-4.2,17.9c0,8.1,4.2,20.2,4.2,20.2s4.2-10.2,4.2-20.2
				C154.1,278.8,149.8,267.9,149.8,267.9z M149.8,267.9c0,0-4.2,11.1-4.2,17.9c0,8.1,4.2,20.2,4.2,20.2s4.2-10.2,4.2-20.2
				C154.1,278.8,149.8,267.9,149.8,267.9z M149.8,267.9c0,0-4.2,11.1-4.2,17.9c0,8.1,4.2,20.2,4.2,20.2s4.2-10.2,4.2-20.2
				C154.1,278.8,149.8,267.9,149.8,267.9z M149.8,267.9c0,0-4.2,11.1-4.2,17.9c0,8.1,4.2,20.2,4.2,20.2s4.2-10.2,4.2-20.2
				C154.1,278.8,149.8,267.9,149.8,267.9z M435.6,180.9l0.2-1.7v0c0.5-4.7,1.8-10.3,4.1-16.8c7.4-20.6,16-59-2.6-129.8
				c-5.5-21-37.2-53-86.3,8.3c-20.6,25.8-51.4,84.3-58.3,118.5c0,0.1,0,0.1,0,0.2c0,0-0.2,0.1-0.7,0.3h0c-1.8,0.9-6.6,4.1-5.8,12.3
				c0,0.3,0.1,0.7,0.1,1.1c0,0-0.3,0-0.8,0.1h0c-1.6,0.2-5.2,1.4-5.3,7c0,0,0,0,0,0c0,0.8,0,1.6,0.2,2.6c0,0-0.5-0.6-1.2-1.4l0,0
				c-1.5-1.6-4.3-3.9-6.2-2.4c-0.3,0.2-0.6,0.6-0.9,1.1c0,0-0.2-0.2-0.5-0.6c-1.2-1.2-4.5-3.9-8.1-1.8c-0.4,0.2-0.8,0.5-1.2,0.9
				c0,0-0.6-0.8-1.5-1.7c-1.6-1.6-4.1-3.6-6.2-2.3c-0.2,0.1-0.4,0.3-0.6,0.5c0,0-0.1-0.2-0.4-0.4c0.1,1.1,0.1,2.2,0.1,3.4
				c0,1.3,0,2.7-0.1,4c-0.1,2.7-0.4,5.4-0.7,8.1c-0.7,5.3-1.8,10.6-3.4,15.8c-1.6,5.1-3.6,10.1-6.2,14.8c-0.6,1.2-1.3,2.3-2,3.5
				c-0.8,1.1-1.5,2.2-2.3,3.3l-1.2,1.6c-0.4,0.5-0.8,1.1-1.2,1.6c-0.8,1.1-1.6,2.1-2.3,3.4l-0.1,0.2c-0.1,0.3-0.3,0.7-0.5,1.1
				c-0.2,0.3-0.4,0.7-0.6,1c-0.5,0.7-1,1.2-1.6,1.8c-1.2,1-2.7,1.6-4.3,1.6s-3.1-0.6-4.3-1.6c-0.6-0.5-1.1-1.1-1.6-1.8
				c-0.2-0.3-0.5-0.7-0.6-1c-0.2-0.3-0.4-0.7-0.5-1.1l-0.1-0.2c-0.7-1.2-1.5-2.2-2.3-3.4c-0.4-0.5-0.8-1.1-1.2-1.6l-1.2-1.6
				c-0.8-1.1-1.5-2.2-2.3-3.3c-0.7-1.2-1.4-2.3-2-3.5c-2.6-4.7-4.7-9.7-6.2-14.8c-1.6-5.1-2.7-10.4-3.4-15.8
				c-0.3-2.7-0.6-5.4-0.7-8.1c-0.1-1.3-0.1-2.7-0.1-4c0-1.1,0-2.3,0.1-3.4c-0.3,0.3-0.4,0.4-0.4,0.4c-0.2-0.2-0.4-0.4-0.6-0.5
				c-2.1-1.3-4.7,0.7-6.2,2.3c-0.9,0.9-1.5,1.7-1.5,1.7c-0.4-0.4-0.8-0.7-1.2-0.9c-3.6-2.1-6.8,0.5-8.1,1.8
				c-0.3,0.3-0.5,0.6-0.5,0.6c-0.3-0.5-0.6-0.9-0.9-1.1c-1.9-1.5-4.6,0.7-6.2,2.4l0,0c-0.7,0.8-1.2,1.4-1.2,1.4
				c0.1-1,0.2-1.8,0.2-2.6c0,0,0,0,0,0c-0.1-5.7-3.7-6.8-5.3-7h0c-0.5-0.1-0.8-0.1-0.8-0.1c0.1-0.4,0.1-0.7,0.1-1.1
				c0.8-8.2-4-11.4-5.8-12.3h0c-0.4-0.2-0.7-0.3-0.7-0.3c0-0.1,0-0.1,0-0.2C154.4,125.3,123.6,66.8,103,41
				c-49.1-61.4-80.8-29.3-86.3-8.3c-18.6,70.8-10,109.2-2.6,129.8c2.3,6.5,3.5,12.1,4.1,16.8v0l0.2,1.7v0c0.8,9.1-0.9,14.2-0.9,14.2
				c-6.9,21.3-0.8,30.7,6.7,36.2c14.8,10.8,14,22.8,14,22.8c-1.7,22.9,17.2,32.4,24.7,35.3c1.9,0.7,3,1,3,1c0,0.9,0.1,1.7,0.3,2.5
				c0,0,0,0,0,0c1,3.8,4.2,6.1,6.3,7.3c1,0.6,1.8,0.9,2,1c0,0,0.1,0,0.1,0c-2.1,11.7,8.6,15,8.6,15s2.3,1,3.7,2.8
				c0.5,0.8,1,1.7,1,2.7c0,0,0,0,0,0c0,0.3,0,0.6,0,0.9c-0.7,5.6,3.6,15.6,7.9,18.9c3.2,2.4,10.1,14.4,11.9,18.8
				c3.7,9.1,19.3,28.5,27.5,36.3c2.9,2.7,7.9,7.2,13,11.8c2.5,2.2,5,4.5,7.3,6.6c5.3,4.8,9.5,8.8,9.8,9.6c0.6,1.5,3.4,6.8,7.7,8
				c2.9,0.8,7.5,3.1,9.7,4.7c18,13.3,44.2,12.7,44.2,12.7s26.1,0.6,44.2-12.7c2.2-1.6,6.8-3.9,9.7-4.7c4.2-1.2,7.1-6.5,7.7-8
				c0.3-0.8,4.5-4.8,9.8-9.6c2.3-2.1,4.8-4.3,7.3-6.6c5.1-4.6,10.2-9.1,13-11.8c8.2-7.8,23.8-27.3,27.5-36.3
				c1.8-4.4,8.7-16.3,11.9-18.8c4.3-3.3,8.7-13.3,7.9-18.9c0-0.3,0-0.6,0-0.9c0,0,0,0,0,0c0.1-1.1,0.5-2,1-2.7
				c1.4-1.9,3.7-2.8,3.7-2.8s10.8-3.3,8.6-15c0,0,0,0,0.1,0c0.2-0.1,1-0.4,2-1c2.2-1.2,5.3-3.5,6.3-7.3c0,0,0,0,0,0
				c0.2-0.8,0.3-1.6,0.3-2.5c0,0,1.2-0.3,3-1c7.5-2.9,26.5-12.5,24.7-35.3c0,0-0.8-12,14-22.8c7.4-5.4,13.5-14.9,6.7-36.2
				C436.5,195.2,434.8,190.1,435.6,180.9L435.6,180.9z M123,288c0,1.1,0.2,2.1,0.3,3.1c0.1,0.9,0.3,1.8,0.5,2.7
				c-0.8-1.2-1.5-2.5-2.3-3.8c-0.7-1.3-1.4-2.7-2-4l1.1-2.2c0.5-1,1-1.9,1.5-2.8c0.5-0.9,1.1-1.8,1.6-2.7c0-0.1,0.1-0.2,0.2-0.2
				c0,0.2-0.1,0.4-0.1,0.6c-0.1,1-0.4,2-0.5,3.1c0,0.5-0.1,1.1-0.2,1.6c0,0.5,0,1.1-0.1,1.6C122.9,285.8,123,286.9,123,288z
				 M125.7,296c-0.1-0.4-0.2-0.8-0.3-1.2c-0.1-0.4-0.2-0.8-0.2-1.3c-0.2-0.9-0.4-1.8-0.4-2.7c-0.1-1-0.2-2-0.2-3c0-1,0-2,0-3.1
				c0-0.5,0-1,0.1-1.5s0.1-1,0.2-1.5c0.1-1,0.4-2,0.5-2.9c0.2-0.9,0.4-1.8,0.7-2.7c0.2-0.8,0.5-1.6,0.8-2.4c0.1-0.2,0.2-0.5,0.3-0.7
				c0,0,0.1-0.1,0.1-0.1c0.7-0.8,1.3-1.6,2-2.4s1.4-1.5,2.1-2.2c0.4-0.3,0.7-0.7,1.1-1l1.2-1c1.6-1.2,3.2-2.4,5.1-3.3
				c1.8-0.9,3.6-1.6,5.6-2c3.9-0.8,7.9-0.7,11.8,0.3c3.9,1,7.6,2.9,11,5.3c0.8,0.6,1.6,1.2,2.4,1.9c0.6,0.5,1.2,1,1.8,1.6
				c0.4,0.8,0.9,1.8,1.3,2.8c0.9,2,1.9,4.3,2.6,6.9c0.2,0.6,0.3,1.3,0.5,2c0.1,0.3,0.1,0.7,0.2,1l0.1,1c0.2,1.4,0.3,2.8,0.2,4.3
				c0,2.8-0.4,5.7-1.2,8.3s-1.9,4.8-3.1,6.6c-0.7,1.1-1.4,2-2.1,2.8c-0.5,0.3-1.1,0.7-1.7,1c-3.1,1.7-6.3,3-9.6,3.8
				c-1.7,0.4-3.4,0.6-5,0.8c-0.8,0.1-1.7,0.1-2.5,0.1c-0.9,0-1.6,0-2.5-0.1l-1.3-0.1c-0.3,0-0.8-0.1-1.2-0.2
				c-0.8-0.1-1.6-0.4-2.4-0.6c-1.6-0.5-3.1-1.1-4.6-1.9s-2.9-1.7-4.3-2.7c-1.4-1-2.6-2.2-3.8-3.4c-1.7-1.8-3.4-3.7-4.8-5.7
				C125.8,296.5,125.8,296.3,125.7,296z M277.3,297.1c0.9,2.6,2.1,4.8,3.4,6.6c-1.3-0.8-2.6-1.7-3.9-2.5c-1.5-1-3.1-1.9-4.8-2.7
				c-1.3-0.6-2.8-1.1-4.3-1.3c0.5-1.7,1-3.4,1.6-5c0.7-2,1.6-4,2.5-5.9c0.9-1.9,1.9-3.8,3-5.6c0.5-0.9,1.1-1.8,1.7-2.7
				c0.6-0.9,1.2-1.7,1.8-2.6c0,0,0.1-0.1,0.1-0.1c0,0.1-0.1,0.2-0.1,0.3c-0.5,1.2-1,2.5-1.3,3.9c-0.2,0.7-0.3,1.4-0.5,2.1
				c-0.1,0.4-0.1,0.7-0.2,1.1c0,0.4-0.1,0.7-0.1,1.1c-0.2,1.5-0.2,3-0.2,4.5C275.9,291.3,276.4,294.4,277.3,297.1z M177.9,283.8
				c0-0.4-0.1-0.7-0.1-1.1c-0.1-0.4-0.1-0.7-0.2-1.1c-0.1-0.7-0.3-1.5-0.5-2.1c-0.3-1.4-0.8-2.7-1.3-3.9c0-0.1-0.1-0.2-0.1-0.3
				c0,0,0.1,0.1,0.1,0.1c0.6,0.9,1.2,1.7,1.8,2.6c0.6,0.9,1.2,1.8,1.7,2.7c1.1,1.8,2,3.7,3,5.6c0.9,1.9,1.7,3.9,2.5,5.9
				c0.6,1.6,1.1,3.3,1.6,5c-1.5,0.2-3,0.7-4.3,1.3c-1.7,0.8-3.3,1.8-4.8,2.7c-1.3,0.8-2.6,1.7-3.9,2.5c1.3-1.8,2.5-4.1,3.4-6.6
				c0.9-2.7,1.4-5.7,1.5-8.8C178.2,286.8,178.1,285.2,177.9,283.8z M305.5,311.3c-0.9,0.1-1.7,0.1-2.5,0.1c-0.9,0-1.7,0-2.5-0.1
				c-1.7-0.1-3.4-0.3-5-0.8c-3.3-0.8-6.5-2.1-9.6-3.8c-0.6-0.3-1.1-0.6-1.7-1c-0.7-0.8-1.4-1.7-2.1-2.8c-1.2-1.8-2.3-4-3.1-6.6
				s-1.2-5.4-1.2-8.3c0-1.4,0.1-2.9,0.2-4.3l0.1-1c0.1-0.3,0.1-0.7,0.2-1c0.1-0.7,0.3-1.3,0.5-2c0.7-2.6,1.7-4.9,2.6-6.9
				c0.5-1.1,0.9-2,1.3-2.8c0.6-0.6,1.2-1.1,1.8-1.6c0.8-0.7,1.6-1.3,2.4-1.9c3.3-2.4,7-4.3,11-5.3c3.9-1,8-1.2,11.8-0.3
				c1.9,0.4,3.8,1.1,5.6,2c1.8,0.9,3.5,2,5.1,3.3l1.2,1c0.4,0.3,0.8,0.7,1.1,1c0.8,0.7,1.4,1.5,2.1,2.2s1.3,1.6,2,2.4
				c0,0,0.1,0.1,0.1,0.1c0.1,0.2,0.2,0.5,0.3,0.7c0.3,0.7,0.5,1.5,0.8,2.4c0.3,0.8,0.5,1.8,0.7,2.7c0.2,0.9,0.4,1.9,0.5,2.9
				c0.1,0.5,0.1,1,0.2,1.5s0.1,1,0.1,1.5c0.1,1,0.1,2.1,0,3.1c0,1-0.1,2-0.2,3c-0.1,1-0.3,1.9-0.4,2.7c-0.1,0.4-0.1,0.9-0.2,1.3
				c-0.1,0.4-0.2,0.8-0.3,1.2c-0.1,0.3-0.2,0.5-0.2,0.8c-1.5,2-3.1,3.9-4.8,5.7c-1.2,1.2-2.5,2.3-3.8,3.4c-1.4,1-2.8,2-4.3,2.7
				s-3,1.4-4.6,1.9c-0.8,0.2-1.6,0.5-2.4,0.6c-0.4,0.1-0.9,0.1-1.2,0.2L305.5,311.3z M330.3,278.1c0.5,0.9,1.1,1.8,1.6,2.7
				c0.5,0.9,1,1.9,1.5,2.8l1.1,2.2c-0.6,1.3-1.3,2.7-2,4c-0.7,1.3-1.5,2.5-2.3,3.8c0.2-0.9,0.4-1.8,0.5-2.7c0.1-1,0.3-2,0.3-3.1
				c0.1-1.1,0.1-2.1,0-3.2c0-0.5,0-1.1-0.1-1.6c-0.1-0.5-0.1-1-0.2-1.6c-0.1-1-0.3-2.1-0.5-3.1c0-0.2-0.1-0.4-0.1-0.6
				C330.2,278,330.3,278.1,330.3,278.1z M154.1,285.8c0-7.1-4.2-17.9-4.2-17.9s-4.2,11.1-4.2,17.9c0,8.1,4.2,20.2,4.2,20.2
				S154.1,295.8,154.1,285.8z M149.8,267.9c0,0-4.2,11.1-4.2,17.9c0,8.1,4.2,20.2,4.2,20.2s4.2-10.2,4.2-20.2
				C154.1,278.8,149.8,267.9,149.8,267.9z M149.8,267.9c0,0-4.2,11.1-4.2,17.9c0,8.1,4.2,20.2,4.2,20.2s4.2-10.2,4.2-20.2
				C154.1,278.8,149.8,267.9,149.8,267.9z M149.8,267.9c0,0-4.2,11.1-4.2,17.9c0,8.1,4.2,20.2,4.2,20.2s4.2-10.2,4.2-20.2
				C154.1,278.8,149.8,267.9,149.8,267.9z M149.8,267.9c0,0-4.2,11.1-4.2,17.9c0,8.1,4.2,20.2,4.2,20.2s4.2-10.2,4.2-20.2
				C154.1,278.8,149.8,267.9,149.8,267.9z M149.8,267.9c0,0-4.2,11.1-4.2,17.9c0,8.1,4.2,20.2,4.2,20.2s4.2-10.2,4.2-20.2
				C154.1,278.8,149.8,267.9,149.8,267.9z M149.8,267.9c0,0-4.2,11.1-4.2,17.9c0,8.1,4.2,20.2,4.2,20.2s4.2-10.2,4.2-20.2
				C154.1,278.8,149.8,267.9,149.8,267.9z M149.8,267.9c0,0-4.2,11.1-4.2,17.9c0,8.1,4.2,20.2,4.2,20.2s4.2-10.2,4.2-20.2
				C154.1,278.8,149.8,267.9,149.8,267.9z M149.8,267.9c0,0-4.2,11.1-4.2,17.9c0,8.1,4.2,20.2,4.2,20.2s4.2-10.2,4.2-20.2
				C154.1,278.8,149.8,267.9,149.8,267.9z M149.8,267.9c0,0-4.2,11.1-4.2,17.9c0,8.1,4.2,20.2,4.2,20.2s4.2-10.2,4.2-20.2
				C154.1,278.8,149.8,267.9,149.8,267.9z M149.8,267.9c0,0-4.2,11.1-4.2,17.9c0,8.1,4.2,20.2,4.2,20.2s4.2-10.2,4.2-20.2
				C154.1,278.8,149.8,267.9,149.8,267.9z M149.8,267.9c0,0-4.2,11.1-4.2,17.9c0,8.1,4.2,20.2,4.2,20.2s4.2-10.2,4.2-20.2
				C154.1,278.8,149.8,267.9,149.8,267.9z M149.8,267.9c0,0-4.2,11.1-4.2,17.9c0,8.1,4.2,20.2,4.2,20.2s4.2-10.2,4.2-20.2
				C154.1,278.8,149.8,267.9,149.8,267.9z M149.8,267.9c0,0-4.2,11.1-4.2,17.9c0,8.1,4.2,20.2,4.2,20.2s4.2-10.2,4.2-20.2
				C154.1,278.8,149.8,267.9,149.8,267.9z M149.8,267.9c0,0-4.2,11.1-4.2,17.9c0,8.1,4.2,20.2,4.2,20.2s4.2-10.2,4.2-20.2
				C154.1,278.8,149.8,267.9,149.8,267.9z M149.8,267.9c0,0-4.2,11.1-4.2,17.9c0,8.1,4.2,20.2,4.2,20.2s4.2-10.2,4.2-20.2
				C154.1,278.8,149.8,267.9,149.8,267.9z M149.8,267.9c0,0-4.2,11.1-4.2,17.9c0,8.1,4.2,20.2,4.2,20.2s4.2-10.2,4.2-20.2
				C154.1,278.8,149.8,267.9,149.8,267.9z M149.8,267.9c0,0-4.2,11.1-4.2,17.9c0,8.1,4.2,20.2,4.2,20.2s4.2-10.2,4.2-20.2
				C154.1,278.8,149.8,267.9,149.8,267.9z M149.8,267.9c0,0-4.2,11.1-4.2,17.9c0,8.1,4.2,20.2,4.2,20.2s4.2-10.2,4.2-20.2
				C154.1,278.8,149.8,267.9,149.8,267.9z M149.8,267.9c0,0-4.2,11.1-4.2,17.9c0,8.1,4.2,20.2,4.2,20.2s4.2-10.2,4.2-20.2
				C154.1,278.8,149.8,267.9,149.8,267.9z M149.8,267.9c0,0-4.2,11.1-4.2,17.9c0,8.1,4.2,20.2,4.2,20.2s4.2-10.2,4.2-20.2
				C154.1,278.8,149.8,267.9,149.8,267.9z M149.8,267.9c0,0-4.2,11.1-4.2,17.9c0,8.1,4.2,20.2,4.2,20.2s4.2-10.2,4.2-20.2
				C154.1,278.8,149.8,267.9,149.8,267.9z M149.8,267.9c0,0-4.2,11.1-4.2,17.9c0,8.1,4.2,20.2,4.2,20.2s4.2-10.2,4.2-20.2
				C154.1,278.8,149.8,267.9,149.8,267.9z M149.8,267.9c0,0-4.2,11.1-4.2,17.9c0,8.1,4.2,20.2,4.2,20.2s4.2-10.2,4.2-20.2
				C154.1,278.8,149.8,267.9,149.8,267.9z M149.8,267.9c0,0-4.2,11.1-4.2,17.9c0,8.1,4.2,20.2,4.2,20.2s4.2-10.2,4.2-20.2
				C154.1,278.8,149.8,267.9,149.8,267.9z"/>
			<path class="st5" d="M253.5,178.2c0,1.3,0,2.7-0.1,4c-0.1,2.7-0.4,5.4-0.7,8.1c-0.7,5.3-1.8,10.6-3.4,15.8
				c-1.6,5.1-3.6,10.1-6.2,14.8c-0.6,1.2-1.3,2.3-2,3.5c-0.8,1.1-1.5,2.2-2.3,3.3l-1.2,1.6c-0.4,0.5-0.8,1.1-1.2,1.6
				c-0.8,1.1-1.6,2.1-2.3,3.4l-0.1,0.2c-0.1,0.3-0.3,0.7-0.5,1.1c-0.2,0.3-0.4,0.7-0.6,1c-0.5,0.7-1,1.2-1.6,1.8
				c-1.2,1-2.7,1.6-4.3,1.6s-3.1-0.6-4.3-1.6c-0.6-0.5-1.1-1.1-1.6-1.8c-0.2-0.3-0.5-0.7-0.6-1c-0.2-0.3-0.4-0.7-0.5-1.1l-0.1-0.2
				c-0.7-1.2-1.5-2.2-2.3-3.4c-0.4-0.5-0.8-1.1-1.2-1.6l-1.2-1.6c-0.8-1.1-1.5-2.2-2.3-3.3c-0.7-1.2-1.4-2.3-2-3.5
				c-2.6-4.7-4.7-9.7-6.2-14.8c-1.6-5.1-2.7-10.4-3.4-15.8c-0.3-2.7-0.6-5.4-0.7-8.1c-0.1-1.3-0.1-2.7-0.1-4c0-1.1,0-2.3,0.1-3.4
				c1.7-2,9.7-9.7,26.5-9.7s24.7,7.8,26.5,9.7C253.5,176,253.5,177.1,253.5,178.2z"/>
		</g>
	</g>
	<path class="st6" d="M188.7,297.8c-0.4-2.2-0.9-4.3-1.5-6.5c-0.6-2.1-1.4-4.2-2.2-6.3c-0.4-1-0.8-2.1-1.3-3c-0.5-1-1-2-1.5-3
		c-0.5-1-1.1-1.9-1.6-2.9c-0.6-1-1.2-1.9-1.8-2.8c-0.7-0.9-1.3-1.8-2-2.7l-1.1-1.3l-0.6-0.7l-0.6-0.6c-0.7-0.8-1.6-1.6-2.4-2.3
		c-0.9-0.8-1.7-1.5-2.6-2.2c-3.6-2.7-7.7-4.9-12.2-6.2c-2.2-0.6-4.5-1.1-6.9-1.1c-2.3-0.1-4.7,0.1-7,0.6c-2.3,0.5-4.5,1.3-6.6,2.4
		c-2.1,1-4,2.4-5.8,3.8l-1.3,1.1c-0.4,0.4-0.8,0.8-1.2,1.2c-0.8,0.8-1.6,1.7-2.3,2.5c-0.8,0.9-1.4,1.8-2.1,2.7
		c-0.6,0.9-1.3,1.8-1.9,2.8c-1.2,1.9-2.2,3.9-3.2,5.9c-0.5,1-1,2-1.4,3l-1.2,3.1l-0.3,0.7l0.2,0.6c0.7,1.8,1.4,3.5,2.3,5.1
		c0.8,1.6,1.7,3.3,2.7,4.8c2,3.1,4.2,6.1,6.9,8.8c1.3,1.3,2.7,2.6,4.3,3.7c1.5,1.1,3.1,2.2,4.8,3c1.7,0.9,3.5,1.6,5.4,2.1
		c0.9,0.2,1.9,0.5,2.8,0.6c0.5,0.1,0.9,0.2,1.5,0.2l1.3,0.1c0.9,0.1,1.9,0.1,2.9,0.1c0.9,0,1.9,0,2.8-0.1c1.9-0.2,3.8-0.5,5.6-1
		c3.7-1,7.1-2.6,10.3-4.5c3.2-1.9,6.1-4.1,9-6.2c1.4-1,2.9-2,4.4-2.8c1.5-0.8,3.1-1.4,4.7-1.5l1.1-0.1L188.7,297.8z M123,288
		c0,1.1,0.2,2.1,0.3,3.1c0.1,0.9,0.3,1.8,0.5,2.7c-0.8-1.2-1.5-2.5-2.3-3.8c-0.7-1.3-1.4-2.7-2-4l1.1-2.2c0.5-1,1-1.9,1.5-2.8
		c0.5-0.9,1.1-1.8,1.6-2.7c0-0.1,0.1-0.2,0.2-0.2c0,0.2-0.1,0.4-0.1,0.6c-0.1,1-0.4,2-0.5,3.1c0,0.5-0.1,1.1-0.2,1.6
		c0,0.5,0,1.1-0.1,1.6C122.9,285.8,123,286.9,123,288z M169.8,305.9c-0.5,0.3-1.1,0.7-1.7,1c-3.1,1.7-6.3,3-9.6,3.8
		c-1.7,0.4-3.4,0.6-5,0.8c-0.8,0.1-1.7,0.1-2.5,0.1c-0.9,0-1.6,0-2.5-0.1l-1.3-0.1c-0.3,0-0.8-0.1-1.2-0.2c-0.8-0.1-1.6-0.4-2.4-0.6
		c-1.6-0.5-3.1-1.1-4.6-1.9s-2.9-1.7-4.3-2.7c-1.4-1-2.6-2.2-3.8-3.4c-1.7-1.8-3.4-3.7-4.8-5.7c-0.1-0.3-0.1-0.5-0.2-0.8
		c-0.1-0.4-0.2-0.8-0.3-1.2c-0.1-0.4-0.2-0.8-0.2-1.3c-0.2-0.9-0.4-1.8-0.4-2.7c-0.1-1-0.2-2-0.2-3c0-1,0-2,0-3.1c0-0.5,0-1,0.1-1.5
		s0.1-1,0.2-1.5c0.1-1,0.4-2,0.5-2.9c0.2-0.9,0.4-1.8,0.7-2.7c0.2-0.8,0.5-1.6,0.8-2.4c0.1-0.2,0.2-0.5,0.3-0.7c0,0,0.1-0.1,0.1-0.1
		c0.7-0.8,1.3-1.6,2-2.4s1.4-1.5,2.1-2.2c0.4-0.3,0.7-0.7,1.1-1l1.2-1c1.6-1.2,3.2-2.4,5.1-3.3c1.8-0.9,3.6-1.6,5.6-2
		c3.9-0.8,7.9-0.7,11.8,0.3c3.9,1,7.6,2.9,11,5.3c0.8,0.6,1.6,1.2,2.4,1.9c0.6,0.5,1.2,1,1.8,1.6c0.4,0.8,0.9,1.8,1.3,2.8
		c0.9,2,1.9,4.3,2.6,6.9c0.2,0.6,0.3,1.3,0.5,2c0.1,0.3,0.1,0.7,0.2,1l0.1,1c0.2,1.4,0.3,2.8,0.2,4.3c0,2.8-0.4,5.7-1.2,8.3
		s-1.9,4.8-3.1,6.6C171.2,304.2,170.5,305.1,169.8,305.9z M182,298.5c-1.7,0.8-3.3,1.8-4.8,2.7c-1.3,0.8-2.6,1.7-3.9,2.5
		c1.3-1.8,2.5-4.1,3.4-6.6c0.9-2.7,1.4-5.7,1.5-8.8c0-1.5-0.1-3-0.2-4.5c0-0.4-0.1-0.7-0.1-1.1c-0.1-0.4-0.1-0.7-0.2-1.1
		c-0.1-0.7-0.3-1.5-0.5-2.1c-0.3-1.4-0.8-2.7-1.3-3.9c0-0.1-0.1-0.2-0.1-0.3c0,0,0.1,0.1,0.1,0.1c0.6,0.9,1.2,1.7,1.8,2.6
		c0.6,0.9,1.2,1.8,1.7,2.7c1.1,1.8,2,3.7,3,5.6c0.9,1.9,1.7,3.9,2.5,5.9c0.6,1.6,1.1,3.3,1.6,5C184.8,297.3,183.3,297.8,182,298.5z"
		/>
	<path class="st6" d="M172.1,240.8l-1-0.5l-2.1-1c-0.7-0.3-1.4-0.5-2.1-0.8c-0.7-0.2-1.4-0.5-2.1-0.7c-0.7-0.2-1.5-0.4-2.2-0.5
		l-1.1-0.3l-1.1-0.2c-0.7-0.1-1.5-0.2-2.2-0.3c-0.7-0.1-1.5-0.1-2.2-0.2c-1.4-0.1-2.9-0.1-4.3,0c-0.7,0-1.4,0.1-2.1,0.1
		c-0.7,0.1-1.4,0.1-2,0.2c-1.3,0.2-2.6,0.4-3.9,0.8c-2.5,0.6-4.8,1.4-6.8,2.4c-2,0.9-3.8,2-5.3,3c-1.5,1-2.7,2-3.7,2.9
		c-1,0.8-1.7,1.6-2.2,2.1c-0.5,0.5-0.7,0.8-0.7,0.8s1.1-1,3.2-2.5c2.1-1.5,5.2-3.5,9.2-5.2c2-0.9,4.2-1.7,6.7-2.2
		c1.2-0.3,2.5-0.5,3.8-0.7c0.7-0.1,1.3-0.1,2-0.2c0.7-0.1,1.4-0.1,2-0.1c1.3,0,2.7,0,4.1,0.2c0.7,0.1,1.4,0.1,2.1,0.2
		c0.7,0.1,1.4,0.3,2.1,0.4l1,0.2l1,0.3c0.7,0.2,1.4,0.4,2.1,0.6c0.7,0.2,1.3,0.5,2,0.8c0.7,0.3,1.3,0.5,2,0.8l1.9,1l0.9,0.5l0.9,0.6
		c1.2,0.8,2.4,1.5,3.4,2.5c0.5,0.4,1.1,0.9,1.6,1.3c0.5,0.5,1,1,1.5,1.5c0.5,0.5,1,1,1.4,1.5c0.4,0.5,0.8,1.1,1.3,1.6
		c0.4,0.5,0.8,1,1.2,1.6c0.4,0.5,0.7,1.1,1.1,1.6c0.3,0.5,0.7,1.1,1,1.6c0.3,0.5,0.7,1.1,0.9,1.6c0.6,1.1,1.1,2.2,1.6,3.2
		c0.3,0.5,0.5,1.1,0.7,1.6c0.2,0.5,0.4,1,0.6,1.5c0.4,1,0.9,1.9,1.1,2.9c0.3,0.9,0.6,1.8,0.8,2.7c0.3,0.8,0.5,1.6,0.7,2.4
		c0.2,0.7,0.3,1.4,0.5,2.1c0.6,2.5,1,3.9,1,3.9l0,0c0.1,0.3,0.3,0.4,0.6,0.4c0.2-0.1,0.4-0.3,0.4-0.5c0,0-0.2-1.5-0.5-4
		c-0.1-0.6-0.2-1.4-0.3-2.1c-0.1-0.8-0.4-1.6-0.6-2.5c-0.2-0.9-0.5-1.8-0.7-2.8c-0.2-1-0.7-2-1-3.1c-0.4-1.1-0.7-2.2-1.2-3.3
		c-0.5-1.1-1.1-2.2-1.6-3.4c-0.3-0.6-0.6-1.2-1-1.7c-0.4-0.6-0.7-1.1-1.1-1.7c-0.4-0.6-0.7-1.2-1.1-1.7c-0.4-0.5-0.9-1.1-1.3-1.7
		c-0.5-0.6-0.9-1.1-1.4-1.7c-0.5-0.5-1-1-1.5-1.5c-0.5-0.9-1.2-2-2.1-3.2c-1.2-1.6-2.6-3.3-4.3-5.1c-0.4-0.5-0.9-0.9-1.3-1.4
		c-0.5-0.4-0.9-0.9-1.4-1.3c-0.9-0.8-1.6-1.7-2.1-2.7c-0.5-1-0.5-2-0.2-3c0.4-1,1.1-2,1.8-2.9c0.8-0.9,1.6-1.8,2.3-2.7
		c0.7-0.9,1.3-1.8,1.8-2.7c1-1.7,1.8-3.1,2.3-4.1c0.5-1,0.8-1.6,0.8-1.6c0.1-0.2,0-0.5-0.2-0.7c-0.2-0.1-0.5,0-0.6,0.2l0,0
		c0,0-0.3,0.6-0.9,1.5c-0.6,1-1.4,2.3-2.5,3.9c-0.5,0.8-1.1,1.6-1.8,2.5c-0.7,0.8-1.5,1.6-2.3,2.5c-0.8,0.9-1.7,2-2.3,3.3
		c-0.2,0.7-0.4,1.5-0.4,2.2c0,0.4,0,0.8,0.2,1.1c0.1,0.4,0.2,0.7,0.4,1.1c0.6,1.4,1.5,2.5,2.5,3.4c0.5,0.5,0.9,0.9,1.4,1.3
		c0.4,0.4,0.8,0.8,1.2,1.3c0.6,0.6,1.1,1.2,1.6,1.8c-0.2-0.2-0.5-0.3-0.7-0.5L172.1,240.8z"/>
	<path class="st6" d="M150.1,391.6c-0.2,1.6-0.2,3.1-0.3,4.6c0,0.8,0,1.5,0,2.2c0.1,0.7,0.1,1.5,0.2,2.2c0.3,2.8,0.9,5.4,1.7,7.5
		c0.2,0.5,0.4,1,0.6,1.5c0.2,0.5,0.4,0.9,0.6,1.3c0.4,0.8,0.9,1.5,1.2,2c0.8,1,1.2,1.6,1.2,1.6l0.1,0.1c0,0,0,0.1,0.1,0.1
		c0.1,0.1,0.1,0.3,0.2,0.4c-2.3-2.1-4.8-4.3-7.3-6.6c-0.6-2.3-1.1-5-1.2-7.8c0-0.8,0-1.6,0-2.4c0-0.8,0.1-1.6,0.1-2.4
		c0.1-1.6,0.3-3.2,0.6-4.8c1.1-6.4,3.3-12.4,5.3-16.8c2-4.4,3.6-7.1,3.6-7.1c0.1-0.1,0.2-0.2,0.4-0.1c0.1,0.1,0.2,0.2,0.1,0.4
		c0,0-1.5,2.8-3.1,7.2C152.5,379.4,150.7,385.5,150.1,391.6z"/>
	<path class="st6" d="M283.3,210.7L283.3,210.7c0,0.2,0,0.3-0.2,0.4c-0.1,0-0.3,0-0.3-0.2c0,0-0.2-0.6-1-1.4c-0.8-0.8-2.1-1.9-3.7-3
		c-1.7-1.1-3.7-2.3-5.8-3.6c-1.1-0.6-2.2-1.4-3.3-2.3c-1-0.9-2-1.9-2.9-3c-1.7-2.2-2.9-4.7-3.7-7.2c0,0,0,0,0,0
		c-0.1,0.2-0.2,0.3-0.3,0.5c-0.1,0.2-0.1,0.4-0.2,0.6c-0.1,0.2-0.1,0.5-0.2,0.7s-0.1,0.5-0.1,0.8c0,0.3,0,0.6,0,0.8
		c0,0.3,0,0.6,0.1,0.9c0,0.3,0.1,0.5,0.1,0.8c0.1,0.1,0.1,0.3,0.1,0.4c0,0,0,0.1,0,0.1c0,0,0,0,0,0.1c0,0.2,0.1,0.3,0.1,0.5
		c0.2,0.6,0.4,1.3,0.6,2c0.3,0.6,0.5,1.3,0.8,1.9c0.3,0.6,0.6,1.2,0.9,1.8c0.3,0.6,0.7,1.1,1,1.7c0.3,0.5,0.6,1,0.9,1.5
		c1.2,1.8,2.1,2.9,2.1,2.9c0.1,0.2,0.1,0.4-0.1,0.5c-0.2,0.1-0.3,0.1-0.5-0.1c0,0-0.9-1.1-2.3-2.8c-0.3-0.4-0.7-0.9-1-1.4
		c-0.4-0.5-0.8-1-1.1-1.6c-0.4-0.6-0.8-1.2-1.1-1.8c-0.3-0.5-0.5-1-0.8-1.5c-0.1,0.3-0.1,0.6-0.2,1c-0.2,0.9-0.5,1.9-0.9,3
		c-0.4,1.1-0.8,2.2-1.4,3.4c-0.5,1.2-1.2,2.4-1.8,3.7c-0.7,1.2-1.4,2.5-2.3,3.8c-0.4,0.6-0.9,1.2-1.3,1.9l-0.6,0.9l-0.7,0.9
		c-0.9,1.2-1.8,2.4-2.9,3.5c-1,1.1-1.9,2.2-3,3.2c-1,1-2,2-2.9,2.9c-1,0.9-1.9,1.7-2.8,2.4c-0.4,0.4-0.8,0.7-1.2,1.1
		c-0.4,0.3-0.8,0.6-1.2,0.9c-0.6,0.5-1.1,0.9-1.6,1.2c-0.6,0.5-1.1,1-1.8,1.5c-0.1,0.4-0.3,0.7-0.5,1.1c-0.2,0.4-0.4,0.8-0.7,1.1
		c-0.5,0.7-1.1,1.4-1.8,1.9c-0.7,0.6-1.5,1-2.3,1.3c-0.8,0.3-1.7,0.5-2.6,0.5c-0.9,0-1.8-0.2-2.6-0.5c-0.8-0.3-1.6-0.8-2.3-1.3
		c-0.7-0.6-1.3-1.2-1.8-1.9c-0.2-0.4-0.5-0.7-0.7-1.1c-0.2-0.4-0.4-0.7-0.5-1.1c-0.6-0.5-1.2-1-1.8-1.5c-0.5-0.3-1-0.8-1.6-1.2
		c-0.4-0.3-0.8-0.6-1.2-0.9c-0.4-0.3-0.8-0.7-1.2-1.1c-0.9-0.7-1.8-1.5-2.8-2.4c-0.9-0.9-1.9-1.9-2.9-2.9c-1-1-2-2.1-3-3.2
		c-1-1.1-1.9-2.3-2.9-3.5l-0.7-0.9l-0.6-0.9c-0.4-0.6-0.9-1.2-1.3-1.9c-0.8-1.2-1.6-2.5-2.3-3.8c-0.7-1.3-1.3-2.5-1.8-3.7
		c-0.5-1.2-1-2.3-1.4-3.4c-0.4-1.1-0.7-2.1-0.9-3c-0.1-0.3-0.2-0.7-0.2-1c-0.3,0.5-0.5,1-0.8,1.5c-0.4,0.6-0.8,1.2-1.1,1.8
		c-0.3,0.6-0.8,1.1-1.1,1.6c-0.4,0.5-0.7,1-1,1.4c-1.4,1.7-2.3,2.8-2.3,2.8c-0.1,0.1-0.3,0.2-0.5,0.1c-0.2-0.1-0.2-0.3-0.1-0.5
		c0,0,0.8-1.2,2.1-2.9c0.3-0.4,0.6-0.9,0.9-1.5c0.3-0.5,0.7-1,1-1.7c0.3-0.6,0.6-1.2,0.9-1.8c0.3-0.6,0.5-1.3,0.8-1.9
		c0.2-0.7,0.4-1.3,0.6-2c0-0.2,0.1-0.3,0.1-0.5c0,0,0-0.1,0-0.1c0,0,0,0,0-0.1c0-0.2,0-0.3,0.1-0.4c0-0.3,0.1-0.5,0.1-0.8
		c0-0.3,0-0.6,0.1-0.9c0-0.3,0-0.6,0-0.8c0-0.3,0-0.5-0.1-0.8s-0.1-0.5-0.2-0.7c-0.1-0.2-0.2-0.4-0.2-0.6c-0.1-0.2-0.2-0.3-0.3-0.5
		c0,0,0,0,0,0c-0.8,2.5-2,5-3.7,7.2c-0.9,1.1-1.8,2.1-2.9,3c-1,0.9-2.2,1.6-3.3,2.3c-2.2,1.3-4.2,2.5-5.8,3.6
		c-1.6,1.1-2.9,2.1-3.7,3c-0.8,0.8-1,1.4-1,1.4c0,0.1-0.2,0.2-0.3,0.2c-0.1,0-0.2-0.2-0.2-0.3v0c0,0,0.2-0.7,1-1.7
		c0.8-0.9,2.1-2,3.7-3.3c1.6-1.2,3.6-2.5,5.7-3.9c1-0.7,2-1.4,3-2.3c0.9-0.9,1.8-1.9,2.5-2.9c1.5-2.1,2.5-4.5,3.1-6.8
		c0.6-2.3,0.9-4.6,1-6.5c0.1-1.9,0.1-3.6,0-4.7c0-0.3,0-0.5-0.1-0.7c0.4,0.2,1.8,0.1,2.7-0.8c0,0.3,0,0.8,0.1,1.4c0,1.2,0,3-0.2,5
		c-0.1,1.2-0.4,2.6-0.7,4c0.2,0.2,0.4,0.4,0.6,0.6c0.2,0.3,0.5,0.7,0.7,1.2c0.1,0.2,0.2,0.5,0.3,0.8c0.1,0.3,0.2,0.6,0.2,0.9
		c0.1,0.3,0.1,0.6,0.1,1c0.1,0.3,0.1,0.7,0.1,1c0,0.3,0,0.7-0.1,1c0,0.3-0.1,0.7-0.2,1.1c0,0.3-0.1,0.6-0.2,0.9c0,0,0,0.1,0,0.1v0
		c0,0,0,0.2,0,0.5c0,0.3,0.1,0.8,0.2,1.4c0.1,0.6,0.2,1.4,0.4,2.2c0.2,0.9,0.5,1.8,0.8,2.9c0.4,1,0.7,2.2,1.2,3.3
		c0.5,1.2,1.1,2.4,1.7,3.6c0.7,1.2,1.4,2.5,2.1,3.7c0.4,0.6,0.8,1.2,1.2,1.8l0.6,0.9l0.7,0.9c0.9,1.2,1.7,2.4,2.7,3.5
		c1,1.1,1.8,2.2,2.8,3.2c1,1,1.9,2,2.8,2.9c0.9,0.8,1.7,1.6,2.5,2.3c-0.1-0.2-0.2-0.3-0.4-0.5c-0.8-1.1-1.5-2.3-2.3-3.4
		c-0.7-1.2-1.4-2.3-2.1-3.6c-2.6-4.8-4.7-10-6.3-15.2c-1.5-5.3-2.5-10.7-3.1-16.1c-0.3-2.7-0.4-5.5-0.5-8.2c0-2.5,0-5,0.3-7.5
		c0.2,0.1,0.8,0.3,1,0.1c-0.1,1.1-0.1,2.2-0.1,3.4c0,1.3,0,2.7,0.1,4c0.1,2.7,0.4,5.4,0.7,8.1c0.7,5.3,1.8,10.6,3.4,15.8
		c1.6,5.1,3.6,10.1,6.2,14.8c0.6,1.2,1.3,2.3,2,3.5c0.8,1.1,1.5,2.2,2.3,3.3l1.2,1.6c0.4,0.5,0.8,1.1,1.2,1.6
		c0.8,1.1,1.6,2.1,2.3,3.4l0.1,0.2c0.1,0.3,0.3,0.7,0.5,1.1c0.2,0.3,0.4,0.7,0.6,1c0.5,0.7,1,1.2,1.6,1.8c1.2,1,2.7,1.6,4.3,1.6
		s3.1-0.6,4.3-1.6c0.6-0.5,1.1-1.1,1.6-1.8c0.2-0.3,0.5-0.7,0.6-1c0.2-0.3,0.4-0.7,0.5-1.1l0.1-0.2c0.7-1.2,1.5-2.2,2.3-3.4
		c0.4-0.5,0.8-1.1,1.2-1.6l1.2-1.6c0.8-1.1,1.5-2.2,2.3-3.3c0.7-1.2,1.4-2.3,2-3.5c2.6-4.7,4.7-9.7,6.2-14.8
		c1.6-5.1,2.7-10.4,3.4-15.8c0.3-2.7,0.6-5.4,0.7-8.1c0.1-1.3,0.1-2.7,0.1-4c0-1.1,0-2.3-0.1-3.4c0.3,0.3,0.8,0.1,1-0.1
		c0.2,2.5,0.3,5,0.3,7.5c0,2.7-0.2,5.5-0.5,8.2c-0.6,5.4-1.6,10.9-3.1,16.1c-1.6,5.3-3.6,10.4-6.3,15.2c-0.6,1.2-1.4,2.4-2.1,3.6
		c-0.8,1.1-1.5,2.3-2.3,3.4c-0.1,0.2-0.2,0.3-0.4,0.5c0.8-0.7,1.6-1.5,2.5-2.3c0.9-0.9,1.8-1.9,2.8-2.9c1-1,1.9-2.1,2.8-3.2
		c1-1.1,1.8-2.3,2.7-3.5l0.7-0.9l0.6-0.9c0.4-0.6,0.8-1.2,1.2-1.8c0.8-1.2,1.4-2.5,2.1-3.7c0.6-1.2,1.2-2.4,1.7-3.6
		c0.5-1.2,0.9-2.3,1.2-3.3c0.3-1,0.6-2,0.8-2.9c0.2-0.9,0.3-1.6,0.4-2.2c0.1-0.6,0.2-1.1,0.2-1.4c0-0.3,0-0.5,0-0.5v0
		c0,0,0-0.1,0-0.1c-0.1-0.3-0.2-0.6-0.2-0.9c-0.1-0.4-0.1-0.7-0.2-1.1c-0.1-0.3,0-0.7-0.1-1c0-0.3,0-0.7,0.1-1c0-0.3,0-0.7,0.1-1
		c0.1-0.3,0.2-0.6,0.2-0.9c0.1-0.3,0.2-0.5,0.3-0.8c0.2-0.5,0.5-0.9,0.7-1.2c0.2-0.3,0.4-0.5,0.6-0.6c-0.3-1.4-0.5-2.8-0.7-4
		c-0.2-2.1-0.2-3.8-0.2-5c0-0.6,0-1.1,0.1-1.4c0.9,0.9,2.2,1,2.7,0.8c0,0.2,0,0.4-0.1,0.7c-0.1,1.1-0.1,2.7,0,4.7
		c0.1,1.9,0.4,4.2,1,6.5c0.6,2.3,1.6,4.7,3.1,6.8c0.7,1,1.6,2,2.5,2.9c0.9,0.9,1.9,1.6,3,2.3c2.1,1.4,4,2.7,5.7,3.9
		c1.6,1.2,2.9,2.3,3.7,3.3C283,210,283.3,210.7,283.3,210.7z"/>
	<path class="st6" d="M126.5,123.5c1.2,2.3,3,5.6,5.2,9.5c2.2,3.9,4.7,8.5,7.4,13.4c1.4,2.5,2.8,5,4.2,7.6c1.5,2.6,2.9,5.2,4.4,7.8
		c0.7,1.3,1.4,2.6,2,3.9c0.6,1.3,1.1,2.7,1.2,4l0,0.5l0,0.6c0,0.4,0.1,0.9,0.2,1.3c0.2,0.8,0.5,1.6,0.9,2.3c0.8,1.4,1.8,2.5,2.9,3.5
		c0.5,0.5,1.2,1,1.3,1.3c0.3,0.5,0.5,1,0.6,1.6c0.3,1.1,0.1,2.3-0.3,3.4c-0.4,1.1-1.1,2-1.9,2.7c-0.8,0.8-1.8,1.6-2.5,2.4
		c-1.6,1.7-2.9,3.4-3.7,5.2c-0.4,0.8-0.7,1.7-0.9,2.4c-0.1,0.4-0.3,0.7-0.4,1c-0.2,0.3-0.3,0.6-0.5,0.8c-0.7,1-1.5,1.7-2,2.1
		c-0.5,0.4-0.8,0.6-0.8,0.6c-0.1,0.1-0.1,0.2-0.1,0.3c0.1,0.1,0.2,0.1,0.3,0.1c0,0,0.4-0.2,1-0.5c0.6-0.4,1.5-1,2.4-2
		c0.2-0.3,0.4-0.5,0.7-0.9c0.2-0.3,0.4-0.7,0.6-1c0.3-0.8,0.7-1.5,1.1-2.3c0.8-1.5,2.1-3.1,3.7-4.6c0.8-0.8,1.6-1.4,2.6-2.3
		c1-0.9,1.8-2,2.4-3.3c0.6-1.3,0.7-2.9,0.4-4.4c-0.2-0.8-0.4-1.5-0.9-2.2c-0.1-0.2-0.3-0.4-0.4-0.6l-0.2-0.2l0,0l-0.1-0.1L157,177
		c-0.3-0.2-0.5-0.4-0.8-0.6c-1-0.9-1.9-1.9-2.6-3c-0.3-0.6-0.6-1.2-0.7-1.8c-0.1-0.3-0.1-0.6-0.2-0.9l0-0.5l0-0.6
		c-0.2-1.7-0.8-3.1-1.4-4.5c-0.6-1.4-1.4-2.7-2.1-4.1c-1.5-2.6-3-5.2-4.5-7.7c-1.5-2.5-3-5-4.4-7.5c-2.9-4.8-5.5-9.3-7.8-13.2
		c-2.3-3.9-4.2-7.1-5.6-9.3c-1.4-2.2-2.1-3.5-2.1-3.5c0-0.1-0.1-0.1-0.2,0c-0.1,0-0.1,0.1,0,0.2
		C124.6,119.9,125.3,121.2,126.5,123.5z"/>
	<path class="st6" d="M111.5,281.6c0.4-1.4,0.8-2.5,1.1-3.2c0.3-0.8,0.5-1.2,0.5-1.2c0-0.1,0-0.1-0.1-0.2c-0.1,0-0.1,0-0.2,0
		c0,0-0.3,0.4-0.7,1.1c-0.4,0.7-1,1.8-1.5,3.2c-0.3,0.7-0.5,1.5-0.6,2.3c-0.1,0.8-0.2,1.8,0,2.7c0.1,0.4,0.1,0.9,0.2,1.4
		c0.1,0.5,0.2,0.9,0.3,1.4c0.3,0.9,0.5,1.9,0.9,2.8c0.3,0.9,0.7,1.8,1.1,2.7c0.4,0.9,0.9,1.7,1.3,2.5c0.4,0.8,0.9,1.5,1.4,2.2
		c0.5,0.7,0.9,1.4,1.3,1.9c1.7,2.4,3,3.8,3,3.8c0,0,0.1,0,0.1,0c0,0,0-0.1,0-0.1c0,0-1.2-1.5-2.7-4c-0.4-0.6-0.8-1.3-1.2-2
		c-0.4-0.7-0.8-1.5-1.2-2.3c-0.4-0.8-0.8-1.6-1.2-2.5c-0.4-0.9-0.8-1.7-1.1-2.6c-0.3-0.9-0.6-1.8-0.8-2.7c-0.1-0.4-0.2-0.9-0.3-1.3
		c-0.1-0.4-0.1-0.9-0.2-1.4c-0.2-0.9-0.1-1.7,0-2.4C111.2,283,111.4,282.3,111.5,281.6z"/>
	<path class="st6" d="M127.6,327.4c0,0-0.7-0.4-2-1.1c-0.7-0.3-1.4-0.8-2.3-1.4c-0.9-0.5-1.8-1.2-2.8-1.9c-1-0.8-2.1-1.6-3.1-2.6
		c-0.3-0.2-0.5-0.5-0.8-0.7c-0.3-0.3-0.5-0.5-0.8-0.8c-0.3-0.3-0.5-0.5-0.8-0.8c-0.2-0.3-0.5-0.6-0.8-0.9c-0.3-0.3-0.5-0.6-0.8-0.9
		c-0.2-0.3-0.5-0.6-0.7-1c-0.5-0.6-0.9-1.3-1.4-2c-0.9-1.4-1.7-2.9-2.4-4.4c-0.6-1.5-1.3-3.1-1.7-4.7c-0.5-1.6-0.8-3.1-1.1-4.7
		c-0.5-3.1-0.7-6-0.7-8.5c0-2.5,0.2-4.6,0.4-6.1c0.2-1.5,0.4-2.3,0.4-2.3c0-0.1,0-0.2-0.1-0.2c-0.1,0-0.2,0-0.2,0.1
		c0,0-0.2,0.8-0.5,2.3c-0.3,1.5-0.6,3.6-0.6,6.1c0,1.3,0,2.7,0,4.1c0.1,1.5,0.3,3,0.5,4.6c0.3,1.6,0.6,3.2,1.1,4.8
		c0.5,1.6,1.1,3.2,1.8,4.8c0.7,1.5,1.5,3.1,2.5,4.5c0.5,0.7,0.9,1.4,1.4,2c0.2,0.3,0.5,0.7,0.7,1c0.3,0.3,0.5,0.6,0.8,0.9
		c0.5,0.6,1.1,1.2,1.6,1.7c0.3,0.3,0.5,0.5,0.8,0.8c0.3,0.2,0.6,0.5,0.8,0.7c1.1,1,2.2,1.8,3.2,2.6c1.1,0.7,2,1.4,2.9,1.9
		c0.9,0.5,1.7,1,2.3,1.3c1.3,0.6,2.1,1,2.1,1c0.1,0,0.1,0,0.2-0.1C127.6,327.5,127.6,327.4,127.6,327.4L127.6,327.4z"/>
	<path class="st6" d="M70.5,251.3c0,1.2-0.2,3-0.6,5.1c-0.7,4.2-1.9,9.7-2.9,15.2c-0.2,1.4-0.5,2.8-0.7,4.1c-0.1,0.7-0.2,1.3-0.3,2
		c-0.1,0.7-0.2,1.3-0.2,2c-0.2,2.6-0.2,5-0.1,7c0.1,2.1,0.2,3.5,0.2,3.7c0,0-1.2-0.3-3-1c0-0.8,0-1.7,0-2.7c0.1-2.2,0.2-4.7,0.6-7.4
		c0.1-0.7,0.2-1.4,0.3-2c0.1-0.7,0.3-1.4,0.4-2c0.3-1.4,0.6-2.8,1-4.1c1.4-5.5,3-10.9,4-15c0.5-2,0.8-3.8,0.9-5
		c0.1-1.2-0.1-1.9-0.1-1.9c0-0.1,0-0.2,0.1-0.2c0.1,0,0.2,0,0.2,0.1v0C70.3,249.3,70.5,250,70.5,251.3z"/>
	<path class="st6" d="M18.4,180.9L18.4,180.9c0.6,1.1,1.3,2.4,2.2,3.7c1.1,1.6,2.4,3.4,4,5.2c1.6,1.8,3.6,3.5,6,5
		c2.3,1.6,5.1,2.5,7.6,4.1c5.1,3,10.1,7,14.8,11.3c2.4,2.1,4.6,4.3,6.8,6.6c2.2,2.2,4.2,4.5,6.3,6.7c4.2,4.4,8.6,7.9,12.9,10.4
		c4.2,2.5,8.2,3.7,11,4.2c1,0.2,1.8,0.3,2.4,0.4c0.6,0.2,1.1,0.4,1.8,0.4c1.5,0.2,3.1-0.3,4.2-1.2c1.1-0.9,1.9-1.9,2.4-3.1
		c0.4-1.2,0.7-2.2,0.9-3.1c0.5-1.9,1.1-3.6,2.3-4.5c1.2-1,2.9-1.2,4.5-1.1c0.8,0,1.6,0.2,2.3,0.3c0.4,0.1,0.7,0.2,1.1,0.2
		c0.3,0.1,0.8,0.2,1.1,0.2c1.5,0.2,2.9,0,4.1-0.3c2.4-0.7,3.9-1.9,4.9-2.8c0.5-0.4,0.8-0.8,1-1c0.2-0.2,0.3-0.4,0.3-0.4
		c0.1-0.1,0.1-0.3,0-0.4c-0.1-0.1-0.3-0.1-0.4,0l0,0c0,0-0.1,0.1-0.4,0.4c-0.2,0.2-0.5,0.6-1,1c-0.9,0.8-2.5,2-4.7,2.5
		c-1.1,0.2-2.4,0.4-3.8,0.1c-0.3-0.1-0.6-0.1-1-0.3c-0.4-0.1-0.7-0.2-1.1-0.4c-0.8-0.2-1.6-0.4-2.4-0.5c-0.9-0.1-1.8-0.2-2.7-0.1
		c-1,0.1-2,0.4-2.9,0.9c-1,0.6-1.7,1.4-2.3,2.4c-0.6,0.9-1,1.9-1.4,2.9c-0.4,1-0.7,2-1.1,2.8c-0.3,0.7-1,1.4-1.6,1.9
		c-0.7,0.5-1.3,0.7-2.1,0.6c-0.8-0.1-1.7-0.5-2.6-1c-1.7-1.1-3.3-2.8-4.8-4.6c-1.5-1.9-2.9-3.9-4.2-6c-2.6-4.3-4.8-9.1-6.8-14
		c-1-2.5-1.8-5-2.6-7.6c-0.8-2.6-1.4-5.2-2-7.9c-1.2-5.3-2.6-10.6-4.3-15.8c-0.8-2.6-1.7-5.1-2.7-7.6c-1-2.4-2.1-4.8-3.3-7.1
		c-1.2-2.3-2.5-4.5-3.8-6.6c-1.3-2.1-2.8-4.1-4.2-5.9c-2.7-3.8-4.5-7.8-6.2-11.5c-1.6-3.7-3-7.2-4.1-10.4c-1.1-3.1-2-5.9-2.8-8.1
		c-1.4-4.5-2.2-7.2-2.2-7.2c0-0.1-0.1-0.1-0.1-0.1c-0.1,0-0.1,0.1-0.1,0.1c0,0,0.6,2.7,1.9,7.3c1.3,4.6,3.2,11.2,6.3,18.8
		c1.6,3.8,3.4,7.9,6.1,11.8c1.4,1.9,2.8,3.8,4.1,5.9c1.3,2.1,2.5,4.2,3.7,6.5c2.3,4.5,4.4,9.4,6.2,14.4c1.8,5,3.3,10.3,4.5,15.6
		c1.1,5.3,2.4,10.7,4.1,15.8c1.7,5.2,3.7,10.1,6.1,14.7c1.2,2.3,2.6,4.5,4.1,6.6c1,1.3,2,2.5,3.2,3.6c-2.3-0.6-5.2-1.7-8.2-3.4
		c-4.1-2.3-8.5-5.7-12.7-9.9c-2.1-2.1-4.2-4.4-6.4-6.6c-2.2-2.2-4.6-4.4-7-6.5C49,205,43.9,201,38.7,198c-2.6-1.6-5.4-2.5-7.6-3.9
		c-2.3-1.4-4.2-3.1-5.9-4.8c-1.6-1.7-3-3.4-4.1-5c-1.1-1.6-1.9-3.1-2.5-4.3c-0.1-0.2-0.2-0.5-0.4-0.7v0L18.4,180.9z"/>
	<path class="st6" d="M214.4,371.8c0.3,0.2,0.5,0.4,0.8,0.5l0.8,0.6c0.9,0.7,1.9,1.6,2.8,2.5c1.8,1.8,3.5,3.6,5.1,5.6
		c0.1,0.1,0.2,0.1,0.3,0c0.1-0.1,0.1-0.2,0.1-0.3c-0.7-1.1-1.4-2.1-2.2-3.2c-0.8-1-1.6-2-2.5-3c-0.4-0.5-0.9-0.9-1.3-1.4
		c-0.5-0.5-0.9-0.9-1.5-1.3l-0.7-0.6c-0.3-0.2-0.5-0.4-0.8-0.6c-0.5-0.4-1-0.8-1.6-1.1c-1.1-0.7-2.1-1.4-3.4-2
		c-0.3-0.1-0.6-0.3-1.1-0.4c-0.1,0-0.2,0-0.4,0c-0.1,0-0.2,0-0.3,0.1c-0.1,0-0.3,0.1-0.4,0.2c-0.2,0.2-0.4,0.6-0.4,0.7
		c0,0.3,0,0.3,0,0.5c0.1,0.5,0.3,0.8,0.5,1.1c0.2,0.3,0.4,0.6,0.6,0.8c0.7,0.9,1.4,1.7,2.2,2.5c-1-0.6-2-1.3-2.9-1.9
		c-2.2-1.5-4.3-3-6.2-4.8c-0.5-0.4-0.9-0.9-1.4-1.3c-0.4-0.5-0.8-1-1-1.4l-0.1-0.2l0,0c0,0,0,0,0,0l0,0l0-0.1c0-0.1,0-0.3,0-0.4
		c0-0.3,0-0.6,0.1-0.9c0.1-0.6,0.2-1.2,0.4-1.9c0.4-1.2,0.8-2.5,1.3-3.7c0.5-1.2,1-2.4,1.5-3.7c0-0.1,0-0.1-0.1-0.2
		c-0.1,0-0.1,0-0.2,0c-0.7,1.1-1.4,2.3-2,3.5c-0.6,1.2-1.1,2.4-1.6,3.7c-0.2,0.6-0.4,1.3-0.5,2c-0.1,0.3-0.1,0.7-0.1,1.1
		c0,0.2,0,0.4,0.1,0.6l0,0.1l0,0c0,0,0,0,0,0.1l0,0l0,0.1l0.1,0.2c0.3,0.8,0.8,1.3,1.2,1.8c0.5,0.5,0.9,1,1.4,1.4
		c2,1.8,4.2,3.3,6.4,4.8c2.2,1.5,4.5,2.9,6.8,4.2l3.1,1.8l-2.5-2.6l0,0l-2.4-2.9c-0.8-1-1.6-1.9-2.3-2.9c-0.2-0.2-0.3-0.4-0.4-0.6
		c1,0.5,2.1,1.1,3.2,1.8C213.4,371.1,213.9,371.5,214.4,371.8z"/>
	<path class="st6" d="M227,359.4c0,0,0.3,0,0.9-0.1c0.5-0.1,1.3-0.2,2.2-0.4c0.9-0.2,1.9-0.5,2.9-0.8c0.5-0.2,1.1-0.4,1.6-0.6
		c0.6-0.2,1.1-0.5,1.6-0.7l0.8-0.3c0.3-0.1,0.5-0.2,0.8-0.3c0.5-0.2,1.1-0.3,1.6-0.4c1-0.1,2-0.1,2.9,0c0.8,0.1,1.5,0.3,2,0.5
		c0.5,0.2,0.7,0.3,0.7,0.3c0.1,0,0.2,0,0.2-0.1c0-0.1,0-0.2-0.1-0.2l0,0c0,0-1-0.6-2.8-1c-0.9-0.2-1.9-0.3-3.1-0.2
		c-0.6,0-1.1,0.1-1.7,0.3c-0.3,0.1-0.6,0.2-0.9,0.2l-0.9,0.3c-0.5,0.2-1.1,0.4-1.6,0.6c-0.5,0.2-1.1,0.4-1.6,0.5
		c-1,0.3-2,0.5-2.8,0.6c-0.8,0.1-1.5,0.2-2,0.2c-0.5,0-0.8,0-0.7,0c0,0-0.2,0-0.7,0c-0.5,0-1.2-0.1-2-0.2c-0.8-0.1-1.8-0.3-2.8-0.6
		c-0.5-0.1-1-0.3-1.6-0.5c-0.5-0.2-1.1-0.4-1.6-0.6l-0.9-0.3c-0.3-0.1-0.6-0.2-0.9-0.2c-0.6-0.1-1.2-0.2-1.7-0.3
		c-1.1-0.1-2.2,0-3.1,0.2c-1.8,0.4-2.8,1-2.8,1l0,0c-0.1,0-0.1,0.2-0.1,0.2c0,0.1,0.1,0.1,0.2,0.1c0,0,0.2-0.1,0.7-0.3
		c0.5-0.2,1.2-0.3,2-0.5c0.8-0.1,1.8-0.1,2.9,0c0.5,0.1,1.1,0.2,1.6,0.4c0.3,0.1,0.5,0.2,0.8,0.3l0.8,0.3c0.5,0.3,1,0.5,1.6,0.7
		c0.5,0.2,1.1,0.4,1.6,0.6c1.1,0.4,2.1,0.6,2.9,0.8c0.9,0.2,1.6,0.3,2.2,0.4C226.7,359.4,227,359.4,227,359.4z"/>
	<path class="st6" d="M154.1,285.8c0,9.9-4.2,20.2-4.2,20.2s-4.2-12.1-4.2-20.2c0-6.8,4.2-17.9,4.2-17.9S154.1,278.8,154.1,285.8z"
		/>
	<path class="st6" d="M181.6,316.9l-2.9,2.9l0,0l-1.3,1.4c-0.4,0.5-0.9,0.9-1.4,1.3c-0.5,0.4-0.9,0.8-1.5,1.2l-1.6,1.1l-1.6,1
		c-0.5,0.3-1.1,0.6-1.7,0.9c-0.6,0.3-1.1,0.6-1.7,0.8l-1.8,0.7l-1.8,0.6c-0.6,0.2-1.2,0.4-1.8,0.6c-0.6,0.2-1.2,0.4-1.9,0.5
		c-0.6,0.2-1.2,0.3-1.9,0.4c-1.3,0.3-2.5,0.5-3.8,0.7c-1.3,0.2-2.6,0.4-3.8,0.5c-0.1,0-0.1,0.1-0.1,0.1c0,0.1,0.1,0.1,0.1,0.1
		c1.3,0,2.6-0.2,3.9-0.3c1.3-0.2,2.6-0.3,3.9-0.6c0.6-0.1,1.3-0.2,1.9-0.4c0.6-0.1,1.3-0.3,1.9-0.5c0.6-0.2,1.3-0.3,1.9-0.5l1.9-0.6
		l1.8-0.7c0.6-0.2,1.2-0.5,1.8-0.8c0.6-0.3,1.2-0.5,1.8-0.9l1.7-0.9l1.7-1.1c0.6-0.3,1.1-0.8,1.6-1.2c0.1-0.1,0.2-0.2,0.4-0.3
		l-11.4,24.5c-0.1,0.1,0,0.3,0.1,0.4c0.1,0.1,0.3,0,0.4-0.1l13.6-27.3L181.6,316.9z"/>
	<path class="st6" d="M96,295.5L96,295.5c0,0-0.2,0.5-0.6,1.4c-0.3,0.9-0.9,2.1-1.5,3.6c-0.3,0.8-0.6,1.6-0.9,2.4
		c-0.3,0.9-0.6,1.8-1,2.8c-0.3,1-0.7,1.9-1,3c-0.3,1-0.6,2-0.9,3.1c-0.3,1-0.6,2.1-0.8,3.1c-0.3,1-0.5,2-0.7,3
		c-0.2,1-0.3,1.9-0.5,2.8c0,0.4-0.1,0.8-0.2,1.2c-0.1-1.1-0.5-2-1-2.7c0.1-0.5,0.2-1,0.4-1.6c0.2-1,0.5-2,0.8-3c0.3-1,0.6-2.1,1-3.1
		c0.3-1,0.7-2.1,1-3.1c0.4-1,0.7-2,1.1-2.9c0.4-0.9,0.7-1.9,1.1-2.7c0.4-0.8,0.7-1.7,1-2.4c0.6-1.5,1.2-2.7,1.6-3.6
		c0.4-0.9,0.6-1.3,0.6-1.3c0-0.1,0.1-0.1,0.2-0.1C96,295.3,96,295.4,96,295.5z"/>
	<path class="st6" d="M83.1,271.6c0,0,0,0.1,0,0.1c0,0-0.2,0.5-0.5,1.4c-0.3,0.9-0.9,2.1-1.4,3.7c-0.6,1.5-1.2,3.3-1.8,5.2
		c-0.3,1-0.6,2-0.9,3c-0.3,1-0.6,2-0.9,3.1c-1.2,4.2-2.1,8.4-2.6,11.6c-0.1,0.6-0.2,1.1-0.2,1.6c-0.2-0.1-1-0.4-2-1
		c0.1-0.3,0.1-0.7,0.2-1.1c0.7-3.2,1.8-7.5,3.2-11.6c0.4-1,0.7-2.1,1.1-3.1c0.4-1,0.7-2,1.1-3c0.7-1.9,1.5-3.7,2.1-5.2
		c0.6-1.5,1.2-2.8,1.6-3.6c0.4-0.9,0.6-1.4,0.6-1.4c0.1-0.1,0.2-0.2,0.4-0.2C83.1,271.3,83.1,271.5,83.1,271.6z"/>
	<path class="st6" d="M182.5,179.7c-0.7,2-1.3,4.7-1.6,7.4c-0.1,0.7-0.1,1.4-0.1,2.1c0,0.7,0,1.5-0.2,2.2c-0.2,1.4-0.6,2.7-1,3.7
		c-0.4,1-0.9,1.8-1.3,2.4c-0.2,0.3-0.3,0.5-0.5,0.6c-0.1,0.1-0.2,0.2-0.2,0.2c-0.1,0.1-0.2,0.1-0.3,0.1c-0.1-0.1-0.1-0.2-0.1-0.3
		l0,0c0,0,0-0.1,0.2-0.2c0.1-0.1,0.2-0.3,0.4-0.6c0.3-0.5,0.7-1.3,1.1-2.3s0.6-2.2,0.8-3.6c0.1-0.7,0.1-1.3,0-2.1c0-0.7,0-1.5,0-2.2
		c0.2-2.9,0.7-5.7,1.3-7.8C181.4,179.5,182.2,180.1,182.5,179.7z"/>
	<path class="st6" d="M174.9,181.6c0,0.1-0.1,0.1-0.1,0.2c-0.3,0.6-0.5,1.2-0.8,1.8c-0.2,0.6-0.4,1.3-0.6,2
		c-0.1,0.4-0.1,0.7-0.2,1.1c-0.1,0.4-0.1,0.7-0.1,1.1c0,0.4,0,0.7,0,1.1c0,0.4,0,0.7,0.1,1.1c0.1,0.8,0.1,1.5,0.2,2.2
		c0.1,1.5,0.1,2.8-0.1,4c-0.2,1.2-0.5,2.1-0.7,2.7c-0.1,0.3-0.2,0.6-0.3,0.7c-0.1,0.2-0.1,0.2-0.1,0.2c0,0.1-0.2,0.2-0.3,0.1
		c-0.1-0.1-0.2-0.2-0.1-0.3v0c0,0,0-0.1,0.1-0.2c0.1-0.2,0.2-0.4,0.3-0.7c0.2-0.6,0.5-1.5,0.5-2.6c0.1-1.1,0.1-2.4-0.1-3.8
		c-0.1-0.7-0.2-1.4-0.3-2.2c-0.1-0.7-0.2-1.5-0.2-2.3c0-0.4,0-0.8,0-1.2c0-0.4,0.1-0.8,0.1-1.2c0.1-0.8,0.3-1.5,0.5-2.2
		c0.2-0.7,0.5-1.4,0.7-2c0.1-0.3,0.2-0.5,0.4-0.8C173.8,181.2,174.2,182.4,174.9,181.6z"/>
	<path class="st6" d="M168.5,173.4c-0.1,0.1-0.3,0.3-0.4,0.5c-0.1,0.2-0.3,0.4-0.4,0.6c-0.3,0.4-0.5,0.8-0.8,1.2
		c-0.2,0.5-0.5,0.9-0.6,1.4c-0.2,0.5-0.4,1-0.4,1.5c-0.1,0.5-0.2,1-0.3,1.5c0,0.5-0.1,1-0.1,1.4c0,0.5,0,0.9,0,1.3
		c0,0.8,0.1,1.5,0.1,1.9c0,0.5,0.1,0.7,0.1,0.7v0c0,0,0,0.1-0.1,0.1c-0.1,0-0.1,0-0.1-0.1c0,0,0-0.3-0.1-0.7
		c-0.1-0.5-0.2-1.1-0.3-1.9c0-0.4-0.1-0.8-0.1-1.3c0-0.5,0-1,0-1.5c0-0.5,0.1-1,0.2-1.6c0-0.5,0.2-1.1,0.3-1.6s0.4-1,0.5-1.6
		c0.2-0.5,0.4-1,0.7-1.4c0.1-0.2,0.3-0.4,0.4-0.7c0.2-0.2,0.3-0.4,0.5-0.6c0.1-0.1,0.2-0.2,0.2-0.3
		C167.8,172.6,168,173.3,168.5,173.4z"/>
	<path class="st6" d="M162,160c-0.2,0.1-0.5,0.2-0.7,0.2c-0.3,0.2-0.6,0.3-0.8,0.5l-0.4,0.3l-0.3,0.3c-0.2,0.2-0.4,0.5-0.5,0.7
		c-0.2,0.2-0.3,0.5-0.4,0.7c-0.1,0.2-0.2,0.4-0.2,0.6c0,0.2-0.1,0.4-0.1,0.5c-0.1,0.3-0.1,0.5-0.1,0.5l0,0c0,0.1-0.1,0.2-0.2,0.1
		c-0.1,0-0.2-0.1-0.2-0.2c0,0,0-0.2,0.1-0.5c0-0.2,0.1-0.3,0.1-0.5c0-0.2,0.2-0.4,0.2-0.7c0.1-0.3,0.2-0.5,0.4-0.8
		c0.1-0.3,0.3-0.5,0.5-0.8c0.1-0.1,0.2-0.3,0.3-0.4l0.4-0.3c0.3-0.2,0.6-0.4,0.9-0.6c0.1,0,0.2-0.1,0.3-0.1
		C161.3,159.5,161.6,159.8,162,160z"/>
	<path class="st6" d="M337.9,285.3l-1.2-3.1c-0.4-1-0.9-2-1.4-3c-1-2-2-4-3.2-5.9c-0.6-0.9-1.3-1.9-1.9-2.8
		c-0.7-0.9-1.4-1.8-2.1-2.7c-0.8-0.8-1.5-1.7-2.3-2.5c-0.4-0.4-0.8-0.8-1.2-1.2l-1.3-1.1c-1.8-1.5-3.7-2.8-5.8-3.8
		c-2.1-1-4.3-1.9-6.6-2.4c-2.3-0.5-4.7-0.7-7-0.6c-2.3,0.1-4.7,0.5-6.9,1.1c-4.5,1.3-8.6,3.5-12.2,6.2c-0.9,0.7-1.8,1.4-2.6,2.2
		c-0.8,0.8-1.7,1.6-2.4,2.3l-0.6,0.6l-0.6,0.7l-1.1,1.3c-0.7,0.9-1.4,1.8-2,2.7c-0.6,0.9-1.2,1.9-1.8,2.8c-0.5,1-1.1,1.9-1.6,2.9
		c-0.5,1-1,2-1.5,3c-0.5,1-0.9,2-1.3,3c-0.8,2.1-1.5,4.1-2.2,6.3c-0.6,2.1-1.2,4.2-1.5,6.5l-0.2,1.1l1.1,0.1
		c1.6,0.2,3.2,0.7,4.7,1.5c1.5,0.8,3,1.8,4.4,2.8c2.9,2.1,5.8,4.2,9,6.2c3.2,1.9,6.6,3.5,10.3,4.5c1.8,0.5,3.7,0.8,5.6,1
		c0.9,0.1,1.9,0.1,2.8,0.1c0.9,0,2,0,2.9-0.1l1.3-0.1c0.6,0,1-0.1,1.5-0.2c1-0.1,1.9-0.4,2.8-0.6c1.9-0.5,3.7-1.2,5.4-2.1
		c1.7-0.9,3.3-1.9,4.8-3c1.5-1.1,2.9-2.4,4.3-3.7c2.7-2.7,4.9-5.7,6.9-8.8c1-1.6,1.9-3.2,2.7-4.8c0.8-1.7,1.6-3.3,2.3-5.1l0.2-0.6
		L337.9,285.3z M276.8,301.2c-1.5-1-3.1-1.9-4.8-2.7c-1.3-0.6-2.8-1.1-4.3-1.3c0.5-1.7,1-3.4,1.6-5c0.7-2,1.6-4,2.5-5.9
		c0.9-1.9,1.9-3.8,3-5.6c0.5-0.9,1.1-1.8,1.7-2.7c0.6-0.9,1.2-1.7,1.8-2.6c0,0,0.1-0.1,0.1-0.1c0,0.1-0.1,0.2-0.1,0.3
		c-0.5,1.2-1,2.5-1.3,3.9c-0.2,0.7-0.3,1.4-0.5,2.1c-0.1,0.4-0.1,0.7-0.2,1.1c0,0.4-0.1,0.7-0.1,1.1c-0.2,1.5-0.2,3-0.2,4.5
		c0,3,0.5,6.1,1.5,8.8c0.9,2.6,2.1,4.8,3.4,6.6C279.4,302.9,278.1,302,276.8,301.2z M329.5,287.9c0,1-0.1,2-0.2,3
		c-0.1,1-0.3,1.9-0.4,2.7c-0.1,0.4-0.1,0.9-0.2,1.3c-0.1,0.4-0.2,0.8-0.3,1.2c-0.1,0.3-0.2,0.5-0.2,0.8c-1.5,2-3.1,3.9-4.8,5.7
		c-1.2,1.2-2.5,2.3-3.8,3.4c-1.4,1-2.8,2-4.3,2.7s-3,1.4-4.6,1.9c-0.8,0.2-1.6,0.5-2.4,0.6c-0.4,0.1-0.9,0.1-1.2,0.2l-1.3,0.1
		c-0.9,0.1-1.7,0.1-2.5,0.1c-0.9,0-1.7,0-2.5-0.1c-1.7-0.1-3.4-0.3-5-0.8c-3.3-0.8-6.5-2.1-9.6-3.8c-0.6-0.3-1.1-0.6-1.7-1
		c-0.7-0.8-1.4-1.7-2.1-2.8c-1.2-1.8-2.3-4-3.1-6.6s-1.2-5.4-1.2-8.3c0-1.4,0.1-2.9,0.2-4.3l0.1-1c0.1-0.3,0.1-0.7,0.2-1
		c0.1-0.7,0.3-1.3,0.5-2c0.7-2.6,1.7-4.9,2.6-6.9c0.5-1.1,0.9-2,1.3-2.8c0.6-0.6,1.2-1.1,1.8-1.6c0.8-0.7,1.6-1.3,2.4-1.9
		c3.3-2.4,7-4.3,11-5.3c3.9-1,8-1.2,11.8-0.3c1.9,0.4,3.8,1.1,5.6,2c1.8,0.9,3.5,2,5.1,3.3l1.2,1c0.4,0.3,0.8,0.7,1.1,1
		c0.8,0.7,1.4,1.5,2.1,2.2s1.3,1.6,2,2.4c0,0,0.1,0.1,0.1,0.1c0.1,0.2,0.2,0.5,0.3,0.7c0.3,0.7,0.5,1.5,0.8,2.4
		c0.3,0.8,0.5,1.8,0.7,2.7c0.2,0.9,0.4,1.9,0.5,2.9c0.1,0.5,0.1,1,0.2,1.5s0.1,1,0.1,1.5C329.5,285.9,329.5,286.9,329.5,287.9z
		 M332.5,290c-0.7,1.3-1.5,2.5-2.3,3.8c0.2-0.9,0.4-1.8,0.5-2.7c0.1-1,0.3-2,0.3-3.1c0.1-1.1,0.1-2.1,0-3.2c0-0.5,0-1.1-0.1-1.6
		c-0.1-0.5-0.1-1-0.2-1.6c-0.1-1-0.3-2.1-0.5-3.1c0-0.2-0.1-0.4-0.1-0.6c0,0.1,0.1,0.2,0.2,0.2c0.5,0.9,1.1,1.8,1.6,2.7
		c0.5,0.9,1,1.9,1.5,2.8l1.1,2.2C333.9,287.3,333.2,288.6,332.5,290z"/>
	<path class="st6" d="M260.9,278.7c0.3,0.1,0.5-0.1,0.6-0.4l0,0c0,0,0.4-1.4,1-3.9c0.1-0.6,0.3-1.3,0.5-2.1c0.2-0.7,0.5-1.5,0.7-2.4
		c0.3-0.8,0.5-1.7,0.8-2.7c0.3-1,0.7-1.9,1.1-2.9c0.2-0.5,0.4-1,0.6-1.5c0.2-0.5,0.4-1.1,0.7-1.6c0.5-1,1.1-2.1,1.6-3.2
		c0.3-0.6,0.6-1.1,0.9-1.6c0.3-0.5,0.7-1.1,1-1.6c0.4-0.5,0.7-1.1,1.1-1.6c0.4-0.5,0.8-1,1.2-1.6c0.4-0.5,0.8-1.1,1.3-1.6
		c0.5-0.5,1-1,1.4-1.5c0.5-0.5,0.9-1,1.5-1.5c0.5-0.4,1.1-0.9,1.6-1.3c1-1,2.2-1.7,3.4-2.5l0.9-0.6l0.9-0.5l1.9-1
		c0.6-0.4,1.3-0.6,2-0.8c0.7-0.3,1.3-0.6,2-0.8c0.7-0.2,1.4-0.4,2.1-0.6l1-0.3l1-0.2c0.7-0.1,1.4-0.3,2.1-0.4
		c0.7-0.1,1.4-0.2,2.1-0.2c1.4-0.2,2.8-0.2,4.1-0.2c0.7,0,1.4,0,2,0.1c0.7,0.1,1.3,0.1,2,0.2c1.3,0.2,2.6,0.4,3.8,0.7
		c2.4,0.5,4.7,1.3,6.7,2.2c4,1.7,7.1,3.7,9.2,5.2c2.1,1.5,3.2,2.5,3.2,2.5s-0.2-0.3-0.7-0.8c-0.5-0.5-1.2-1.2-2.2-2.1
		c-1-0.9-2.2-1.9-3.7-2.9c-1.5-1-3.3-2.1-5.3-3c-2-1-4.3-1.8-6.8-2.4c-1.2-0.3-2.6-0.5-3.9-0.8c-0.7-0.1-1.3-0.1-2-0.2
		c-0.7-0.1-1.3-0.1-2.1-0.1c-1.4,0-2.9-0.1-4.3,0c-0.7,0.1-1.5,0.1-2.2,0.2c-0.7,0.1-1.5,0.2-2.2,0.3l-1.1,0.2l-1.1,0.3
		c-0.7,0.2-1.5,0.4-2.2,0.5c-0.7,0.2-1.4,0.5-2.1,0.7c-0.7,0.3-1.4,0.5-2.1,0.8l-2.1,1l-1,0.5l-1,0.6c-0.2,0.2-0.5,0.3-0.7,0.5
		c0.5-0.6,1-1.2,1.6-1.8c0.4-0.4,0.8-0.9,1.2-1.3c0.5-0.4,0.9-0.8,1.4-1.3c1-0.9,1.9-2,2.5-3.4c0.2-0.3,0.3-0.7,0.4-1.1
		c0.1-0.4,0.1-0.8,0.2-1.1c0-0.8-0.1-1.5-0.4-2.2c-0.6-1.4-1.4-2.4-2.3-3.3c-0.8-0.9-1.7-1.7-2.3-2.5c-0.7-0.8-1.3-1.7-1.8-2.5
		c-1.1-1.6-1.9-3-2.5-3.9c-0.6-1-0.9-1.5-0.9-1.5l0,0c-0.1-0.2-0.4-0.3-0.6-0.2c-0.2,0.1-0.3,0.4-0.2,0.7c0,0,0.3,0.6,0.8,1.6
		c0.5,1,1.3,2.4,2.3,4.1c0.5,0.8,1.1,1.8,1.8,2.7c0.7,0.9,1.5,1.8,2.3,2.7c0.8,0.9,1.5,1.8,1.8,2.9c0.3,1,0.3,2-0.2,3
		c-0.4,1-1.2,1.9-2.1,2.7c-0.4,0.4-0.9,0.9-1.4,1.3c-0.5,0.5-0.9,0.9-1.3,1.4c-1.7,1.8-3.1,3.6-4.3,5.1c-0.9,1.2-1.6,2.3-2.1,3.2
		c-0.5,0.5-1,1-1.5,1.5c-0.5,0.5-0.9,1.1-1.4,1.7c-0.4,0.6-0.9,1.1-1.3,1.7c-0.4,0.5-0.8,1.2-1.1,1.7c-0.4,0.6-0.7,1.2-1.1,1.7
		c-0.4,0.6-0.7,1.1-1,1.7c-0.6,1.2-1.1,2.3-1.6,3.4c-0.5,1.1-0.8,2.2-1.2,3.3c-0.3,1.1-0.8,2.1-1,3.1c-0.2,1-0.5,1.9-0.7,2.8
		c-0.2,0.9-0.4,1.7-0.6,2.5c-0.1,0.8-0.2,1.5-0.3,2.1c-0.4,2.6-0.5,4-0.5,4C260.5,278.4,260.6,278.7,260.9,278.7z"/>
	<path class="st6" d="M306.8,398.5c0,0.8,0,1.6,0,2.4c-0.1,2.8-0.6,5.5-1.2,7.8c-2.5,2.2-5,4.5-7.3,6.6c0-0.1,0.1-0.3,0.2-0.4
		c0,0,0-0.1,0.1-0.1l0.1-0.1c0,0,0.4-0.6,1.2-1.6c0.3-0.6,0.8-1.2,1.2-2c0.2-0.4,0.4-0.8,0.6-1.3c0.2-0.5,0.4-1,0.6-1.5
		c0.8-2.1,1.4-4.7,1.7-7.5c0.1-0.7,0.1-1.4,0.2-2.2c0-0.7,0-1.5,0-2.2c0-1.5-0.1-3.1-0.3-4.6c-0.6-6.2-2.4-12.3-4.1-16.7
		c-1.6-4.4-3.1-7.2-3.1-7.2c-0.1-0.1,0-0.3,0.1-0.4c0.1-0.1,0.3,0,0.4,0.1c0,0,1.7,2.7,3.6,7.1c1.9,4.4,4.2,10.4,5.3,16.8
		c0.3,1.6,0.5,3.2,0.6,4.8C306.8,397,306.8,397.8,306.8,398.5z"/>
	<path class="st6" d="M260.2,225.6c0.6-2,0.9-3.8,1.1-5c0.2-1.2,0.2-1.9,0.2-1.9c0-0.1-0.1-0.2-0.2-0.2c-0.1,0-0.2,0.1-0.2,0.2
		c0,0-0.1,0.7-0.4,1.9c-0.3,1.2-0.7,2.9-1.4,4.8c-0.3,1-0.7,2-1.2,3.1c-0.5,1.1-1.1,2.2-1.7,3.2c-0.7,1.1-1.5,2.1-2.4,3.1
		c-0.9,1-1.8,2-2.8,3.1c-1.9,2.1-3.8,4.1-5.4,6.2c-0.8,1.1-1.5,2.2-1.9,3.4c-0.5,1.1-0.8,2.2-1.1,3.3c-0.5,2-0.8,3.8-1,5
		c-0.2,1.2-0.2,1.9-0.2,1.9c0,0.1,0.1,0.2,0.2,0.3c0.1,0,0.3-0.1,0.3-0.2c0,0,0.1-0.7,0.3-1.9c0.2-1.2,0.6-2.9,1.2-4.8
		c0.3-1,0.7-2,1.2-3.1c0.5-1,1.1-2.1,1.9-3.1c1.6-2,3.5-4,5.4-6.1c0.9-1,1.9-2.1,2.8-3.1c0.9-1,1.8-2.2,2.5-3.3
		C258.8,229.9,259.6,227.6,260.2,225.6z"/>
	<path class="st6" d="M196.4,232.3c0.7,1.1,1.6,2.2,2.5,3.3c0.9,1.1,1.8,2.1,2.8,3.1c1.9,2.1,3.8,4.1,5.4,6.1c0.8,1,1.4,2,1.9,3.1
		c0.5,1.1,0.9,2.1,1.2,3.1c0.6,2,1,3.7,1.2,4.8c0.2,1.2,0.3,1.9,0.3,1.9c0,0.1,0.1,0.2,0.3,0.2c0.1,0,0.2-0.1,0.2-0.3
		c0,0,0-0.7-0.2-1.9c-0.2-1.2-0.4-3-1-5c-0.3-1-0.6-2.1-1.1-3.3c-0.5-1.2-1.1-2.3-1.9-3.4c-1.6-2.1-3.5-4.2-5.4-6.2
		c-0.9-1-1.9-2-2.8-3.1c-0.9-1-1.7-2-2.4-3.1c-0.7-1.1-1.2-2.2-1.7-3.2c-0.5-1.1-0.9-2.1-1.2-3.1c-0.6-2-1.1-3.6-1.4-4.8
		c-0.3-1.2-0.4-1.9-0.4-1.9c0-0.1-0.1-0.2-0.2-0.2c-0.1,0-0.2,0.1-0.2,0.2c0,0,0.1,0.7,0.2,1.9c0.2,1.2,0.5,2.9,1.1,5
		C194.2,227.6,195,229.9,196.4,232.3z"/>
	<path class="st6" d="M295.6,184.6c0.5,1.3,1.4,2.5,2.4,3.3c0.9,0.9,1.8,1.5,2.6,2.3c1.6,1.5,2.8,3.1,3.7,4.6
		c0.4,0.8,0.8,1.5,1.1,2.3c0.2,0.3,0.4,0.7,0.6,1c0.2,0.3,0.4,0.6,0.7,0.9c0.9,1,1.8,1.6,2.4,2c0.6,0.4,1,0.5,1,0.5
		c0.1,0,0.2,0,0.3-0.1c0.1-0.1,0-0.2-0.1-0.3c0,0-0.3-0.2-0.8-0.6c-0.5-0.4-1.3-1.1-2-2.1c-0.2-0.3-0.4-0.5-0.5-0.8
		c-0.2-0.3-0.3-0.6-0.4-1c-0.2-0.7-0.5-1.6-0.9-2.4c-0.8-1.7-2.1-3.5-3.7-5.2c-0.8-0.8-1.7-1.7-2.5-2.4c-0.8-0.8-1.5-1.7-1.9-2.7
		c-0.4-1-0.5-2.2-0.3-3.4c0.1-0.6,0.3-1.1,0.6-1.6c0.1-0.3,0.8-0.8,1.3-1.3c1.1-1,2.1-2.1,2.9-3.5c0.4-0.7,0.7-1.5,0.9-2.3
		c0.1-0.4,0.2-0.8,0.2-1.3l0-0.6l0-0.5c0.1-1.3,0.6-2.7,1.2-4c0.6-1.3,1.3-2.6,2-3.9c1.5-2.6,3-5.2,4.4-7.8c1.4-2.6,2.8-5.1,4.2-7.6
		c2.7-4.9,5.2-9.5,7.4-13.4c2.1-3.9,3.9-7.2,5.2-9.5c1.2-2.3,1.9-3.6,1.9-3.6c0-0.1,0-0.1,0-0.2c-0.1,0-0.1,0-0.2,0
		c0,0-0.8,1.3-2.1,3.5c-1.3,2.2-3.3,5.5-5.6,9.3c-2.3,3.9-4.9,8.4-7.8,13.2c-1.4,2.4-2.9,4.9-4.4,7.5c-1.5,2.5-3,5.1-4.5,7.7
		c-0.8,1.3-1.5,2.7-2.1,4.1c-0.6,1.4-1.2,2.8-1.4,4.5l0,0.6l0,0.5c0,0.3-0.1,0.6-0.2,0.9c-0.2,0.6-0.4,1.2-0.7,1.8
		c-0.6,1.1-1.6,2.1-2.6,3c-0.3,0.2-0.5,0.4-0.8,0.6l-0.1,0.1l-0.1,0.1l0,0l-0.2,0.2c-0.2,0.2-0.4,0.4-0.4,0.6
		c-0.5,0.7-0.7,1.4-0.9,2.2C294.9,181.7,295.1,183.3,295.6,184.6z"/>
	<path class="st6" d="M342.6,287.6c-0.1,0.4-0.2,0.9-0.3,1.3c-0.2,0.9-0.5,1.8-0.8,2.7c-0.3,0.9-0.7,1.8-1.1,2.6
		c-0.4,0.8-0.8,1.7-1.2,2.5c-0.4,0.8-0.8,1.6-1.2,2.3c-0.4,0.7-0.8,1.4-1.2,2c-1.5,2.4-2.7,4-2.7,4c0,0,0,0.1,0,0.1c0,0,0.1,0,0.1,0
		c0,0,1.3-1.4,3-3.8c0.4-0.6,0.9-1.2,1.3-1.9c0.4-0.7,0.9-1.4,1.4-2.2c0.5-0.8,0.9-1.6,1.3-2.5c0.4-0.9,0.8-1.8,1.1-2.7
		c0.4-0.9,0.6-1.8,0.9-2.8c0.1-0.5,0.2-0.9,0.3-1.4c0.1-0.5,0.2-0.9,0.2-1.4c0.2-0.9,0.1-1.9,0-2.7c-0.1-0.9-0.3-1.6-0.6-2.3
		c-0.5-1.4-1.1-2.5-1.5-3.2c-0.4-0.7-0.7-1.1-0.7-1.1c0,0-0.1-0.1-0.2,0c-0.1,0-0.1,0.1-0.1,0.2c0,0,0.2,0.4,0.5,1.2
		c0.3,0.8,0.8,1.9,1.1,3.2c0.2,0.7,0.3,1.4,0.4,2.2c0.1,0.8,0.1,1.6,0,2.4C342.8,286.7,342.7,287.2,342.6,287.6z"/>
	<path class="st6" d="M348.7,284.9c-0.3-1.5-0.5-2.3-0.5-2.3c0-0.1-0.1-0.1-0.2-0.1c-0.1,0-0.2,0.1-0.1,0.2c0,0,0.2,0.8,0.4,2.3
		c0.2,1.5,0.4,3.5,0.4,6.1c0,2.5-0.2,5.4-0.7,8.5c-0.3,1.5-0.6,3.1-1.1,4.7c-0.5,1.6-1.1,3.1-1.7,4.7c-0.7,1.5-1.5,3-2.4,4.4
		c-0.4,0.7-0.9,1.4-1.4,2c-0.2,0.3-0.5,0.6-0.7,1c-0.3,0.3-0.5,0.6-0.8,0.9c-0.3,0.3-0.5,0.6-0.8,0.9c-0.3,0.3-0.5,0.6-0.8,0.8
		c-0.3,0.3-0.5,0.5-0.8,0.8c-0.3,0.2-0.5,0.5-0.8,0.7c-1,1-2.1,1.8-3.1,2.6c-1,0.7-1.9,1.4-2.8,1.9c-0.9,0.5-1.6,1-2.3,1.4
		c-1.3,0.7-2,1.1-2,1.1l0,0c-0.1,0-0.1,0.1-0.1,0.2c0,0.1,0.1,0.1,0.2,0.1c0,0,0.8-0.4,2.1-1c0.7-0.3,1.4-0.8,2.3-1.3
		c0.9-0.5,1.9-1.2,2.9-1.9c1-0.8,2.1-1.6,3.2-2.6c0.3-0.2,0.6-0.5,0.8-0.7c0.3-0.3,0.5-0.5,0.8-0.8c0.6-0.5,1.1-1.1,1.6-1.7
		c0.3-0.3,0.5-0.6,0.8-0.9c0.2-0.3,0.5-0.6,0.7-1c0.5-0.6,1-1.3,1.4-2c0.9-1.4,1.7-2.9,2.5-4.5c0.7-1.6,1.3-3.2,1.8-4.8
		c0.5-1.6,0.8-3.2,1.1-4.8c0.3-1.6,0.4-3.1,0.5-4.6c0.1-1.5,0.1-2.8,0-4.1C349.2,288.4,348.9,286.3,348.7,284.9z"/>
	<path class="st6" d="M391.1,289.5c-1.9,0.7-3,1-3,1c0.1-1.4,0.1-1.6,0.2-3.7c0.1-2.1,0.1-4.5-0.1-7c0-0.6-0.1-1.3-0.2-2
		c-0.1-0.7-0.2-1.3-0.3-2c-0.2-1.4-0.4-2.7-0.7-4.1c-1-5.5-2.2-11-2.9-15.2c-0.4-2.1-0.5-3.9-0.6-5.1c0-1.3,0.2-2,0.2-2v0
		c0-0.1,0.1-0.1,0.2-0.1c0.1,0,0.1,0.1,0.1,0.2c0,0-0.2,0.7-0.1,1.9c0.1,1.2,0.4,2.9,0.9,5c1,4.1,2.6,9.5,4,15
		c0.3,1.4,0.7,2.8,1,4.1c0.1,0.7,0.3,1.4,0.4,2c0.1,0.7,0.2,1.3,0.3,2c0.4,2.7,0.5,5.2,0.6,7.4C391.1,287.8,391.1,288.7,391.1,289.5
		z"/>
	<path class="st6" d="M435.6,180.9L435.6,180.9c-0.6,1.1-1.3,2.4-2.2,3.7c-1.1,1.6-2.4,3.4-4,5.2c-1.7,1.8-3.6,3.5-6,5
		c-2.3,1.6-5.1,2.5-7.6,4.1c-5.1,3-10.1,7-14.8,11.3c-2.3,2.1-4.6,4.3-6.8,6.6c-2.2,2.2-4.2,4.5-6.3,6.7c-4.2,4.4-8.6,7.9-12.9,10.4
		c-4.2,2.5-8.2,3.7-11,4.2c-1,0.2-1.8,0.3-2.4,0.4c-0.6,0.2-1.1,0.4-1.8,0.4c-1.5,0.2-3.1-0.3-4.2-1.2c-1.1-0.9-1.9-1.9-2.4-3.1
		c-0.4-1.2-0.6-2.2-0.9-3.1c-0.5-1.9-1.1-3.6-2.3-4.5c-1.2-1-2.9-1.2-4.5-1.1c-0.8,0-1.6,0.2-2.3,0.3c-0.4,0.1-0.7,0.2-1.1,0.2
		c-0.4,0.1-0.8,0.2-1.1,0.2c-1.5,0.2-2.9,0-4.1-0.3c-2.4-0.7-3.9-1.9-4.9-2.8c-0.5-0.4-0.8-0.8-1.1-1c-0.2-0.2-0.4-0.4-0.4-0.4
		c-0.1-0.1-0.1-0.3,0-0.4c0.1-0.1,0.3-0.1,0.4,0l0,0c0,0,0.1,0.1,0.3,0.4c0.2,0.2,0.5,0.6,1,1c0.9,0.8,2.5,2,4.7,2.5
		c1.1,0.2,2.4,0.4,3.8,0.1c0.3-0.1,0.6-0.1,1-0.3c0.4-0.1,0.7-0.2,1.1-0.4c0.8-0.2,1.6-0.4,2.4-0.5c0.9-0.1,1.8-0.2,2.7-0.1
		c1,0.1,2,0.4,2.9,0.9c1,0.6,1.7,1.4,2.3,2.4c0.6,0.9,1,1.9,1.4,2.9c0.4,1,0.7,2,1.1,2.8c0.3,0.7,1,1.4,1.6,1.9
		c0.6,0.5,1.3,0.7,2.1,0.6c0.8-0.1,1.7-0.5,2.6-1c1.7-1.1,3.4-2.8,4.8-4.6c1.5-1.9,2.9-3.9,4.2-6c2.6-4.3,4.9-9.1,6.8-14
		c1-2.5,1.8-5,2.6-7.6c0.8-2.6,1.4-5.2,2-7.9c1.2-5.3,2.6-10.6,4.3-15.8c0.8-2.6,1.7-5.1,2.7-7.6c1-2.4,2.1-4.8,3.3-7.1
		c1.2-2.3,2.5-4.5,3.8-6.6c1.3-2.1,2.8-4.1,4.2-5.9c2.7-3.8,4.5-7.8,6.2-11.5c1.6-3.7,3-7.2,4.1-10.4c1.1-3.1,2-5.9,2.8-8.1
		c1.5-4.5,2.2-7.2,2.2-7.2c0-0.1,0.1-0.1,0.1-0.1c0,0,0.1,0.1,0.1,0.1c0,0-0.6,2.7-1.9,7.3c-1.3,4.6-3.2,11.2-6.3,18.8
		c-1.6,3.8-3.4,7.9-6.1,11.8c-1.4,1.9-2.8,3.8-4.1,5.9c-1.3,2.1-2.5,4.2-3.7,6.5c-2.3,4.5-4.4,9.4-6.2,14.4
		c-1.8,5-3.3,10.3-4.5,15.6c-1.1,5.3-2.4,10.7-4.1,15.8c-1.6,5.2-3.6,10.1-6.1,14.7c-1.2,2.3-2.6,4.5-4.1,6.6c-1,1.3-2,2.5-3.2,3.6
		c2.4-0.6,5.2-1.7,8.2-3.4c4.1-2.3,8.5-5.7,12.6-9.9c2-2.1,4.2-4.4,6.4-6.6c2.2-2.2,4.6-4.4,7-6.5c4.8-4.2,9.9-8.2,15.1-11.2
		c2.6-1.6,5.4-2.5,7.6-3.9c2.3-1.4,4.2-3.1,5.9-4.8c1.6-1.7,3-3.4,4.1-5c1.1-1.6,1.9-3.1,2.5-4.3c0.1-0.2,0.2-0.5,0.4-0.7v0
		L435.6,180.9z"/>
	<path class="st6" d="M275.1,428.9c0,0-0.2,0-0.5-0.1c-0.4-0.1-0.9-0.2-1.6-0.4c-1.4-0.3-3.3-1.1-5.5-2.1c-1.1-0.5-2.3-1.1-3.5-1.8
		c-1.2-0.7-2.5-1.5-3.8-2.3c-1.3-0.9-2.6-1.8-3.9-2.7c-0.7-0.5-1.4-0.9-2.1-1.3c-0.7-0.5-1.4-0.9-2.1-1.3c-0.7-0.4-1.4-0.8-2.2-1.2
		c-0.7-0.4-1.5-0.8-2.2-1.1c-1.5-0.7-2.9-1.4-4.4-2c-0.7-0.3-1.4-0.6-2.1-0.8c-0.7-0.3-1.4-0.5-2.1-0.7c-1.4-0.4-2.7-0.7-3.9-1
		c-1.2-0.3-2.4-0.5-3.4-0.6c-1-0.1-1.9-0.2-2.6-0.3c-0.7-0.1-1.3-0.1-1.7-0.1c-0.3,0-0.5,0-0.5,0c0,0,0,0,0,0c0,0,0,0,0,0
		c0,0,0,0,0,0c0,0,0,0,0,0c-0.1,0-0.3,0-0.5,0c-0.4,0-1,0-1.7,0.1c-0.7,0.1-1.6,0.1-2.6,0.3c-1,0.1-2.1,0.3-3.4,0.6
		c-1.2,0.3-2.5,0.6-3.9,1c-0.7,0.2-1.4,0.4-2.1,0.7c-0.7,0.2-1.4,0.5-2.1,0.8c-1.4,0.6-2.9,1.2-4.4,2c-0.7,0.3-1.5,0.7-2.2,1.1
		c-0.7,0.4-1.5,0.8-2.2,1.2c-0.7,0.4-1.4,0.8-2.1,1.3c-0.7,0.4-1.4,0.9-2.1,1.3c-1.3,0.9-2.6,1.8-3.9,2.7c-1.3,0.9-2.5,1.6-3.8,2.3
		c-1.2,0.7-2.4,1.3-3.5,1.8c-2.2,1-4.1,1.7-5.5,2.1c-0.7,0.2-1.2,0.3-1.6,0.4c-0.4,0.1-0.5,0.1-0.5,0.1c-0.4,0.1-0.7,0.5-0.6,0.9
		s0.5,0.7,0.9,0.6c0,0,0.2-0.1,0.6-0.2c0.4-0.1,0.9-0.3,1.6-0.6c0.7-0.3,1.5-0.6,2.4-1.1c0.9-0.4,1.9-0.9,3-1.5
		c1.1-0.6,2.3-1.3,3.5-2c1.2-0.7,2.5-1.6,3.8-2.4c1.3-0.9,2.6-1.8,3.9-2.7c0.7-0.5,1.4-0.9,2.1-1.3c0.7-0.4,1.4-0.9,2.1-1.3
		c0.7-0.4,1.4-0.8,2.2-1.2c0.7-0.4,1.4-0.8,2.2-1.1c0.7-0.3,1.5-0.7,2.2-1c0.7-0.3,1.5-0.6,2.2-0.8c0.7-0.3,1.4-0.5,2.1-0.7
		c0.7-0.2,1.4-0.4,2.1-0.6c1.4-0.4,2.6-0.7,3.8-0.9c1.2-0.2,2.3-0.3,3.3-0.4c1-0.1,1.8-0.1,2.6-0.2c0.7,0,1.3,0,1.6,0
		c0.3,0,0.5,0,0.6,0c0,0,0,0,0,0l0,0l0,0c0,0,0,0,0,0c0.1,0,0.2,0,0.6,0c0.4,0,0.9,0,1.6,0c0.7,0,1.6,0.1,2.6,0.2
		c1,0.1,2.1,0.2,3.3,0.4c1.2,0.2,2.5,0.5,3.8,0.9c0.7,0.2,1.4,0.4,2.1,0.6c0.7,0.2,1.4,0.5,2.1,0.7c0.7,0.2,1.4,0.5,2.2,0.8
		c0.7,0.3,1.5,0.6,2.2,1c0.7,0.3,1.5,0.7,2.2,1.1c0.7,0.4,1.4,0.8,2.2,1.2c0.7,0.4,1.4,0.8,2.1,1.3c0.7,0.4,1.4,0.8,2.1,1.3
		c1.3,0.9,2.7,1.8,3.9,2.7c1.3,0.8,2.5,1.7,3.8,2.4c1.2,0.7,2.4,1.4,3.5,2c1.1,0.6,2.1,1.1,3,1.5c0.9,0.4,1.7,0.8,2.4,1.1
		c0.7,0.3,1.2,0.5,1.6,0.6c0.4,0.1,0.6,0.2,0.6,0.2c0.4,0.1,0.8-0.2,0.9-0.6C275.8,429.4,275.6,429,275.1,428.9z"/>
	<path class="st6" d="M255.7,363.6l0-0.1c0-0.2,0.1-0.4,0.1-0.6c0-0.4,0-0.7-0.1-1.1c-0.1-0.7-0.3-1.3-0.5-2c-0.4-1.3-1-2.5-1.6-3.7
		c-0.6-1.2-1.2-2.4-2-3.5c0-0.1-0.1-0.1-0.2,0c-0.1,0-0.1,0.1-0.1,0.2c0.5,1.2,1,2.4,1.5,3.7c0.5,1.2,0.9,2.5,1.3,3.7
		c0.2,0.6,0.3,1.2,0.4,1.9c0.1,0.3,0.1,0.6,0.1,0.9c0,0.1,0,0.3,0,0.4l0,0.1l0,0c0,0,0,0,0,0l0,0l-0.1,0.2c-0.2,0.4-0.6,1-1,1.4
		c-0.4,0.5-0.9,0.9-1.4,1.3c-1.9,1.7-4.1,3.3-6.2,4.8c-1,0.7-1.9,1.3-2.9,1.9c0.8-0.8,1.5-1.6,2.2-2.5c0.2-0.3,0.4-0.5,0.6-0.8
		c0.2-0.3,0.4-0.6,0.5-1.1c0-0.1,0.1-0.2,0-0.5c0-0.2-0.1-0.6-0.4-0.7c-0.1-0.1-0.3-0.2-0.4-0.2c-0.1,0-0.2,0-0.3-0.1
		c-0.2,0-0.3,0-0.4,0c-0.5,0.1-0.8,0.2-1.1,0.4c-1.3,0.6-2.3,1.3-3.4,2c-0.5,0.4-1.1,0.7-1.6,1.1c-0.3,0.2-0.5,0.4-0.8,0.6l-0.7,0.6
		c-0.5,0.4-1,0.9-1.5,1.3c-0.5,0.5-0.9,0.9-1.3,1.4c-0.9,1-1.7,1.9-2.5,3c-0.8,1-1.5,2.1-2.2,3.2c-0.1,0.1,0,0.2,0.1,0.3
		c0.1,0.1,0.2,0.1,0.3,0c1.6-2,3.3-3.9,5.1-5.6c0.9-0.9,1.9-1.7,2.8-2.5l0.8-0.6c0.2-0.2,0.5-0.4,0.8-0.5c0.5-0.4,1-0.7,1.6-1
		c1-0.7,2.1-1.3,3.2-1.8c-0.1,0.2-0.3,0.4-0.4,0.6c-0.7,1-1.5,2-2.3,2.9l-2.4,2.9l0,0l-2.5,2.6l3.1-1.8c2.3-1.4,4.5-2.7,6.8-4.2
		c2.2-1.5,4.4-3,6.4-4.8c0.5-0.4,1-0.9,1.4-1.4c0.5-0.5,0.9-1,1.2-1.8l0.1-0.2l0-0.1L255.7,363.6
		C255.7,363.6,255.7,363.6,255.7,363.6L255.7,363.6z"/>
	<path class="st6" d="M308.4,285.8c0,8.1-4.2,20.2-4.2,20.2s-4.2-10.2-4.2-20.2c0-7.1,4.2-17.9,4.2-17.9S308.4,279,308.4,285.8z"/>
	<path class="st6" d="M302.9,331.8c0.1,0,0.1-0.1,0.1-0.1c0-0.1-0.1-0.1-0.1-0.1c-1.3-0.1-2.6-0.3-3.8-0.5c-1.3-0.2-2.5-0.4-3.8-0.7
		c-0.6-0.1-1.3-0.3-1.9-0.4c-0.6-0.2-1.2-0.3-1.9-0.5c-0.6-0.2-1.2-0.3-1.8-0.6l-1.8-0.6l-1.8-0.7c-0.6-0.2-1.2-0.5-1.7-0.8
		c-0.6-0.3-1.2-0.5-1.7-0.9l-1.6-1l-1.6-1.1c-0.5-0.3-1-0.8-1.5-1.2c-0.5-0.4-1-0.8-1.4-1.3l-1.3-1.4l0,0l-2.9-2.9l1.8,3.6
		l13.6,27.3c0.1,0.1,0.2,0.2,0.4,0.1c0.1-0.1,0.2-0.2,0.1-0.4l-11.4-24.5c0.1,0.1,0.2,0.2,0.4,0.3c0.5,0.4,1,0.9,1.6,1.2l1.7,1.1
		l1.7,0.9c0.6,0.3,1.2,0.6,1.8,0.9c0.6,0.3,1.2,0.6,1.8,0.8l1.8,0.7l1.9,0.6c0.6,0.2,1.3,0.3,1.9,0.5c0.6,0.2,1.3,0.3,1.9,0.5
		c0.6,0.1,1.3,0.3,1.9,0.4c1.3,0.2,2.6,0.4,3.9,0.6C300.3,331.6,301.6,331.7,302.9,331.8z"/>
	<path class="st6" d="M367,319.2c-0.5,0.8-1,1.7-1,2.7c0-0.4-0.1-0.8-0.2-1.2c-0.2-0.9-0.3-1.9-0.5-2.8c-0.2-1-0.4-2-0.7-3
		c-0.2-1-0.5-2.1-0.8-3.1c-0.3-1-0.6-2.1-0.9-3.1c-0.3-1-0.6-2-1-3c-0.3-1-0.6-1.9-1-2.8c-0.3-0.9-0.6-1.7-0.9-2.4
		c-0.6-1.5-1.1-2.8-1.5-3.6c-0.4-0.9-0.6-1.4-0.6-1.4v0c0-0.1,0-0.2,0.1-0.2c0.1,0,0.2,0,0.2,0.1c0,0,0.2,0.5,0.6,1.3
		c0.4,0.9,1,2.1,1.6,3.6c0.3,0.8,0.7,1.6,1,2.4c0.4,0.9,0.7,1.8,1.1,2.7c0.4,0.9,0.8,1.9,1.1,2.9c0.4,1,0.7,2,1,3.1
		c0.3,1,0.7,2.1,1,3.1c0.3,1,0.6,2,0.8,3C366.8,318.1,366.9,318.6,367,319.2z"/>
	<path class="st6" d="M381.4,300.3c-1,0.6-1.8,0.9-2,1c-0.1-0.5-0.2-1.1-0.2-1.6c-0.5-3.2-1.4-7.4-2.6-11.6c-0.3-1-0.6-2.1-0.9-3.1
		c-0.3-1-0.6-2-0.9-3c-0.6-1.9-1.3-3.7-1.8-5.2c-0.5-1.5-1.1-2.8-1.4-3.7c-0.3-0.9-0.5-1.4-0.5-1.4c-0.1-0.2,0-0.3,0.2-0.4
		c0.2-0.1,0.3,0,0.4,0.2c0,0,0.2,0.5,0.6,1.4c0.4,0.9,1,2.1,1.6,3.6c0.6,1.5,1.4,3.3,2.1,5.2c0.4,1,0.7,2,1.1,3c0.4,1,0.7,2,1.1,3.1
		c1.4,4.1,2.6,8.4,3.2,11.6C381.3,299.6,381.3,300,381.4,300.3z"/>
	<path class="st6" d="M276.6,198.5c-0.1,0.1-0.3,0.1-0.3-0.1c0,0,0-0.1-0.2-0.2c-0.1-0.1-0.3-0.3-0.5-0.6c-0.4-0.5-0.8-1.4-1.3-2.4
		c-0.4-1-0.8-2.3-1-3.7c-0.1-0.7-0.1-1.5-0.2-2.2c0-0.7-0.1-1.4-0.1-2.1c-0.3-2.7-1-5.4-1.6-7.4c0.3,0.3,0.5,0.6,0.5,0.6
		c0.3-0.5,0.6-0.9,0.9-1.1c0.6,2.1,1.2,5,1.3,7.8c0,0.8,0.1,1.5,0,2.2c0,0.7,0,1.4,0,2.1c0.1,1.3,0.4,2.6,0.8,3.6s0.8,1.8,1.1,2.3
		c0.2,0.3,0.3,0.5,0.4,0.6c0.1,0.1,0.2,0.2,0.2,0.2l0,0C276.8,198.2,276.8,198.4,276.6,198.5z"/>
	<path class="st6" d="M282.1,200.1c-0.1,0-0.2,0-0.3-0.1c0,0,0-0.1-0.1-0.2c-0.1-0.2-0.2-0.4-0.3-0.7c-0.2-0.6-0.6-1.6-0.7-2.7
		c-0.2-1.2-0.2-2.5-0.1-4c0-0.7,0.1-1.5,0.2-2.2c0.1-0.4,0.1-0.7,0.1-1.1c0-0.4,0-0.7,0-1.1c0-0.4,0-0.7-0.1-1.1
		c0-0.4-0.1-0.7-0.2-1.1c-0.1-0.7-0.3-1.4-0.6-2c-0.2-0.7-0.5-1.3-0.8-1.8c0-0.1-0.1-0.1-0.1-0.2c0.7,0.8,1-0.4,1.1-1.2
		c0.1,0.2,0.2,0.5,0.4,0.8c0.2,0.6,0.5,1.3,0.7,2c0.2,0.7,0.4,1.5,0.5,2.2c0.1,0.4,0.1,0.8,0.1,1.2c0,0.4,0,0.8,0,1.2
		c0,0.8-0.1,1.6-0.2,2.3c-0.1,0.8-0.2,1.5-0.3,2.2c-0.2,1.4-0.2,2.7-0.1,3.8c0.1,1.1,0.3,2,0.5,2.6c0.1,0.3,0.2,0.6,0.3,0.7
		c0.1,0.2,0.1,0.2,0.1,0.2v0C282.2,199.9,282.2,200,282.1,200.1z"/>
	<path class="st6" d="M289.1,181.4c0,0.5-0.1,0.9-0.1,1.3c0,0.8-0.2,1.5-0.3,1.9c-0.1,0.5-0.1,0.7-0.1,0.7c0,0.1-0.1,0.1-0.1,0.1
		c0,0-0.1-0.1-0.1-0.1v0c0,0,0-0.3,0.1-0.7c0-0.5,0.1-1.1,0.1-1.9c0-0.4,0-0.8,0-1.3c0-0.5-0.1-0.9-0.1-1.4c0-0.5-0.2-1-0.3-1.5
		c-0.1-0.5-0.3-1-0.4-1.5c-0.1-0.5-0.4-0.9-0.6-1.4c-0.3-0.4-0.5-0.9-0.8-1.2c-0.1-0.2-0.3-0.4-0.4-0.6c-0.1-0.2-0.3-0.3-0.4-0.5
		c0.5-0.1,0.7-0.8,0.7-1.2c0.1,0.1,0.2,0.2,0.2,0.3c0.2,0.2,0.3,0.4,0.5,0.6c0.1,0.2,0.3,0.4,0.4,0.7c0.3,0.4,0.5,1,0.7,1.4
		c0.2,0.5,0.4,1,0.5,1.6s0.3,1.1,0.3,1.6c0.1,0.5,0.2,1.1,0.2,1.6C289.1,180.5,289.1,181,289.1,181.4z"/>
	<path class="st6" d="M295.9,164.2c0,0.1,0,0.2-0.2,0.2c-0.1,0-0.2,0-0.2-0.1l0,0c0,0,0-0.2-0.1-0.5c0-0.1-0.1-0.3-0.1-0.5
		c0-0.2-0.2-0.4-0.2-0.6c-0.1-0.2-0.2-0.5-0.4-0.7c-0.1-0.2-0.3-0.5-0.5-0.7l-0.3-0.3l-0.4-0.3c-0.2-0.2-0.5-0.3-0.8-0.5
		c-0.2-0.1-0.4-0.2-0.7-0.2c0.4-0.2,0.7-0.4,0.7-0.5c0.1,0,0.2,0.1,0.3,0.1c0.3,0.2,0.6,0.4,0.9,0.6l0.4,0.3
		c0.1,0.1,0.2,0.3,0.3,0.4c0.2,0.2,0.4,0.5,0.5,0.8c0.2,0.3,0.3,0.5,0.4,0.8c0.1,0.2,0.2,0.5,0.2,0.7c0,0.2,0.1,0.4,0.1,0.5
		C295.9,164,295.9,164.2,295.9,164.2z"/>
</g>
<g id="Layer_5">
	<g>
		<path class="st7" d="M186.3,297.1c-1.5,0.2-3,0.7-4.3,1.3c-1.7,0.8-3.3,1.8-4.8,2.7c-1.3,0.8-2.6,1.7-3.9,2.5
			c1.3-1.8,2.5-4.1,3.4-6.6c0.9-2.7,1.4-5.7,1.5-8.8c0-1.5-0.1-3-0.2-4.5c0-0.4-0.1-0.7-0.1-1.1c-0.1-0.4-0.1-0.7-0.2-1.1
			c-0.1-0.7-0.3-1.5-0.5-2.1c-0.3-1.4-0.8-2.7-1.3-3.9c0-0.1-0.1-0.2-0.1-0.3c0,0,0.1,0.1,0.1,0.1c0.6,0.9,1.2,1.7,1.8,2.6
			c0.6,0.9,1.2,1.8,1.7,2.7c1.1,1.8,2,3.7,3,5.6c0.9,1.9,1.7,3.9,2.5,5.9C185.3,293.8,185.9,295.5,186.3,297.1z"/>
		<path class="st7" d="M123.3,291c0.1,0.9,0.3,1.8,0.5,2.7c-0.8-1.2-1.5-2.5-2.3-3.8c-0.7-1.3-1.4-2.7-2-4l1.1-2.2
			c0.5-1,1-1.9,1.5-2.8c0.5-0.9,1.1-1.8,1.6-2.7c0-0.1,0.1-0.2,0.2-0.2c0,0.2-0.1,0.4-0.1,0.6c-0.1,1-0.4,2-0.5,3.1
			c0,0.5-0.1,1.1-0.2,1.6c0,0.5,0,1.1-0.1,1.6c-0.1,1.1,0,2.1,0,3.2C123,289,123.2,290,123.3,291z"/>
		<path class="st7" d="M334.5,285.9c-0.6,1.3-1.3,2.7-2,4c-0.7,1.3-1.5,2.5-2.3,3.8c0.2-0.9,0.4-1.8,0.5-2.7c0.1-1,0.3-2,0.3-3.1
			c0.1-1.1,0.1-2.1,0-3.2c0-0.5,0-1.1-0.1-1.6c-0.1-0.5-0.1-1-0.2-1.6c-0.1-1-0.3-2.1-0.5-3.1c0-0.2-0.1-0.4-0.1-0.6
			c0,0.1,0.1,0.2,0.2,0.2c0.5,0.9,1.1,1.8,1.6,2.7c0.5,0.9,1,1.9,1.5,2.8L334.5,285.9z"/>
		<path class="st7" d="M280.7,303.7c-1.3-0.8-2.6-1.7-3.9-2.5c-1.5-1-3.1-1.9-4.8-2.7c-1.3-0.6-2.8-1.1-4.3-1.3c0.5-1.7,1-3.4,1.6-5
			c0.7-2,1.6-4,2.5-5.9c0.9-1.9,1.9-3.8,3-5.6c0.5-0.9,1.1-1.8,1.7-2.7c0.6-0.9,1.2-1.7,1.8-2.6c0,0,0.1-0.1,0.1-0.1
			c0,0.1-0.1,0.2-0.1,0.3c-0.5,1.2-1,2.5-1.3,3.9c-0.2,0.7-0.3,1.4-0.5,2.1c-0.1,0.4-0.1,0.7-0.2,1.1c0,0.4-0.1,0.7-0.1,1.1
			c-0.2,1.5-0.2,3-0.2,4.5c0,3,0.5,6.1,1.5,8.8C278.2,299.6,279.4,301.9,280.7,303.7z"/>
	</g>
	<g>
		<path class="st2" d="M175.9,284l-0.1-1c-0.1-0.3-0.1-0.7-0.2-1c-0.1-0.7-0.3-1.3-0.5-2c-0.7-2.6-1.7-4.9-2.6-6.9
			c-0.5-1.1-0.9-2-1.3-2.8c-0.6-0.6-1.2-1.1-1.8-1.6c-0.8-0.7-1.6-1.3-2.4-1.9c-3.3-2.4-7-4.3-11-5.3c-3.9-1-8-1.2-11.8-0.3
			c-1.9,0.4-3.8,1.1-5.6,2c-1.8,0.9-3.5,2-5.1,3.3l-1.2,1c-0.4,0.3-0.8,0.7-1.1,1c-0.8,0.7-1.4,1.5-2.1,2.2s-1.3,1.6-2,2.4
			c0,0-0.1,0.1-0.1,0.1c-0.1,0.2-0.2,0.5-0.3,0.7c-0.3,0.7-0.5,1.5-0.8,2.4c-0.3,0.8-0.5,1.8-0.7,2.7c-0.2,0.9-0.4,1.9-0.5,2.9
			c-0.1,0.5-0.1,1-0.2,1.5s-0.1,1-0.1,1.5c-0.1,1-0.1,2.1,0,3.1c0,1,0.1,2,0.2,3c0.1,1,0.3,1.9,0.4,2.7c0.1,0.4,0.1,0.9,0.2,1.3
			c0.1,0.4,0.2,0.8,0.3,1.2c0.1,0.3,0.2,0.5,0.2,0.8c1.5,2,3.1,3.9,4.8,5.7c1.2,1.2,2.5,2.3,3.8,3.4c1.4,1,2.8,2,4.3,2.7
			s3,1.4,4.6,1.9c0.8,0.2,1.6,0.5,2.4,0.6c0.4,0.1,0.9,0.1,1.2,0.2l1.3,0.1c0.9,0.1,1.7,0.1,2.5,0.1c0.9,0,1.7,0,2.5-0.1
			c1.7-0.1,3.4-0.3,5-0.8c3.3-0.8,6.5-2.1,9.6-3.8c0.6-0.3,1.1-0.6,1.7-1c0.7-0.8,1.4-1.7,2.1-2.8c1.2-1.8,2.3-4,3.1-6.6
			s1.2-5.4,1.2-8.3C176.2,286.8,176.1,285.4,175.9,284z M149.8,306c0,0-4.2-12.1-4.2-20.2c0-6.8,4.2-17.9,4.2-17.9
			s4.2,10.8,4.2,17.9C154.1,295.8,149.8,306,149.8,306z"/>
		<path class="st2" d="M329.5,284.8c0-0.5,0-1-0.1-1.5s-0.1-1-0.2-1.5c-0.1-1-0.4-2-0.5-2.9c-0.2-0.9-0.4-1.8-0.7-2.7
			c-0.2-0.8-0.5-1.6-0.8-2.4c-0.1-0.2-0.2-0.5-0.3-0.7c0,0-0.1-0.1-0.1-0.1c-0.7-0.8-1.3-1.6-2-2.4s-1.4-1.5-2.1-2.2
			c-0.4-0.3-0.7-0.7-1.1-1l-1.2-1c-1.6-1.2-3.2-2.4-5.1-3.3c-1.8-0.9-3.6-1.6-5.6-2c-3.9-0.8-7.9-0.7-11.8,0.3
			c-3.9,1-7.6,2.9-11,5.3c-0.8,0.6-1.6,1.2-2.4,1.9c-0.6,0.5-1.2,1-1.8,1.6c-0.4,0.8-0.9,1.8-1.3,2.8c-0.9,2-1.9,4.3-2.6,6.9
			c-0.2,0.6-0.3,1.3-0.5,2c-0.1,0.3-0.1,0.7-0.2,1l-0.1,1c-0.2,1.4-0.3,2.8-0.2,4.3c0,2.8,0.4,5.7,1.2,8.3s1.9,4.8,3.1,6.6
			c0.7,1.1,1.4,2,2.1,2.8c0.5,0.3,1.1,0.7,1.7,1c3.1,1.7,6.3,3,9.6,3.8c1.7,0.4,3.4,0.6,5,0.8c0.8,0.1,1.7,0.1,2.5,0.1
			c0.9,0,1.6,0,2.5-0.1l1.3-0.1c0.3,0,0.8-0.1,1.2-0.2c0.8-0.1,1.6-0.4,2.4-0.6c1.6-0.5,3.1-1.1,4.6-1.9s2.9-1.7,4.3-2.7
			c1.4-1,2.6-2.2,3.8-3.4c1.7-1.8,3.4-3.7,4.8-5.7c0.1-0.3,0.1-0.5,0.2-0.8c0.1-0.4,0.2-0.8,0.3-1.2c0.1-0.4,0.2-0.8,0.2-1.3
			c0.2-0.9,0.4-1.8,0.4-2.7c0.1-1,0.2-2,0.2-3C329.5,286.9,329.5,285.9,329.5,284.8z M304.2,306c0,0-4.2-10.2-4.2-20.2
			c0-7.1,4.2-17.9,4.2-17.9s4.2,11.1,4.2,17.9C308.4,293.9,304.2,306,304.2,306z"/>
	</g>
</g>
<g id="center_line" class="st0">
	<line class="st8" x1="227" y1="-261" x2="227" y2="600"/>
</g>
</svg>
